/* XPM */
static char *result[] = {
/* columns rows colors chars-per-pixel */
"64 64 239 2 ",
"   c #241F1C",
".  c #121620",
"X  c #151C22",
"o  c #1C1F23",
"O  c #3F0129",
"+  c #291F29",
"@  c #371C29",
"#  c #162022",
"$  c #1D2221",
"%  c #212222",
"&  c #2B2324",
"*  c #28272A",
"=  c #312126",
"-  c #3A2525",
";  c #3E2A24",
":  c #372829",
">  c #393425",
",  c #252730",
"<  c #2E2B31",
"1  c #352D31",
"2  c #3A3339",
"3  c #4C2E1A",
"4  c #4F341E",
"5  c #5B311A",
"6  c #663317",
"7  c #450726",
"8  c #4A192C",
"9  c #57182E",
"0  c #581C30",
"q  c #621D2D",
"w  c #452527",
"e  c #4A2D23",
"r  c #49212B",
"t  c #5F222F",
"y  c #562B29",
"u  c #4C3323",
"i  c #463A26",
"p  c #493827",
"a  c #46342A",
"s  c #553623",
"d  c #533B25",
"f  c #5F2030",
"g  c #42373E",
"h  c #44393E",
"j  c #4A383F",
"k  c #62232F",
"l  c #6A2728",
"z  c #6A262E",
"x  c #6C2A2E",
"c  c #712C2E",
"v  c #772F2C",
"b  c #683627",
"n  c #7B322C",
"m  c #78352D",
"M  c #6E2530",
"N  c #672930",
"B  c #7A3731",
"V  c #2C4D27",
"C  c #50441C",
"Z  c #4B4E2D",
"A  c #554928",
"S  c #76482C",
"D  c #78522A",
"F  c #704B31",
"G  c #78682E",
"H  c #453941",
"J  c #4D3B43",
"K  c #503F46",
"L  c #334950",
"P  c #385260",
"I  c #514047",
"U  c #514148",
"Y  c #4E4E50",
"T  c #745951",
"R  c #6D6653",
"E  c #5B646C",
"W  c #8A351F",
"Q  c #8A3522",
"!  c #8E3925",
"~  c #80342C",
"^  c #883629",
"/  c #853A2B",
"(  c #8A3C2A",
")  c #913621",
"_  c #923E29",
"`  c #884319",
"'  c #964E1B",
"]  c #AF4B1C",
"[  c #B54C1B",
"{  c #A4571F",
"}  c #B6511E",
"|  c #844323",
" . c #894925",
".. c #8E412B",
"X. c #8A4E2F",
"o. c #994B26",
"O. c #934329",
"+. c #994629",
"@. c #99492A",
"#. c #935C2A",
"$. c #9A5D2A",
"%. c #874733",
"&. c #8B5433",
"*. c #965934",
"=. c #A44A26",
"-. c #AD4E25",
";. c #A24B29",
":. c #B14E25",
">. c #A85827",
",. c #B55425",
"<. c #BA5524",
"1. c #BC5A25",
"2. c #B45829",
"3. c #A85731",
"4. c #97622B",
"5. c #99652A",
"6. c #9B6828",
"7. c #9D7E2D",
"8. c #9C6335",
"9. c #9C6937",
"0. c #A8652B",
"q. c #B6672B",
"w. c #BA632C",
"e. c #A96733",
"r. c #BB6435",
"t. c #B87534",
"y. c #B17E30",
"u. c #BB7C34",
"i. c #C35C23",
"p. c #C46226",
"a. c #CD6525",
"s. c #CD6926",
"d. c #C36A2C",
"f. c #CC6B2C",
"g. c #D26B26",
"h. c #D76928",
"j. c #D4782B",
"k. c #DE7C2C",
"l. c #C36A30",
"z. c #CC6D32",
"x. c #C97B34",
"c. c #DB7B37",
"v. c #E47B2A",
"b. c #E97E2A",
"n. c #8F5951",
"m. c #A56858",
"M. c #AF7A67",
"N. c #CF7846",
"B. c #5A9C2F",
"V. c #6A9F36",
"C. c #76A44A",
"Z. c #A68D34",
"A. c #B48535",
"S. c #B19631",
"D. c #A5A239",
"F. c #D8842D",
"G. c #DD852E",
"H. c #C78B35",
"J. c #D58530",
"K. c #DD8E30",
"L. c #CE9438",
"P. c #D79837",
"I. c #E38629",
"U. c #EB822B",
"Y. c #E38B2E",
"T. c #EE8A2D",
"R. c #F58F2D",
"E. c #E2902F",
"W. c #F8922E",
"Q. c #E99B33",
"!. c #F39B32",
"~. c #F99B33",
"^. c #CAAA39",
"/. c #D9A53A",
"(. c #DDAC3C",
"). c #F2B126",
"_. c #E8A637",
"`. c #FCA534",
"'. c #FDAC34",
"]. c #F6A938",
"[. c #E8B83C",
"{. c #F8B53A",
"}. c #FFBD3A",
"|. c #90D839",
" X c #B4E23B",
".X c #D5DA3E",
"XX c #E8C73E",
"oX c #FDC53B",
"OX c #FECB3C",
"+X c #EED83F",
"@X c #FED23E",
"#X c #FFDC3F",
"$X c #FFE53E",
"%X c #B08B4B",
"&X c #90906A",
"*X c #A79369",
"=X c #AF8B7D",
"-X c #B5B766",
";X c #D38950",
":X c #E38F4D",
">X c #F3B651",
",X c #CB936B",
"<X c #EA9561",
"1X c #DCA77B",
"2X c #EBA879",
"3X c #F7CC44",
"4X c #FFD245",
"5X c #FFDC40",
"6X c #FED354",
"7X c #C5E64C",
"8X c #E5E346",
"9X c #FFE140",
"0X c #F7CD76",
"qX c #FBEC6E",
"wX c #589B9B",
"eX c #77BCAC",
"rX c #6DD8D3",
"tX c #7BE5D8",
"yX c #79ECEC",
"uX c #9CA896",
"iX c #AFB1AC",
"pX c #D2A391",
"aX c #F5B997",
"sX c #D0B2AB",
"dX c #EBBEA8",
"fX c #8BCDB6",
"gX c #B1CFA9",
"hX c #FBE48D",
"jX c #E7E698",
"kX c #F8EF98",
"lX c #D9CFAF",
"zX c #FFE7BC",
"xX c #B5F2D8",
"cX c #B0F3F2",
"vX c #FDE6C9",
"bX c #F8F4D2",
"nX c #E6ECE5",
"mX c #EFF0EA",
"MX c #F9F9E3",
/* pixels */
"I I I I I I I I I I I I I I K J J j j j j J J J J K K K I I I I I I K K J J j j j J j J J K K K K K U K I I I I I I I I I I I I ",
"I I I I I I I I I I I I I I K K K j j J j j j J K K K K I I I I I I K K J j J j j J J J J K K K K U U U I I I I I I I I I I I I ",
"I I I I I I I I I I I I I I K K J J H J J J J J K K K K I I U U I I I K J J J j j J J J K K K K K U K U I I I I I I I I I I I I ",
"I I I I I I I I I I I I I I K K K J K J J J J J K K K K I U U U I I I K K J N j j j J J K K K K U K U K I I I I I I I I I I I I ",
"I I I I I I I I I K I I I I I K I I J J J I J I K K K U K U U U K K K J J J H J J j J J J I I I K U I I I I I I I I I I I I I I ",
"I I I I I I I I I I I I I I I I I I I I I I I I K U U K U K K U K K K K J J j J j H j J J I I I U U I I I I I I I I I I I I I I ",
"I I I I I I I I I I I I I I I I I I I I I I I I U K U U K K U K K K K J J J J J J J J J I I I I U U U I I I I I I I I I I I I I ",
"I I I I I I I I I I I I I I I I I I I I I I I I K U U K U U K U K K K J J J J J J J J U J I I I U U U I I I I I I I I I I I I I ",
"I I I I I I I I I I I I J H g 2 2 g g J I U I I I I I I I I I I K K U K U J U J I J I I H h g 2 2 g H K I I I I I I I I I I I I ",
"I I I I I I I I I I I I J 2 , , * < 1 g I I I I I I I I I I I I K U K U J U I I I I I I g 1 < * , , 2 J I I I I I I I I I I I I ",
"I I I I I I I I I I I K H 2 $ $ + $ * 2 H U I U I I I I I I I I K K U K U U I I I I I H 2 * $ , # % 1 H I I I I I K U I I I I I ",
"I I I I I I I j H H H H h a a d a - + 1 2 H H H H g g g g g g g H H H J g g H H H H H 2 1 = : a d p p h g H H h j K U I I I I I ",
"I I I I I I I 1 1 < , , a S #.$.S y @ , , , , , , , , , , , , , , , , , , , , , , , , , = @ y S *.$.S > , , < 1 w I I I I I I I ",
"I I I I I I I % % o . X p 4.F.k.3.c 0 @ % X # o o o o $ o o + o o o o + o $ o o # # X + @ 8 c 3.k.F.5.p X X $ % * I I I I I I I ",
"J I I I I I I % % & - i D u.!.W.r.~ 0 y a p i p p p p p p p p p a p a p p p p p p p p a y f B r.W.!.x.D > & * * & K I I I I I I ",
"K K J I I I I o * > A #.y._.}.].l.( n %.#.5.5.4.4.4.4.4.4.4.4.4.4.4.4.4.4.4.4.4.5.5.5.#.%.v ( l.].}._.y.#.F ; % o K I I I I I I ",
"j J K K K K K X % d $.j.!.oXoX[.u.O.( 2.j.Y.Y.G.G.G.G.G.G.G.G.G.G.G.G.G.G.G.G.G.Y.Y.Y.j.>...O.u.[.OX}.!.F.#.4 % X I I I I I I I ",
"J j J j j K K . $ d 0.T.`.oXoX[.u.o.+.w.I.W.W.W.R.W.R.W.R.R.R.R.W.R.R.W.W.R.R.R.R.W.W.b.w.O.@.u.[.oXoX`.T.0.d % . I I I I I I I ",
"j K j K K K I X   s $.v.W.`.'._.t.o.O.2.k.U.U.b.v.b.b.U.U.U.U.U.U.U.U.b.U.v.b.b.b.U.U.j.1.O.@.t.P.{.`.W.k.>.s % X I I I I I I I ",
"j j j K J K K o + 4  .p.v.R.!.G.q.O.O.-.i.s.g.s.s.s.s.g.g.g.g.g.h.h.g.g.g.s.s.s.s.g.s.p.-.O.@.q.Y.W.R.v.a. .u % X I I I I I I I ",
"j j J J K K I o % u | 1.h.b.T.k.w.O._ =.<.i.i.i.i.i.1.1.1.<.<.,.,.<.1.1.1.1.i.i.i.i.i.1.=._ O.w.I.T.b.h.1.` e % # I I I I I I I ",
"j J J J J K I X % e | <.h.b.T.k.w.@._ ;.,.i.i.i.<.<.,.-.;._ ( ^ ^ ! _ +.-.,.2.<.i.i.i.<.=.O.@.w.v.U.v.h.<.| e % X I I I I I I I ",
"J J J J I I I X $ e ` } h.b.T.G.w.@.O.;.<.i.i.i.i.,.=.O.^ c N f q z v ^ O.-.,.i.i.i.i.:.=.O.+.w.G.T.b.h.<.| e % # I I I I I I I ",
"J J J J I I I X % s  .i.v.T.R.K.q.O._ ;.1.s.g.h.p.2.o.( n x N t N N x n ^ +.2.p.g.g.f.i.=.( O.q.G.R.T.v.p. .u % X I I I I I I I ",
"K K K K K I I X % d 0.K.`.'.'.E.e.n / 3.J.Q.`.Q.K.q...m B *.9.9.9.8.&.B m ..q.K.!.!.Q.F.0./ / e.P.'.'.`.K.0.A % X I I I I I I I ",
"K K K K I I I . % A Z.}.@X@XoX/.e.x m e._.OX@XOX{.u.%.N %.A.(.[.(./.u.%.N %.u.{.OX@XOX_.e.m x 8./.oX@X@X{.A.A % . I K K I I I I ",
"K K K K I I I . % A Z.XX#X#X@X_.5.x x 9.(.4X#X@X[.A.m t &.P.@X9X9X#X^.&.k m y.>X#X#X@X(.9.c x 9._.@X$X@XXXZ.A $ . K K K I I I I ",
"K K K K I I I . % i G Z.^.XXoX_.q.l b X.Z.S.S.S.Z.&.t 0 X.P.oX$X$X9X/.*.t y D Z.S.S.S.7.D l m e._.oXXX^.Z.G i % X K J K K I I I ",
"K U K U K U K % % * > Z G H.'.W.d.W l 5 d A Z A p e 8 0 %.j.'.OX9X5X(.*.0 8 e s A C C p 5 b  .q.!.`.H.G Z > % % % K K J K K I I ",
"U K U K U K K % % $ X $ 4 6.I.T.f.;./ s &   # # % @ r b @.z.R.'.oX3X/.8.x 8 @ % # . X * y m =.s.T.Y.0.d o . $ $ % j j J K K I I ",
"K U K U K K K $   % & e s S { q.N.M.m.T Z V V V V Z D &.3.r.d.x.L.L.A.q.@.F Z L P P Y R n.0.q.1.q.{ D 5 3 & & % % j J K J K I I ",
"U K U K K K K + % e b ` ` 6 3 A uXsXlXuXC.B.B.B.V.D.^.;Xu.*.../ %.&.0.d.x.y.&XwXwXeXiXsX2X:XF.6.6 3 5 `  .b ; o   j j j K I I I ",
"I I K K J J J X % u o.i.>.5   U uXnXMXjX|.|.|.|.|..X8XoXH.%.f 9 9 k %.j.].>XgXeXyXcXcXMXhX6XE.4.> $ s >.i.o.s % X j J J K K K K ",
"I I K K J J J X % s { i.w.&.Y E uXbXbXkX7X X X X7X8X#XOXL.%.9 O O 9 / ;X0XhXgXtXyXcXmXmXkX6X].Z.R Y T r.a.' 4 % X j j J K K K K ",
"I I K J K J H o % 3 ' i.N.=XiXiXlXhXqXqX8X8X+XXXXXOX4X}.H.%.9 7 O 9 n.pXzXbXcXtXyXyXcXxXjX4X3X0XiXiX,XN.a.' 4 % X H J J K K I I ",
"I I K J J J j o + 3 ` 1.:XdXmXMXkX6X@X+X3X3XoX>X'.{.'.>Xx.%.q 8 7 k n.sXMXmXcXtXrXrXrXfXgX[.4XhXMXmXdX;X} W 3 % o J K J K I I I ",
"I I I K J J j X   3 W 1.:XaXvXvXhX{.).).{.'.'.~.~.~.>XW.x.@.v l M v n.pXvXnXgXfXeXeXeXuX-X[.OX0XzXvXaXN.i.' 3 % X K J K K I I I ",
"I I K J J J j X $ u ` p.c.<XaX<X:XT.I.Y.E.Y.Y.U.b.U.U.v.f.2.;.+.=.;.r.,X1X1X,X*X*X*X*X*X%XK.Q.<X2X2X<Xc.i.O.e $ X K I K K I I I ",
"I I K K J J J X $ u ' p.h.h.z.z.s.s.s.s.s.s.s.s.s.s.s.s.a.p.p.1.i.i.p.f.z.z.l.r.f.l.l.d.s.s.s.f.z.z.h.h.i. .4 % X I I I I I I I ",
"I I I K J J J # % e | >.<.} ] ] ] -.} { :.-.-.:.-.:.-.:.,.,.1.1.<.<.<.] ] ] [ } [ [ [ } :.,.-.] [ ] <.<.,.| u $ o I I I I I I I ",
"I I I K K J K $ % ; b ( _ ! Q Q ^ ^ / ^ ^ ^ ^ ^ ( ^ ( / ^ _ ..O._ O.( Q Q W Q ) ) ) ) ) Q ^ ^ / Q Q ! _ ( b ; % $ J I I I I I I ",
"I I I K K K J $ % = y k M z z z k z N N z z z z z l N N z z N l M z z z l l N z z z z z N l z z z z z x k y = % $ I I I I I I I ",
"I I I I I I I $ % = w k z N q k k t k t N t k k k t k k k N t N t t k k N k k k k k k k k k k k k k k M t r = % $ I I I I I I I ",
"I I I I I I I $ % ; y x v v v c v v v c c c c v v c c c c c c c v v v c c c c x c c c c c v c c c c v n v y - % $ I I I I I I I ",
"I I I I I I I # % ; b ( _ _ ( / / / / _ / / ( / ( ( / / ( ( ( ^ / / ( ( ( / ( ( ( ( ^ ( / ^ / / / ( ( _ ( b ; $ $ I I I I I I I ",
"I I I I I I I $ $ ; b ( O.O.O._ O.O.O.O.O.O.O.O.O.O.O.O...O.O.O.O.O.O.O.O...O.O.O.O.O.O.O.O.O.O.O.O.O.O...b ; % $ I I I I I I I ",
"I I I I I I I $ % - y n ^ ( O.o.O.O.O. .O.O.O.O.O.O.O.O.O.O.+.O.O.O.O.O.O.O.O.O.O.O.+.O.O.O.o.O.O.O._ ^ n y - $ $ I I I I I I I ",
"I I I I I I I $ % = y N v ^ O.+.O.O.O.O.O.O.O.O.O.O.O.O.O.O.O.O.O.O.O.O.O.O.O.O.O. .O.O.O.O.O.O.O.O./ n z r = $ $ I I I I I I I ",
"I I I I I I I $ % = r t z n ( ....( ( ..( _ ( ( ( .._ ( ( ( ( ( _ ( ( ( ( ..( ..( ( ( ( ( _ ( ..O.( ~ M t r = % $ I I I I I I I ",
"I I I I I I I $ % = r f M v ~ ~ / ~ ~ ~ ~ n ~ ~ ~ ~ ~ ~ ~ ~ ~ ~ n ~ ~ ~ ~ ~ ~ ~ ~ ~ ^ ~ ~ ~ ~ ~ ~ n v M k r = % $ I I I I I I I ",
"I I I I I I I $ % = y k M M M c M c c M c c x M c M c x x c M x c c M c c c M M c M c z c x x c M M M M k r = % $ I I I I I I I ",
"I I I I I I K $ % = 8 t k k k f t t f k t t k t t t t k t k k f t k t t t t f k t k t t t k t t k k k k k r = % $ J I I I I I I ",
"I I I I I I I $ % & ; r r r r r 8 r r r r r r r 8 w r r r r r r r r r r r r r r r r r r r r 8 r r r r r r w & % % J J K J I I I ",
"I I I I I I K % % & & = = = = = = = & = & = = = = = = = = & = = + = = = = = = & = = = & = = = = = = = = = & & % % j J K I I I I ",
"I I I I I I I % % % % % % % & $ % % % % % % % % % % % % % % % % % % % % % % % % % % % % % % &   % % % % % % % % % j j J J I I I ",
"I I I I I I I % % % % $ $ $ $ $ $ $ $ $ $ $ $ $ $ $ $ $ $ $ $ $ $ $ $ $ $ $ $ $ $ $ $ $ $ $ $ + $ $ $ $ $ % % % % j J J J I I I ",
"I I I I I I I K K K K K K J K K K I I I I I I I I I I I K I I I K I I I I I I K K K K K K K I I K K K K J j j j j j J J K K K K ",
"I I I I I I I I K K K K K K K K I I I I I I I I I I I I I I I I I I I I I I I I I K K K K K I I K K K K J J j j K j j J J K K K ",
"I I I I I I I I K U I I I I K K I I I I I I I I I I I I I I I I I I I I I I I I I I I I K K U I K K K K J J J J j j J j K K K K ",
"I I I I I I I I K K I I I I I I I I I I I I I I I I I I I I I I I I I I I I I I I I I I K K U I K K K K J K J J K j K K K U K U ",
"I I I I I I I I I I I I I I I I I I I I I I I I I I I I I I I I I I I I I I I I I I I I I I I I U I I K K K K K K K K K K U K U ",
"I I I I I I I I I I I I I I I I I I I I I I I I I I I I I I I I I I I I I I I I I I I I I I I I U U U K U K K K K K K U K K U K ",
"I I I I I I I I I I I I I I I I I I I I I I I I I I I I I I I I I I I I I I I I I I I I I I I I I I I I U K K K K K U K U K U K ",
"I I I I I I I I I I I I I I I I I I I I I I I I I I I I I I I I I I I I I I I I I I I I I I I I I I I I K U U U U K K U K U K U "
};
