/* XPM */
static char *result[] = {
/* columns rows colors chars-per-pixel */
"64 64 193 2 ",
"   c #0E0B0D",
".  c #0E1315",
"X  c #141515",
"o  c #161717",
"O  c #1B1515",
"+  c #17191A",
"@  c #1C1C1C",
"#  c #261A17",
"$  c #2B1C17",
"%  c #231619",
"&  c #28171C",
"*  c #221D1D",
"=  c #2C1C1A",
"-  c #351E19",
";  c #1F201F",
":  c #22211E",
">  c #2C221E",
",  c #36221C",
"<  c #382019",
"1  c #1E1F21",
"2  c #231E21",
"3  c #2C1D22",
"4  c #311F24",
"5  c #1F2021",
"6  c #1A2B2B",
"7  c #242323",
"8  c #2A2626",
"9  c #2B2827",
"0  c #272528",
"q  c #2B2728",
"w  c #252A2A",
"e  c #2D2A29",
"r  c #352622",
"t  c #392621",
"y  c #322629",
"u  c #332C2C",
"i  c #392F2E",
"p  c #26302F",
"a  c #36302E",
"s  c #39312F",
"d  c #362E31",
"f  c #392F31",
"g  c #263534",
"h  c #2B3A39",
"j  c #363231",
"k  c #3C3333",
"l  c #3D3936",
"z  c #35333C",
"x  c #3F3538",
"c  c #3D3A39",
"v  c #4C261A",
"b  c #421F28",
"n  c #4C1D29",
"m  c #521F2A",
"M  c #472826",
"N  c #522825",
"B  c #55212A",
"V  c #5C242D",
"C  c #5E3224",
"Z  c #413635",
"A  c #423936",
"S  c #43363B",
"D  c #453A3B",
"F  c #4A383B",
"G  c #4A3C3C",
"H  c #503F3C",
"J  c #66292B",
"K  c #642A2B",
"L  c #742B2F",
"P  c #792F2E",
"I  c #633123",
"U  c #6C3425",
"Y  c #673028",
"T  c #743724",
"R  c #7C3A26",
"E  c #74352A",
"W  c #7A3728",
"Q  c #7C322E",
"!  c #6E2930",
"~  c #732B30",
"^  c #47413C",
"/  c #4C423E",
"(  c #52423E",
")  c #3E3942",
"_  c #473940",
"`  c #4D3C42",
"'  c #513F46",
"]  c #2E4544",
"[  c #314846",
"{  c #324D4C",
"}  c #33514E",
"|  c #365552",
" . c #434241",
".. c #4E4243",
"X. c #4D4944",
"o. c #4D434A",
"O. c #514047",
"+. c #594744",
"@. c #544B44",
"#. c #5C4A46",
"$. c #544349",
"%. c #59464A",
"&. c #554E49",
"*. c #5D4B4B",
"=. c #5C524B",
"-. c #595351",
";. c #604C47",
":. c #624E4A",
">. c #65514C",
",. c #6A534D",
"<. c #6A5A4F",
"1. c #655452",
"2. c #6D5651",
"3. c #635C53",
"4. c #6D5A53",
"5. c #705750",
"6. c #745A54",
"7. c #795D56",
"8. c #745E58",
"9. c #666057",
"0. c #6D635A",
"q. c #726256",
"w. c #75615C",
"e. c #76675E",
"r. c #7D6A5E",
"t. c #556A66",
"y. c #833C26",
"u. c #823D28",
"i. c #8C3C2A",
"p. c #923E2C",
"a. c #8B4029",
"s. c #934229",
"d. c #9C442B",
"f. c #806C5E",
"g. c #826E61",
"h. c #8B7566",
"j. c #897769",
"k. c #8D7568",
"l. c #957C6C",
"z. c #987E6E",
"x. c #8B7E71",
"c. c #9A7F70",
"v. c #48807C",
"b. c #9A806F",
"n. c #8D8174",
"m. c #9D8272",
"M. c #97897B",
"N. c #A28574",
"B. c #A78977",
"V. c #AA8D7B",
"C. c #AF917E",
"Z. c #518D88",
"A. c #53948F",
"S. c #748A85",
"D. c #5BA49E",
"F. c #5CA6A0",
"G. c #5CB4AE",
"H. c #62BBB4",
"J. c #69BFB8",
"K. c #68C4BD",
"L. c #71CAC2",
"P. c #7CD5CC",
"I. c #9F9791",
"U. c #A29383",
"Y. c #AB9583",
"T. c #A59887",
"R. c #AA9B8A",
"E. c #B39681",
"W. c #B69984",
"Q. c #B89B86",
"!. c #B39E8B",
"~. c #B99E8A",
"^. c #B3A08D",
"/. c #BDA18C",
"(. c #ABA29C",
"). c #B6A592",
"_. c #BBA996",
"`. c #BDAC99",
"'. c #B9B0A9",
"]. c #CDAC96",
"[. c #C3AE9A",
"{. c #CEB59F",
"}. c #CBB8A3",
"|. c #D3BBA4",
" X c #D1BDA8",
".X c #DBC4AD",
"XX c #DEC9B2",
"oX c #E3CCB5",
"OX c #92E7DD",
"+X c #97ECE2",
"@X c #C3D5CD",
"#X c #D6E6DD",
"$X c #D8ECE2",
/* pixels */
"%.*.*.$.9 s r.C.Q.l.l j M.XXXXXXoX`.-.; + ; : : 5 ; ; @ @ 5 7 7 ; @ @ ; ; ; : 7 : 7 7 : o D M..XoX`.=.k <.b.l.b.N.h./ u G %.$.O.",
"*.*.' G G =.k.C./.C.e.9.n.M.T.T.Y.M.=.s a a w 7 e s a a s u 7 7 9 a u a u u 7 7 9 u u e 9 ^ x._.[.M.^ a r.W.Q.W.C.b.:.s D ..$.$.",
"#.$.f k q.b.B.C.[.|.}.R.9.l j l l D #.,.5.#.a 9 ( ,.,.,.2.#.j 9 / ,.,.,.,.#.a 9 G ,.,.>.:.;.#.@.X. .5 l M.|..X{./.N.l.q.D k _ $.",
"D A ^ >.b.C./.^.Y.U.R.M.@.9 9 9 8 i +.6.6.>.a 9 @.6.7.6.7.:.j 9 +.6.7.6.7.>.a 9 +.6.6.6.q.>.u @ : 8 7 ^ n._._.).!.W.Q.b.@.7 k _ ",
"9 k q.b.B.Q.{._.0.l s ^ #.,.>.>.>.:.+.+.@.G u 9 A +.@.+.+.F e 9 A @.+.$.#.G u 8 D +.#.+.#.H 8 : A #.:.:.@.X./ 9.R.{.].m./ + 1 q ",
"/ @.4.h.Y./.^.n.@.9 8 s ( ,.5.5.6.,.H k k a 9 7 u k x l l s 9 7 i Z l l l k 9 7 j l l Z Z k u k ;.6.7.,.Z 9 * D n._.C.h.@.u a j ",
"l.g./ @.Y._.0.D ( ,.,.;.Z a D ( +.G k e 8 9 7 7 8 e 9 9 q q 7 7 8 q e e 9 9 7 7 9 e e e 9 a @.:.;.+.#.+.#.( ;.#.=.&./ @.4.r.r.r.",
"N.N.0.3.n.n.^ 9 ( 5.6.;.a ; u Z l j e 7 7 7 8 8 8 7 7 q 8 8 9 q 8 7 7 7 5 7 7 7 7 8 7 7 7 u +.>.( k k G :.6.q.,.s ; + a h.Q.E.V.",
"b.E._.T.3.l s Z / ( +.F e : 7 e 9 9 a j e 8 9 u j k c A x x x A Z A l u 0 7 7 e d k l Z l l k l d 9 e u G #.#.@.D e o l U.|./.V.",
"V.~.^.n.l o s G G A Z u 7 ; 7 e w p l k u 7 8 9 l D  . . .G  ._ G D c j 0 7 7 0 j c D G _ D e 7 7 7 5 7 k Z S A Z s @ l n._./.E.",
"[.).4.j 7 7 k G H A u 7 o o u Z l l l s 8 : : 8 d j D _ D D D D _ ^ D j e 7 7 q a k Z D D c j e 7 7 7 : 7 u e 9 9 7 @ 7  .e.!.|.",
" X_.X.X 9 k k s k k y 3 O X 9 k l l a p 7 ; * : e e j j k k x f l j j u q 3 7 7 e u s l l l j u : ; o @ @ 5 2 7 e u u 9 o k n.`.",
"}.).X.7 ( ;.k 7 7 y M n & . * y e e e p : @ ; ; 7 8 e u u u y u u e e y q 0 3 8 9 > 9 e e a e 9 : ; o @ @ * @ e ( >.>.( 7 7 ^ 3.",
"n.x. .d +.,.( a 5 y K J - X O * 9 > : > : : @ ; 7 8 8 9 q y y u u u u u y q q q 9 > > > > : 7 7 : ; * : 2 * 1 u ( 5.7.>.k 7 5 ; ",
"l l Z D G +.,.;.e y T T < X ; : : : ; : > 9 e u e u u u f f f S k k f k f k d d a u e 9 7 : 7 7 : 9 9 8 y 8 7 9 s A ( +.D a 7 @ ",
"+ @ k G D G ;.( w > R R < X 9 u : : : 9 a l Z D D D D F F F _ ' G D _ G _ _ G D D A A s 9 8 8 8 a l Z A S l u 7 : 9 k G / Z e ; ",
"7 7 k G / D s 8 X # T y.- o A A u : : u G @.#.*.' %.%.' ' %.%.' %.' ' ' ' ' ' +.%.#.O.D f 8 8 d D ( >.;.:.%.+.Z 8 9 k G ( A e : ",
"u u Z G G Z 9 @ # v y.R , * / / a > 8 s ( =.,.1.1.*.:.;.;.%.' *.%.%.;.%.;.' +.%.*.*.%.@.S y q f ( <.q.7.6.8.2.>.d 9 k A D k 8 5 ",
"G Z F G G c 7 8 I y.s.R - @ @.( l 7 8 k $.-.1.1.1.*.*.%.%.*.%.*.%.%.' +.' ' %.%.*.=.%.O.S i e x $.2.w.w.8.8.q.>.a 8 e e e 7 7 @ ",
"l k s k l e 5 , W d.p.U = @ ^ G a w 8 k ..*.1.=.%.%.%.%.' ' ' ' ' ' ;.' ' ' ' $.$.*.%.O.S y u x ( >.4.6.6.4.2.;.l w 7 7 e u e e ",
"9 8 w 7 8 7 . # T p.Q B $ @ A A u q q k G O.%.$.$.$.o.$.$.$.$.' ' ' %.' ' ' ' ' $.$.O.` D f d k D ( #.#.>.#.#.#.@.Z 7 9 / ;.;.#.",
"k k Z a 7 * = v R i.~ n % O s s e q y f S ` O.O.' ' ' ' ' ' ' ' ' ' ' ' O.' ' $.' O.O.` _ S k f A G H / ( ( H ( F Z 9 a ;.6.6.5.",
",.,.5.#.e > I i.s.i.L m % O s u e e y k S G ` O.' ' ' ' ' ' ' ' $.' ' ' O.' ' ' ' O.` .._ S x x A G G F G A A F F Z 8 u / #.#.#.",
",.,.,.( 9 * C a.s.i.~ m % o u d d e u x G G ' ..' ' ' ' $.' $.' ' ' ' ' ' O.' o.O.' ' ' ` _ _ ) A F G D k s i M Z M 8 9 k G G F ",
"( H s 9 5 : 7 M a.a.P m & o u k d e d x _ O.O.O.' ' ' ' ' ' ' ' ' ' ' ' ' ' $.' ' ' $.' ' ' _ _ .._ _ D f r y i l k 9 e l F G D ",
"G Z : w } } 6 * C U ! m % o k k u d d S _ ` O...O.o.O.' ' $.$.' ' $.$.' $.' ' ' ' ' ' ' ' ' ` _ _ _ ..D f 9 9 y k l 7 e Z G G G ",
"G s * ] D.F.] + 8 t V B & X d f d d x _ _ o.' ' ' O.O.' ' ' ' $.' ' ' ' ' $.' $.' o.' ' ' ' ' ` .._ _ D d 9 8 9 d j 7 e A G G G ",
"s y % [ K.P.S.-.e 3 B m & o e d d d x S ` ' ' O.o.' O.O.' $.' ' ' $.o.' ' ' ' ' ' o.' ' ' ' ' _ .._ S x y 8 2 8 u e w 9 k A Z Z ",
"9 : % [ G.+X$X'.X.@ m m % X 0 u d f S D ` ` ' ' ' ' $.' ' ' ' ' $.' $.' $.' $.' ' o.' ' ' ' ' ' _ _ D S y q 0 0 w 9 7 7 9 9 8 9 ",
"Z u O [ G.OX@X(. .& V K # X 3 u f x D _ ` ' ' O.' ' ' ' ' o.o.' ' ' ' ' ' ' ' ' ' ' ' $.' ' ' ..O.` D S d u q q 7 7 7 9 9 u e e ",
"5.( , ] H.L.t.l 7 r Q T $ X q f x S _ ` ` ' o.' O.$.' $.' ' ' ' ' ' ' o.' ' o.' ' $.' ' o.' ' ' O.` _ S x d e q 9 7 ; e ( :.#.#.",
"5.#.8 h Z.Z.g   . r u.u.$ X f _ _ ` O.O.O.O.' ' O.' ' ' ' o.$.' ' o.' ' $.' o.' ' ' $.$.' ' O.O.O.' ' ` _ _ S l e 7 @ a >.6.6.5.",
"+.A 8 7 h h 7 o . = y.R = + S %.' ' ' ' ' ' ' ' ' $.o.' $.' ' ' ' o.' o.' ' ' $.' ' $.$.$.' $.$.$.$.' ' ' $.' V ) 4 1 d ` %.#.#.",
"D D u 9 % o @ @ $ v y.R - @ ' *.%.%.%.$.' ' ' ' $.' ' $.' ' %.' ' ' ' %.' $.o.' ' o.' $.' $.' ' ' ' ' $.$.%.%.' ) 4 1 q S _ G F ",
"F A A k 8 o . # I y.s.T $ @ ..*.%.%.$.' ' ' ' ' ' ' $.' $.' ' o.' ' ' ' ' ' ' ' ' $.' ' ' ' ' o.' ' ' $.' $.$.' _ 3 1 y Z G G G ",
"i k Z u w : = v y.d.d.T $ @ G %.%.$.' ' ' ' ' ' ' o.' ' o.' ' ' %.' ' ' $.o.' $.' ' ' ' ' ' ' o.o.' $.' ' $.$.' ) 3 2 0 k Z Z l ",
"8 8 7 7 1 r U y.p.s.d.T = @ S $.' ' ' ` ` ' ` ' ' $.' o.' ' %.' ' ' $.' ' ' o.' ' ' o.' o.' ' ' ' ' ' ' ' o.' _ l 9 ; 8 9 9 w 9 ",
"k k l a 7 t E p.s.p.i.Y & @ S ` ' ' ` _ _ ' ` ` ' ' ' ' o.' ' ' o.o.' ' $.' $.' ' $.$.' ' ' $.' o.' $.' ' ' ' _ k 9 7 w e u e y ",
",.,.5.+.9 8 V P i.i.P B % + S ` ' _ ` _ ' _ _ ' ' ' ' $.' ' ' $.' ' ' o.$.' ' $.' ' ' o.' ' ' $.' $.' ' ' ' ' _ x 8 : a ( :.#.#.",
",.5.6.+.e 3 m ! i.y.! n % + f ` _ ' V _ _ _ _ ' ' ' $.' o.' ' ' $.' $.' ' ' o.' $.o.' ' ' $.' ' ' ' ' $.' $.' _ k 8 ; s :.6.6.5.",
"( @.@.A 8 3 B ~ i.i.! n % + f _ _ ` _ ' _ ` ` ` ' ' ' o.' ' $.' ' o.' ' ' ' o.' $.' $.' $.' o.$.' $.O.O.' O..._ x u 7 d / #.#.#.",
"F A k u * * M K i.i.! n % + f _ ` _ V _ _ _ _ ` ' ' ' ' o.' ' ' $.' ' $.$.' ' ' ' ' o.' ' ' ' ' ' O.' O.O.O.o._ S e 7 e S G G F ",
"F l 9 7 2 @ 2 M u.i.~ n O o f S _ ` ` _ ' _ V ' ' ' ' $.' ' ' ' $.' o.' $.' o.$.' ' ' ' ' o.$.' ' $.O.O.' ' O.` x y 7 e A ^ G D ",
"s u 7 w } { 6 = C E ! n % o d _ _ _ ` ` ' _ ' ' ' ' ' ' ' $.' o.' $.' ' ' ' ' ' ' $.o.' ' $.' ' ' ' O.` O.' ` ` x u 7 0 k Z Z Z ",
"7 * % { F.A.h O 3 M V m & X y S _ _ _ _ _ ' ' ' ' ' ' ' ' ' ' ' $.' $.o.' ' ' $.$.' $.' ' o.' o.o.' $.' O.' ` _ S d 7 7 8 9 8 9 ",
"Z i * | K.P.S.-.0 3 B m % X y _ _ _ ' ' ' ' ' _ ' $.$.' $.' o.o.' $.' ' ' ' ' $.$.' ' ' ' ' ' o.' ' ' ' O.` ` ` D k 7 9 e u e 9 ",
",.( 8 { H.+X#X(._ 2 m m % o y _ _ _ ' _ ' ' ' ' ' ' o.' ' ' ' ' $.' ' $.' ' ' ' ' o.' ' ' ' ' ' ' ' $.' O.' ` ` _ d 7 u ( >.;.+.",
"6.( 8 { H.+X@XI.) & m n % + ) _ ` ' _ ' ' ' ' ' ' ' ' ' $.' ' $.' o.' ' ' $.o.' $.' ' $.$.' $.' o.' o.' O.' ' o.` x w s >.6.5.,.",
"( Z # | J.J.t.s 7 r m m % @ G %.%.' ' ' %.' ' ' ' ' ' ' ' ' $.' ' ' ' ' ' ' ' ' ' o.o.' o.' $.' ' $.' ' ' ' %.' %._ q u O.#.#.+.",
"F i 7 [ Z.v.6 O , M K n % 2 %.>.*.*.*.%.%.%.$.$.$.$.$.' o.' ' ' ' %.' ' ' ' ' ' ' ' ' ' ' ' ' ' ' ' ' $.' ' ' ' ' ` e e Z G G / ",
"G k 8 7 h h 6 r T Q ! b O 7 %.2.:.*.*.*.%.%.' $.' $.' ' $.' $.O.' ' ' ' ' ' ' ' ' $.' ' ' $.$.' ' ' ' ' ' ' ' ' ' ` y u Z G G G ",
"G Z a 7 O * , C i.s.Q B % 2 %.>.:.*.*.+.%.%.%.$.$.$.$.$.' ' ' ' ' o.' ' ' ' ' ' ' ' ' ' ' ' ' ' $.' o.' ' ' ' ' ' ` y e k Z Z G ",
"G D Z a 7 , U a.s.s.a.I # 1 G %.#.+.+.%.+.$.$.O.$.$.' O.$.' O.O.' %.' ' ' ' ' ' ' ` ` ' ' ' ' ' ' ' ' ' ' ` ` ` ` S 9 7 9 9 9 e ",
"k s k u 7 M a.d.y.i.d.U # @ F ( H H G ' G H ' ' ` ` ' ' ' ' ' ' ' ' $.' ' ' ' ' ' ` ` ` ' ' ' o.' $.' ' ` ` _ _ G Z 8 9 e u e a ",
"7 8 7 7 5 M R a.L P a.T $ o Z F F F F F F G G H ` ` ` ' ` ' ' ' ' ' ' $.' ' ' _ _ _ _ ` ' ' O.O.$.' ' ` ` _ _ _ _ Z 9 a ( :.#.+.",
"k Z l u 7 r I U B B U N # o u s i Z Z Z f x k k S x Z S D G S _ ) _ _ ' _ _ _ _ _ S _ _ D _ _ _ ' _ _ _ ) _ S S S d 9 s >.7.5.,.",
",.,.,.( 9 : 8 r > 3 8 > @ @ 7 7 8 8 8 w 7 7 : 7 7 ; 7 8 9 9 7 7 0 2 7 7 2 7 9 9 7 7 7 7 7 0 7 9 e e q 7 7 8 7 7 2 3 7 u ( #.#.@.",
"5.5.5.;.D e ; w ^ ^ ^ ^ / / ^ / / Z 7 9 A ^ ^ ^ D ^ ^ a 7 8 l D ) ) A S D z e e l D c l l Z c j 0 9 l l x l l l x u 7 e Z G G F ",
"/ ( ( #.,./ 8 Z r.b.b.l.b.b.b.b.b.<.> e f.m.b.z.b.b.b.<.7 u r.m.z.c.c.c.l.q.c X.g.l.k.l.l.l.k.4.) ) e.l.k.h.h.h.j.3.u 7 k G D A ",
"D D F ( ,.;.A @.r.z.b.b.l.b.b.N.b.<.: a g.B.N.m.m.N.N.6.: a h.V.c.c.N.N.N.e.c X.k.B.N.m.m.N.m.w.) o.k.B.N.m.N.m.m.q.a 9 Z G G F ",
"F G G G / #.,.#.A Z @.#.#.*.#.>.*.D 9 e @.:.:.*.=.>.:.G 8 e @.>.>.>.>.>.>./ u j #.2.>.,.,.=./ D x ..>.4.2.2.2.>.@.G Z Z G / G A ",
"s k s s k G #.G 7 @ u k a j u a k u 7 9 u k s k s s k e 7 7 d k k u k x k u 7 8 i l l k k u 7 7 l Z x x l l Z u 7 8 k D Z Z A k ",
"7 9 9 7 7 9 e 9 7 7 7 7 7 7 8 7 7 7 7 7 7 7 7 8 7 8 7 7 7 7 7 7 7 7 8 7 q 7 7 7 7 q 8 8 8 7 5 7 8 9 8 8 9 8 8 7 ; 7 9 e e 9 u 9 ",
"7 ; 5 5 ; ; ; ; ; 7 7 5 7 ; 5 7 5 5 5 7 5 2 5 5 : 5 ; 7 7 7 7 ; 5 7 @ 7 1 1 7 5 5 ; 7 ; ; 7 5 7 7 7 5 5 5 7 5 ; 7 7 7 5 7 7 * 7 "
};
