/* XPM */
static char *result[] = {
/* columns rows colors chars-per-pixel */
"64 64 196 2 ",
"   c #070203",
".  c #060C0E",
"X  c #0A0D0D",
"o  c #140B0C",
"O  c #1B120D",
"+  c #040E10",
"@  c #0B0F11",
"#  c #160F12",
"$  c #071010",
"%  c #0C1112",
"&  c #141214",
"*  c #1A1315",
"=  c #131618",
"-  c #1D1618",
";  c #16191A",
":  c #1B1D1D",
">  c #20130F",
",  c #221614",
"<  c #241914",
"1  c #2A1A15",
"2  c #2A1519",
"3  c #231C1D",
"4  c #291919",
"5  c #331A19",
"6  c #331D19",
"7  c #23201E",
"8  c #2D221E",
"9  c #32221F",
"0  c #1F1F20",
"q  c #241E21",
"w  c #2A1E22",
"e  c #3E1924",
"r  c #1F2021",
"t  c #192628",
"y  c #242323",
"u  c #2A2525",
"i  c #2B2827",
"p  c #232828",
"a  c #2C2929",
"s  c #332522",
"d  c #392822",
"f  c #332D2C",
"g  c #34312F",
"h  c #38302F",
"j  c #233939",
"k  c #2B3C3B",
"l  c #363231",
"z  c #3B3332",
"x  c #3B3936",
"c  c #373C3C",
"v  c #3E3D39",
"b  c #422319",
"n  c #5E2E1F",
"m  c #62301F",
"M  c #431D26",
"N  c #4C1C29",
"B  c #521E29",
"V  c #5E1F30",
"C  c #472B27",
"Z  c #54212A",
"A  c #582428",
"S  c #5B242A",
"D  c #503026",
"F  c #5E2030",
"G  c #413635",
"H  c #423A37",
"J  c #43373C",
"K  c #453B39",
"L  c #4A3D3C",
"P  c #69262F",
"I  c #63292D",
"U  c #6C292F",
"Y  c #732D2E",
"T  c #792F2F",
"R  c #653121",
"E  c #6C3224",
"W  c #743624",
"Q  c #783725",
"!  c #773823",
"~  c #7B3925",
"^  c #75342A",
"/  c #7A322D",
"(  c #7C3A29",
")  c #642231",
"_  c #6A2531",
"`  c #6F2930",
"'  c #712733",
"]  c #722A30",
"[  c #792C32",
"{  c #27403F",
"}  c #2D413F",
"|  c #30403F",
" . c #44413C",
".. c #4D413E",
"X. c #54423F",
"o. c #263F40",
"O. c #493A41",
"+. c #2C4241",
"@. c #2E4948",
"#. c #314544",
"$. c #324B49",
"%. c #394C4A",
"&. c #3E504E",
"*. c #454745",
"=. c #4B4642",
"-. c #544343",
";. c #594744",
":. c #534C47",
">. c #5B4945",
",. c #4B524F",
"<. c #58514B",
"1. c #4D5451",
"2. c #525351",
"3. c #5C5855",
"4. c #604C46",
"5. c #624E49",
"6. c #64514C",
"7. c #6B534D",
"8. c #6E5650",
"9. c #645D54",
"0. c #745A54",
"q. c #795D57",
"w. c #7C5F58",
"e. c #796659",
"r. c #7C695C",
"t. c #436D6A",
"y. c #5F7571",
"u. c #74706C",
"i. c #607571",
"p. c #823B26",
"a. c #8A3D27",
"s. c #82362C",
"d. c #863A2B",
"f. c #8C3D2B",
"g. c #913E2C",
"h. c #803231",
"j. c #8D412A",
"k. c #94422A",
"l. c #9A442B",
"z. c #A1472C",
"x. c #A3482C",
"c. c #806B5E",
"v. c #846E60",
"b. c #8C7667",
"n. c #957C6C",
"m. c #99806F",
"M. c #8D8174",
"N. c #9E8473",
"B. c #95887A",
"V. c #9B8C7D",
"C. c #A28574",
"Z. c #A78976",
"A. c #AA8C7A",
"S. c #B1927E",
"D. c #52938E",
"F. c #4F9C97",
"G. c #559C96",
"H. c #599F99",
"J. c #5BB4AE",
"K. c #5EBDB6",
"L. c #62B2AC",
"P. c #65BCB5",
"I. c #68C5BE",
"U. c #77C2BB",
"Y. c #79C2BB",
"T. c #69C9C2",
"R. c #75D3CB",
"E. c #78E5DC",
"W. c #A29585",
"Q. c #B49681",
"!. c #B99B85",
"~. c #B59D8A",
"^. c #AFA08E",
"/. c #B7A08D",
"(. c #B5A492",
"). c #BAA895",
"_. c #BCA996",
"`. c #B9B2AC",
"'. c #C6A690",
"]. c #C6B29D",
"[. c #CBB7A2",
"{. c #D4BCA4",
"}. c #82C5BD",
"|. c #DCC3AB",
" X c #C9C1B9",
".X c #E4CCB4",
"XX c #ECD6BD",
"oX c #84CAC2",
"OX c #88D0C8",
"+X c #92E8DF",
"@X c #CCD5CD",
"#X c #D1DCD3",
"$X c #EADCCB",
"%X c #D5E2D9",
"&X c #E8E2D9",
"*X c #EFE9E0",
/* pixels */
"-.-.O.O.: z b.Q.Q.v.y l (.XX.X.XXX).K & ; r w y : : 0 : : 0 q y : : 0 0 : : 7 r : : : ; &  .).$XXX).v a v.S.A.A.S.b.g : K -.-.O.",
"O.-.O.O.g >.n.Q./.Z.:.<.B.(.^.(.(.B.=.i f a y y a f h g f f y y f g h g g f y y f f g f i =.B._.'.M.g g n.)./.!.S.n.>.h J O.-.-.",
"O.O.q l e.m.C.Q.{.|.[.W.<.z c | v  .5.7.8.;.i a >.7.7.7.8.;.i a ;.7.7.7.7.>.i i ;.8.7.7.7.5.=. . .g ; K ~..X.X].Q.C.m.e.J f O.O.",
"O.o.l <.m.!.!.~.~.(._.W. .: 8 8 w h 5.w.e.5.a a 5.q.q.0.q.5.a a 5.q.0.0.e.5.a a 5.w.0.0.w.4.y & 7 u i =.B.).(.~./.!.'.m.J q o.O.",
"w G r.Z.Z.!.|.).9.l v =.5.7.6.5.6.5.;.;.>.L i i L >.;.-.;.L p i L ;.-.;.;.L u u L ;.;.;.>.K : y X.7.7.5...x l 9.).|.'.n.h & 0 q ",
"G O.c.C.Q./._.B.K : 3 d >.0.0.0.q.7.L h x g y i f G z x G h y u h G z x G h u u h x z G G z f H 5.e.q.5.h : : K V.(.Z.r.O.l x v ",
"n.c.z :._.].9.H >.6.7.;.z l ..;.;.L a u u u y y i i i i i i y y u i p i p u y y u i a i y h 5.7.>.-.;.;.5.7.5.5.=.v z ..r.n.b.b.",
"!.n.-.:.W.V.x 7 >.w.e.5.a 3 f G x l y ; : : : : : : ; : : : 0 : : : : : : : : 0 : : ; ; ; i >.6.L l h L 7.q.q.5.a = % z C.'.!.Q.",
"A.S._.W.3.x G G L ;.;.L a q u i a y = % & = & % % % @ % & & & % % % @ % % = % % % % % % & ; i f p u u f L ;.;.-.L f ;  .(.|.!.Z.",
"Q./.].V.f # G L L K G h y : : ; : : < , & o < 1 1 1 1 , & & * , , 1 1 , O & , 1 1 1 1 < o & 8 u 0 ; ; q l x z z G f : x B._.~.!.",
"{.^.9.z : 3 G L L G f y - & % + + , R R * , n ~ ! ! ~ n * * M S E ~ ( m - > m ~ ! ~ ~ m - , R E , + + = y a i i y w : y l 9._..X",
"XX^.x % u l z G K h y = % & , 1 < b a.p.< < ~ l.l.l.z.~ < * N [ g.z.x.Q , , ~ l.l.l.k.W , < p.a.b , 1 < 3 : : y f f f u % f B._.",
"XX(.v : ;.5.f y i u = . . < m ~ W p.k.! , , W l.k.k.l.! < * N ] d.l.l.~ , , W l.k.f.T Z * < Q k.( ! ~ m < % ; f >.8.0.;.u r v =.",
").B.x f 6.7.G i r : 1 , @ 1 ~ z.k.g.l.W , , W l.k.k.l.W < & N ' f.k.f.E - , W l.k.a._ N & < W l.l.l.z.~ 1 + : f >.0.q.5.z r ; = ",
" . .G G L >.7.>.a u E m - < Q g.Y / f.! , , W k.k.k.k.! < * N ` f.f.Y Z * , ! l.k.d.] N * < W l.l.k.l.~ 1 % : u f z L ;.L h y ; ",
"= q G L K ..7.>.i 9 a.p.< , ! g.P _ f.! < , W k.k.k.k.W , & Z / a.f.T Z * < W l.l.a.] N * , W k.a.f.l.W 1 % ; : : y z L L H i y ",
"; y G L L K z u % < ( ( < < W f.` P f.Q < , W l.k.k.l.W , - E k.j.g.g.E , , W l.l.d.U N * < W g.] Y f.~ 1 @ @ % ; i G L X.G a y ",
"u f K L L G y : - b p.~ < < ~ f.` U f.! , , W k.d.a.l.W , , ! l.k.k.g.E - , W k.g.( ] N * < ~ f._ P f.! 1 @ < 1 7 i l x G l u 3 ",
"G H L L L x p s R p.k.W , < ! f.U U f.~ < , ! f.U Y f.! , , ! l.k.a.T Z - < ! g.Y P _ Z & 1 W g.P ` f.! < * m E i : i i u y : : ",
"G G z G K g 0 9 p.z.l.W , , ! f.P P d.E , < ! f.Y ] j.! , , W k.k.f.` N & < ~ f.U ) ) N * , W s.P ` f.! , 1 p.j.C y 0 y i f f g ",
"y u y u a y @ < ! l.l.W , , ~ f.U ) ] A - < ! k.f.f.k.W , , W l.k.d.Y N * , ! f.U ) ) B * * A Y F U g.~ , < ~ g.U M q a ;.7.7.7.",
"a f f a q : , b ~ l.l.W , , ! f.U F ) N & < W k.f.f.k.! , , E l.k.a.U N * 1 ! f.U S ) B * * N P P Y d.E , , E f.[ S y a <.q.0.0.",
"7.7.7.>.a u R d.j.k.k.W , , ! f.U S ) N * < Q g.^ ] j.! < , W l.k.d.] N & < ~ f.` S ) B * * N ` s.d./ Z - * Z T f.^ s u K ;.-.-.",
"0.0.0.>.u 8 E j.k.k.l.! , < ~ k./ _ _ N * < ! f.P _ f.! < , ! l.k.d.] N * < ! g.Y U _ N - - N ] j.f.] N * * N U k.p.d y z L K H ",
"-...z i 2 , s D d.z.z.Q < > ~ l.g.s.] N * , ! f.` ) f.! , , ! l.l.d.` N & < W l.k.p.` N * * B [ g.g.[ B * * N ' g.( d p z L L K ",
"L z y y o.o.t < R ~ ~ n * , m d.a.s.` N * < ! f.` ` f.! < , E f.j.f.` N * , W k.f.d.[ Z - & M S ! W ) M * * A T d.W s y x L L L ",
"L G 3 } G.G.j o 2 5 1 , & - 8 C I _ _ N * < ~ g.` ` k.! < * Z T f.a.] N * < Q g.Y U f.W 1 % w s 5 6 s 3 @ 1 ! f.[ S u u G L L L ",
"G f , $.T.R.y.=.#.@.,.,.&.+.t w A ` _ Z * < W f.` _ d.E , # N ` a.f./ Z * < ! f.Y ` ( R 1 X = y +.k t - . 1 E ( Y A u y l G G z ",
"y 3 * @.J.+X#X@XP.}.@X#XOXF.{ 6 W s.] N # < W f.U ) ] A - * N ` d.k.k.E , , ! k.f.^ D 8 , o o k G.F.j o # - 8 D d.^ d r y y y y ",
"f i , @.J.+X#X@XY.}.@X#XOXF.{ 6 ~ g.] N * < ~ g.U F ) N - * N Y f.k.k.E - , W l.z.~ s t k #.k t.R.R.t.k #.k t s ^ ( d r a f f f ",
"7.X.6 $.I.R.i.=.%.%.2.2.%.+.t d ( g.Y N * < W f.U S _ N * * N Y f.a.T B * < W l.l.~ 6 j D.P.P.U.E.E.T.P.I.D.o.1 I S w a ;.7.7.6.",
"w.4.u k H.G.j o o # X # & - ; s ( g.Y N * < ~ f.U ) ) Z * * N Y d.a.Y B * < ! l.g.E 5 @.I.E.R.L.L.L.P.T.E.P.$.2 B S w f 5.q.0.0.",
"-.K u y k +.p ; X X X X O @ X 1 Q g.] N * < Q g.U ) ) Z * * N Y d.k.g.E - < ! k.T B 1 @.P.T.t.#.#.#.k t.T.K.@.2 B S w a L ;.O.;.",
"L H a w , - : 0 1 1 , * @ & > 9 ~ f.] N * < ! f.U ) ) B * * N ` d.l.l.! , , E f.' N 2 %.oXY.k   o o   c oXoX$.2 B V w p x L K K ",
"L L K z i ; $ , R W I e & < A j.k.f.] N & 1 ! f.U S _ N * * N U d.k.l.W , * Z Y _ N , ,.%X#X*.  X X   *.#X%X1.2 B S w i G L L L ",
"G z K z p 3 , b p.l.[ B & < ~ z.k.d.] N & < ! k.Y P _ B * * Z T f.k.l.! , * N ) _ N * *.`. Xu.:.:.:.=.u. X`.*.* B S w i h G G G ",
"y y y y t s R p.k.f.[ N * , W l.l.a.` N & < ! k.f.s.U N * , E g.g.j.k.W 1 * N _ _ B & ; x u. X&X&X&X&X Xu.c = * B F s y y y y y ",
"f f f i r d ^ l.k.d.] N * < ! k.f.s.Y Z * < W l.l.f.Y N & 1 ! l.k.g.l.W < * N _ ) Z 5 >   c `.&X#X&X*X`.c   o 5 S S u y i f f f ",
"7.7.8.-.a u S [ f.f.] N # < ! g.Y U d.E , , W l.k.d.U N & < ! l.l.k.l.! , * N P ) P Q m > ; *.3.<.3.3.O.; o M S ) Z w a ;.7.7.6.",
"0.0.q.6.a w Z ` a.a.` N * < ! g.U Y g.~ < * W l.k.f.T B * , W k.a.a.k.! , * B ) ) Y k.~ 1 $ X @ @ @ @ @ . , B ' _ Z 3 f 5.q.0.0.",
"-.-.;.L i w B [ f.a.` N * 2 W g.f.f.k.! , , W l.k.j.f.E - , ! g.Y Y g.! < * N _ S U g.~ 1 $ . . . . . . @ , B _ ) Z w i L ;.;.O.",
"K H x f y 3 M P f.g.] N * , ! l.f.j.k.W , , W k.k.k.l.! , < Q f.P P f.! < * B ) ) ` f.Q 1 @ , 1 1 1 1 , & , B _ _ Z w p z L K L ",
"L G f y - - q C a.g.[ N # 1 ~ l.^ Y f.! , , W k.j.k.k.W , , ! f.P P f.! < * Z ) F U g.! < - n ~ ! W ~ R - * N _ _ Z u i G L L L ",
"G h y u #.} t 3 R Q S e # , m / P P f.! , , W l.k.k.l.W , < ! f.U U f.! < * N ) P Y g.! , , ~ z.l.l.z.~ < # N _ ) Z w p l G G z ",
"y q : +.H.G.j o 1 5 , * * - s d Z ] f.! < , W l.k.j.k.W , , W g.U U f.Q < * N ` s.f.k.! , , W l.l.k.l.! < * N _ ) B u y y y y y ",
"f i , $.I.R.i.=.#.$.,.,.%.+.t q B ] g.! , , W l.k.k.l.W , , ~ f.P U f.! < * N ] a.k.l.E , , W l.g.k.k.! < # N ` ] S s t a f f f ",
"7.X.6 +.J.+X#X@XU.U.@X#XOXG.o.2 B ' g.W , , W l.k.j.k.W , , W f.U U f.~ < * N ] f.l.l.W , , W l.k.k.l.W < * N ] d.^ s i >.7.7.7.",
"q.4.u +.J.+X#X@XY.Y.#X#XOXF.+.4 B ] g.! , , E j.k.k.l.W , < ~ f.U P g.W < * N ` d.k.l.W , , W k.k.g.k.W < & N [ g.~ s a 5.q.0.8.",
";.K 1 @.I.R.i.=.%.%.2.2.%.} p u Z ] g.! < * N [ f.k.l.! , , ! j.` ` f.! < * N ] a.k.k.W , , W k.k.j.l.W < * N [ f.~ 9 i K -.X.-.",
"K z 4 k H.G.j o o o X & * - ; w N Y f.Q < * N ` d.k.k.E , , ! f.P _ f.~ < # N ] d.k.l.W , , W l.g.k.k.W < # N ' g.( d t x L K K ",
"L z u p #.o.t % @ X . X & o $ - N [ g.! < * N ] a.f.[ Z * , Q f.P P f.W < * N U d.k.l.W , , ! l.k.k.l.~ , * N Y g.p.d u G L L L ",
"L G f y : , d d 6 1 1 , o & , 5 B [ g.~ < * N ] j.f.` N * < ~ g.Y Y g.~ , * Z / f.l.l.! < - E g.k.j.g.E , * N [ d.^ d t f G G G ",
"L L K h q s E j.p.~ p.R - > R p.U [ k.~ 1 & B T k.g.[ B * , ~ l.k.g.l.~ , - W l.l.l.z.~ < - A s.k.g.h.S * * B ] Y I i r y y y y ",
"G G K z y s E p.p.p.a.R - < R ~ A A ^ m , # M S W ^ S M # , R ~ ~ ~ p.A > - m ~ Q W ~ R < & e Z W W S e * * M B B N y y a f f f ",
"q y y y r w < 1 1 1 1 < & & 1 1 , , 1 < o & * , , 1 , * # o , 1 1 1 1 < o & < 1 1 1 1 , & o * , 1 1 , * # o - , , * 3 f >.7.7.7.",
"f f f a p : = @ @ % $ @ o % @ @ @ % % % & % % @ @ @ @ % & = % $ @ $ @ @ & & % % @ + @ @ @ & @ % @ @ @ @ % & @ @ @ & ; f 6.q.0.8.",
"7.7.7.;.i ; : : = = = = = ; = = = ; : ; ; ; = = = = = ; r : = = = = = = = ; 0 : ; % ; ; = = = ; : : ; = = ; ; = & = : i L -.-.-.",
"0.0.q.6.H u y y z K H v H v H H H z y y z K H v H H H h y u l K H v v H H h y y z K K v H H H z y y h H H x H H K z y u z K K K ",
"X.X.-.;.7.-.y f r.N.N.m.n.n.n.m.N.e.3 y e.C.m.m.m.m.C.e.y 7 e.C.m.n.n.m.m.e.7 7 e.N.N.n.n.N.N.r.7 7 e.C.m.n.n.m.N.r.l 0 z L L K ",
"K H G X.8.7.z L v.N.N.C.C.N.C.C.A.c.y y r.A.Z.N.N.C.A.c.y 7 c.A.C.C.C.Z.A.c.i 7 r.A.C.C.N.C.C.r.i i c.A.Z.C.C.C.C.v.v i G L L L ",
"L L K L -.>.7.6.K K >.6.6.5.6.6.6.-.y u -.8.6.6.6.6.6.;.u y =.6.5.5.<.6.7.X.u u -.6.6.6.6.>. .x z K >.6.6.5.6.>.K x G K L L L L ",
"x G G G l K 7.>.u : f l l l h z z g u u f l l l h l l f y u g z z z l l z g i y f l z l z f : 0 z H G h l l z f : q h H G G G G ",
"i u u u u i g f y r y u u u u u i y y y y u u y u u u u y y u u u y i u u i r y u u y i u y 0 0 i i u u u u u y y y u i i u u u ",
"r 0 0 q r r : : r y r r 0 0 0 0 r r r y r 0 r r r r r r r y r r r q r r : r y r r r 7 0 0 7 y 7 7 0 0 0 0 0 r r r y y r r 0 r 0 "
};
