/* XPM */
static char *_38e65ecd0ff4c12cb564ef9d6a9759eWOFnvg8hkYTtulSL[] = {
/* columns rows colors chars-per-pixel */
"64 64 236 2 ",
"   c #060B0C",
".  c #0A0D0E",
"X  c #130E0E",
"o  c #0A0F11",
"O  c #0D1212",
"+  c #0C1517",
"@  c #151416",
"#  c #191417",
"$  c #161618",
"%  c #151B1B",
"&  c #1C1C1C",
"*  c #2E0F15",
"=  c #221412",
"-  c #29161C",
";  c #211B1D",
":  c #381B17",
">  c #1B201E",
",  c #37221F",
"<  c #1F1E23",
"1  c #241E22",
"2  c #2B1E23",
"3  c #341B24",
"4  c #3D1E2B",
"5  c #381830",
"6  c #152122",
"7  c #1D2323",
"8  c #1F2825",
"9  c #1F2529",
"0  c #242325",
"q  c #2B2325",
"w  c #242729",
"e  c #2E2529",
"r  c #2B2A2B",
"t  c #3A2526",
"y  c #31272B",
"u  c #322A2E",
"i  c #34302F",
"p  c #3B2537",
"a  c #332D32",
"s  c #392D33",
"d  c #2B3231",
"f  c #343233",
"g  c #3B3236",
"h  c #3C3439",
"j  c #363A38",
"k  c #3C3D3D",
"l  c #46160F",
"z  c #431B14",
"x  c #6D1F13",
"c  c #53271E",
"v  c #6D271B",
"b  c #431D2B",
"n  c #4D1C30",
"m  c #591C35",
"M  c #6A1A36",
"N  c #6B1E3D",
"B  c #701C3A",
"V  c #422723",
"C  c #44212C",
"Z  c #592B23",
"A  c #482232",
"S  c #562135",
"D  c #5C2136",
"F  c #42353B",
"G  c #4B373F",
"H  c #45383D",
"J  c #493839",
"K  c #513C3D",
"L  c #6B2A29",
"P  c #7B2A27",
"I  c #783428",
"U  c #6E213E",
"Y  c #3D403E",
"T  c #6A4239",
"R  c #3F2440",
"E  c #4B1C46",
"W  c #4B3740",
"Q  c #473D40",
"!  c #4D3B43",
"~  c #503F46",
"^  c #512D54",
"/  c #782141",
"(  c #753550",
")  c #593062",
"_  c #633664",
"`  c #743C62",
"'  c #3F4A49",
"]  c #444544",
"[  c #4D4246",
"{  c #474949",
"}  c #514047",
"|  c #524148",
" . c #544D4C",
".. c #52504E",
"X. c #474C50",
"o. c #4A5453",
"O. c #545553",
"+. c #585553",
"@. c #5A5956",
"#. c #5C5C59",
"$. c #634A45",
"%. c #6F5452",
"&. c #62605D",
"*. c #695866",
"=. c #745C77",
"-. c #5A6563",
";. c #676866",
":. c #74716E",
">. c #707374",
",. c #797976",
"<. c #902716",
"1. c #822D22",
"2. c #883A2C",
"3. c #9B3625",
"4. c #882D34",
"5. c #A53A27",
"6. c #AB3C2A",
"7. c #B33A26",
"8. c #AE3439",
"9. c #D43B2A",
"0. c #C42E3A",
"q. c #CE3930",
"w. c #864438",
"e. c #944838",
"r. c #A8402E",
"t. c #BF452E",
"y. c #AA4233",
"u. c #BC4535",
"i. c #D94027",
"p. c #D6472E",
"a. c #DA442B",
"s. c #C64635",
"d. c #CE4A32",
"f. c #CB4A34",
"g. c #D94634",
"h. c #D64B32",
"j. c #DB4C34",
"k. c #D3573B",
"l. c #DD533B",
"z. c #E24529",
"x. c #E84B2E",
"c. c #E24E35",
"v. c #E94E34",
"b. c #F14D32",
"n. c #EA5137",
"m. c #E85339",
"M. c #F25338",
"N. c #801F42",
"B. c #941944",
"V. c #AF1B46",
"C. c #892247",
"Z. c #93224A",
"A. c #9B234D",
"S. c #933C4F",
"D. c #AA284A",
"F. c #B6284C",
"G. c #B52D4C",
"H. c #B42753",
"J. c #CB3545",
"K. c #CB304B",
"L. c #8F474B",
"P. c #B1504A",
"I. c #85635C",
"U. c #B36658",
"Y. c #B35369",
"T. c #906D6F",
"R. c #827A76",
"E. c #B86D6C",
"W. c #CF4F4B",
"Q. c #D95B45",
"!. c #E54A41",
"~. c #D86854",
"^. c #E16A54",
"/. c #E76A54",
"(. c #EB6D54",
"). c #C57867",
"_. c #E67B67",
"`. c #7F827C",
"'. c #91807A",
"]. c #C88377",
"[. c #EA846F",
"{. c #ED8C75",
"}. c #F6927E",
"|. c #95758E",
" X c #A47689",
".X c #888986",
"XX c #938B8B",
"oX c #89918E",
"OX c #96928C",
"+X c #8E9793",
"@X c #9A9994",
"#X c #A88F91",
"$X c #9AA19B",
"%X c #A5A39E",
"&X c #BCA198",
"*X c #A99BA2",
"=X c #A7A9A4",
"-X c #AEABA4",
";X c #B6ACA9",
":X c #ADB1AC",
">X c #B6B4AD",
",X c #BBB8B4",
"<X c #D99384",
"1X c #EF9989",
"2X c #EB9D8D",
"3X c #EDA898",
"4X c #F6A896",
"5X c #DA9CA9",
"6X c #C8B7B1",
"7X c #E3A5A2",
"8X c #F9B8A7",
"9X c #BFC1BB",
"0X c #C5C3BD",
"qX c #DAC4BB",
"wX c #F6C3B3",
"eX c #FDD0BE",
"rX c #D6BEC2",
"tX c #CECCCA",
"yX c #D3CDC7",
"uX c #DAD5CE",
"iX c #D6CDD4",
"pX c #DBDBD3",
"aX c #F1D5CB",
"sX c #FAD5C8",
"dX c #E7DCD7",
"fX c #FFE0CF",
"gX c #EAE6DD",
"hX c #FCE6DB",
"jX c #E1ECE3",
"kX c #ECEAE2",
"lX c #F8EDE3",
"zX c #F9F3EB",
"xX c #FBF4E9",
"cX c #FFFEF5",
"vX c #FFFFFD",
"bX c #FFFEFE",
/* pixels */
"} } } } } } } } } } } } } } ~ ! ! G G W ! G W ! ~ ~ ~ ~ ~ | ~ | ~ | ~ ~ ~ ! G ! ! G ! ! ~ ~ } } } } } } } } } } } } } } } } } } ",
"} } } } } } } ~ } } } } } } ~ ~ ~ G W W G G G ! ~ ~ ~ ~ | ~ | ~ | ~ ~ ~ ! G ! G G W ! ! ~ ~ } } } } } } } } } } } } } } } } } } ",
"} } } } } } } } } } } } } } ~ ~ ! ! W ! ! ! ! ! ~ ~ ~ | ~ | ~ | ~ | ~ ~ ! G G G W ! W ! ~ ~ ~ } } } } } } } } } } } } } ~ } } } ",
"} } } } } } } } } } } } } } ~ ~ ~ ! ! ! ! ! ! ~ ~ | ~ | | ~ | ~ | ~ ~ ~ ! ! ! G G G ! ! ! ~ ~ ~ } } } } } } } } } } } } | } } } ",
"} } } } } } } } } } } } } } } ~ ~ ~ ~ ~ ~ ~ ~ ~ ~ ~ ~ | ~ | ~ | ~ ~ ~ ~ ! ! G G G W ! ! ! ~ } } } } } } } } } } } } ~ } } ~ | } ",
"} } } } } } } } } } } } } } } } } } } ~ ~ } } } ~ ~ | ~ | ~ | ~ ~ ~ ~ ! ! ! G G G G ! ! ~ ~ } } } ~ } } } } } } ~ } | } } } } } ",
"} } } } } } } } } } } } } } } } } } } } ~ ~ } } | | ~ | ~ | ~ | ~ ~ ~ ~ ! ! ! ! G ! ! ! ! } } } } } } } } } } } | } | } | ~ ~ | ",
"} } } } } } } } } } } } } } } } } } } } } } } } ~ | | ~ | ~ | ~ ~ ~ ~ ~ ! ! ! ! ! ~ ! ~ ~ } } } } } } } } } } } } } ~ } } } } } ",
"} } } } } } } } } } } } } } } } } } } } } } } } } } } } } } } } ~ | ~ ~ ~ ~ ~ ~ ~ ~ ~ ~ ~ } } } | ~ | ~ | | ~ | ~ | } ~ | } ~ | ",
"} } } } } } } } } } } } } } } } } } } } ~ } } } } } } } } } } } | ~ | | | ~ ~ ~ ~ ~ | ~ } } } } ~ | ~ | ~ ~ | ~ } } } } } } } } ",
"} } } } } } } } } } } } } } } } } } } } } } } } } } } } } } } } ~ | ~ | ~ | | ~ ~ | ~ | } } } } | ~ | ~ | ~ ~ | } } } | ~ } } ~ ",
"} } } } } } } } } } } } } ~ } } } } } ~ } } } } } } } } } } } } | ~ | ~ | | | | | ~ | ~ } } } } ~ | ~ | ~ | | ~ ~ | } ~ | } } | ",
"} } } } } } } } } } } } } } } } ! W F F G ~ } } } } } } } } } } ~ | | ~ | | ~ | | ~ } ~ G F F G ~ ~ ~ ~ ~ | ~ | ~ | ~ | } | } } ",
"} } } } } } } } } } } } } } } } W u 0 0 s ! } } } } } } } } } } | ~ ~ | | ~ ~ ~ ~ | } ! s q 0 u ~ ~ ~ ~ | ~ | ~ | ~ | ~ } ~ ~ } ",
"~ ~ ~ ~ } } } } } } } } } } } } F q # & e W [ ~ } } } } } } } } ~ | ~ ~ ~ ~ ~ ~ | | ~ G e # # q J ~ ~ | ~ | ~ | ~ | ~ | ~ | | | ",
"! ~ ! ~ } } } } } } } } } } } ! H f i d f H ! } } } } } } } } } | ~ | ~ ~ ~ ~ ~ ~ ~ ~ W f f f f H ~ | ~ | ~ | ~ | ~ | ~ | ~ | ~ ",
"! ! ! ~ ~ } } } } } } } ! H s g [ &.,.:.+.g y h G } } } } } } } } } } ! ! ! ! ~ G g y g O.:.,.&.[ g g H [ } } } } } } } } } } } ",
"! ! ! ! ! ~ } } } } } } ! s 0 q ..OX0X,XR.g @ q F } } } } } } } } } } [ ! ! G ! g q # f ,.6X0XOX .q 1 s ! } } } } } } } } } } } ",
"W W ! ! ~ ~ } } } } } } ! y # & &.>XxXlX%X..& & s ! ~ } [ [ ! [ [ } ! ! ! ! ! G s & & ..-XlXzX>X#.& # y ! } } } } } } } } } } } ",
"W W W ! ! ~ } } } } } } ! r @ & &.,XcXcXyX.X+.Q H F h g h h h h h h h g g s s F F ] @..XtXcXcX,X&.& @ e ! } } } } } } } } } } } ",
"! W ! ! ~ ~ ~ } } } } } ! y # > @.;XzXvXxXyX=XR.O.u 0 < 0 9 9 9 9 9 9 9 7 1 1 a  .R.=XyXzXvXzX;X#.; # e ! } } } } } } } } } } } ",
"G W W ! ~ ~ } } } } } } ! y # & O.=XgXvXvXcXgX-X&.0 X O % % & & % & < % % @ . 0 &.-XgXcXbXvXgX%X+.& # y ! } } } } } } } } } } } ",
"! W ! ~ ~ } } } } } } } ! r # & +.%XkXvXvXvXcX0X;.w X = , V V V t V V V : # O w ;.,XcXvXbXbXlX%X+.& # y ! [ } } } } } } } } } } ",
"! ~ ! ! ~ } } } } } } } ! y # & @.-XzXvXvXvXvX0X-.6 X : I 2.2.2.2.2.2.2.I : @ 9 -.0XvXvXvXvXzX-X@.& # e ! [ } } } } } } } } } } ",
"~ ~ ~ ~ ~ | ~ | ~ | ~ | ! y # & @.-XzXvXvXvXcX,X-.< # v r.d.h.f.s.s.h.f.r.v X 6 -.>XcXvXvXvXhX-X@.& @ y ! } } } } } } } } } } } ",
"~ ~ ~ ~ ~ | | ~ | ~ | ~ ! u # &  .@XuXzXcXcXpX%X@.w : P d.n.n.n.c.n.M.n.f.1.z q @.%XpXxXcXxXuX@X .1 & u ! } } ~ } } } } } } } } ",
"~ ~ ~ ~ | ~ | ~ | ~ | ~ ! u ; & Y ;.OX=X=X$X@XR.$.L P 7.h.n.M.n.n.n.M.M.h.r.P L %.R.+X=X:X=X@X:.{ u y h ! [ ~ ~ [ ~ ~ ~ } } } } ",
"~ ~ ~ ~ ~ | ~ | ~ | ~ | ! s 0 & w k { X.X.o.{ $.e.r.t.d.j.c.n.c.j.c.c.c.j.f.t.r.w.$.{ ] o.o. .[ G H W ! ! ! ~ ! ~ ! ~ ! ~ } } } ",
"| ~ | ~ | ~ ~ ~ | ~ ~ ~ ~ g r & 7 > & & @ + - Z r.d.n.n.j.j.j.j.j.j.j.j.c.v.n.h.3.c ; @ + & < e H } } [ ! ! ! ! ! ! ! ! ~ } } } ",
"~ | ~ | ~ | ~ ~ ~ | ~ ~ ~ g 0 & & - * * * * l v r.x.b.x.x.p.p.j.l.j.j.j.j.M.M.c.s.x l * X X O 0 F } } ! ! ! ! ! W ! ! ! ~ ~ } } ",
"| | ~ ~ ~ ~ ~ ~ ~ ~ ~ ~ ! g 0 & 3 b m M P 1.3.5.t.z.z.z.i.i.a.j.j.j.l.j.j.m.m.c.d.7.<.v l = $ w F } } ! ! W W W W W ! ! ! ~ } } ",
"| ~ | ~ ~ ~ ~ ~ ~ ~ ~ ~ ! f 0 & t N B.D.G.s.f.h.a.a.a.z.p.p.j.j.j.j.j.j.j.j.j.j.j.x.9.r.L t % w h } ~ ~ ! ! W G G W ! ! ~ } } } ",
"~ ~ ~ ~ ! ~ ~ ! ! ! ! ! [ f > & t / A.H.J.c.m.m./.^.^.^.^.~.Q.l.j.j.j.j.j.j.j.j./.(.(.Q.w.t % w h | ~ ~ ! W W W W W W ! ~ ~ ~ | ",
"| ~ ~ ~ ! ! G ! G ! ! [ G f 0 & 4 / A.G.J.g.m.(.[.3X3X3X3X2X_.~.j.h.p.j.j.a.p.l.(.1X4X<XI.s $ 1 h ! ~ ~ ~ W W W W ! ! ! ! ~ ~ | ",
"~ | ~ ~ ~ G ! G ! G ! ! G f 0 & t N B.H.J.9.m.[.8XaXlXzXlXsX3X_.j.a.p.j.j.p.a.l._.8XfXyX'.j @ 1 h ~ ~ ~ ! W ! W W ! ! ! ~ ~ | ~ ",
"| ~ ~ ~ ! W W G ! G G ! ! f 7 & 4 N B.F.0.q.l.[.wXzXvXbXbXzX8X_.j.i.a.j.j.i.i.l.{.sXvXpX+Xj $ & h ~ ~ ~ ! ~ ! ! ! ! ! ! ~ | ~ | ",
"| ~ ~ ~ ! G G G G G ! ! G f w & 4 N Z.D.8.9.c.{.sXvXvXvXvXcX8X_.j.i.i.j.a.i.i.l.}.fXvXjX+Xk @ 1 s ! | ~ ~ ~ ~ ~ ! ~ ! ~ ~ ~ | ~ ",
"~ } ~ ~ ! ! G G G G ! ! ! f 7 > 4 N Z.D.0.q.m.{.eXcXvXvXvXzXwX_.j.i.p.j.j.a.i.l.1XfXvXjX+Xk @ # h ~ ~ ~ ~ ~ ~ ~ ~ ~ | ~ ~ | ~ | ",
"~ ~ ~ ~ ! G ! ! G ! ! ! G f 7 & t N Z.H.0.d.l.{.8XzXvXvXvXlX8X_.j.i.a.j.j.a.i.l.{.sXcXiXoXh $ 1 g ~ ~ ~ ~ ~ | | | ~ | ~ | ~ | ~ ",
"} ~ ~ ~ [ ! ! ! ! ! ! ! [ i 0 & 5 N Z.H.0.9.j.~.5XrXiXiXtX6X<X~.c.z.z.j.a.a.a.m._.7XrX-X>.f $ 1 F ~ ~ ~ ~ | ~ | ~ | ~ | ~ | ~ | ",
"} } } ~ ~ ~ ~ ! ! } [ ~ ! f 0 > b / A.F.q.9.a.W.E. X|.|.|.|.Y.Q.n.x.z.i.a.z.b.n.~.E.|.=.X.e 1 w J | ~ | ~ | | ~ | ~ | ~ | ~ | ~ ",
"} } } } ~ ~ ~ ~ } } } } ! f > & 5 / A.F.J.9.p.u.S.%._ ) ) ) S.K.c.v.x.a.a.x.x.c.P.S.( E p 0 & q F ~ | ~ | ~ | | ~ | ~ | ~ | ~ | ",
"} } } } } } } } } } } } ! f 0 & e m N.D.J.~.^.P.( E E ^ _ ` S.P.f.k.Q./.~.k.k.s.G.S.` ) F q & r F ~ ~ | ~ | | ~ | ~ | ~ ~ | | ~ ",
"} } } } } } } } | | } } ! g 0 > - 3 m ( E.2X3X<X( 5 E *. X#XT.L.I e.].4X3X).e.I L. X*X|.*.r & q F ~ | ~ | ~ ~ | ~ | ~ | | ~ | | ",
"} } } } } } } } } } } } [ g 0 & # # - G #XaXhX6X%.0 g XXuXdX&X ., $.&XhXaX#XJ , &.;XgXyX.Xg @ ; g ~ ~ ~ | ~ | ~ | ~ ~ | ~ | ~ | ",
"} } } } } } } } } } } } K h q & # O . j .XpXkX:XO.> j OXdXgX$X] > { $XgXgXoXj > @.>XlXpXXXY @ ; F ~ ~ ~ ~ | ~ | ~ | | ~ | ~ | ~ ",
"} } } } } } } } ~ } } } ! h r & #     0 -.@X:X.XY X r ;.-X;X,.d   d >.:X$X-.8 O Y '.>X%X&.r X ; g | | ~ | ~ | ~ | ~ ~ | ~ | ~ | ",
"} } } } } } } } ~ [ } [ G h q > @ .   + j o.#.] > . % j +.#.Y %   > Y @.O.Y +   7 ] -.O.j & . ; s | ~ | ~ | ~ | ~ | | ~ | ~ | ~ ",
"} } } } } } } ~ ~ ! ! ! W s 0 & < & & & & > > > & & & & > & & & % > > > > > > > & & 7 & 1 & 1 u F ~ ~ | ~ | ~ | ~ ~ | ~ | ~ | ~ ",
"} } } } } } ~ ~ ! ! W ! G s 0 & d ] ....d @   6 Y O.] r O   w ] O.] 0 . . r { o.k <   + f ..@.+. .~ | ~ | ~ | ~ ~ | ~ | ~ | ~ | ",
"} } } } } } ~ ~ ! W W W H t ; & ] `.=X@X-.8   j `.=X+Xo.% + ' oX%X.X] + > o.+X=X,.j   9 ;.=X;XOX*.~ ~ | ~ ~ ~ ~ | ~ ~ ~ ~ | | | ",
"} } } } } ~ ~ ~ ! ! ! W F 2 # & #.-XkXpX.Xf % o.:XkXtX,.w 7 -.9XjX9X-.> 8 ,.yXkX:Xo.$ j XXpXkX,XR.| ~ ~ ~ ~ ~ ~ ~ ~ ~ ~ ~ ~ | ~ ",
"} } } } } } ~ ! ! W W W F 2 # 1 #.;XhXdX#XK e %.6XhXaX'.J t I.qXxXqXT.t V '.aXhX6X&.t J OXaXgX>XR.~ ~ ~ ~ ! ~ ! ! ~ ! ~ ~ | ~ | ",
"} } } } } } } ! ! ! W W G e @ & |  X5X5XE.w.I P.{.8X4X).w.2.U.2X8X2XU.w.w.E.4X8X<XP.w.T T.%X@X'.*.~ ~ ~ ! ! W ! G G ! ! ~ ~ | ~ ",
"} } } } } } ~ ~ ! ! Q W W y 7 & A ( Y.Y.P.s.s.k.~.(.(.Q.f.f.Q./.(./.k.d.d.Q.^.(.^.k.f.r.w. .{ ] ~ ~ ~ ~ ! ! W W G W ! ! ~ ~ ~ | ",
"} } } } } } } ~ [ ! ! ! W a 0 & t M B.D.J.W.c.c.h.f.h.h.h.h.h.p.h.h.h.j.j.h.h.p.x.x.j.s.I - + w h | ~ ~ ! W W W W W G ~ ~ ~ | ~ ",
"} } } } } } } } ~ ! ~ ! W f 7 & 4 M B.V.K.J.g.s.7.3.3.3.6.6.5.3.3.3.3.r.y.u.7.q.J.!.!.8.L = o & s ~ ~ ~ ! ! W G G ! ! ! ~ ~ ~ ~ ",
"} } } } } } } } | ~ [ ~ ! f 0 & C B B.V.K.K.G.D.P c c Z Z Z Z Z c c Z Z L 4.8.K.K.K.K.D.L - + 0 F ~ ~ ~ ! G ! W G G G W ~ ~ ~ ~ ",
"} } } } } } } } ~ | ~ | ! f 7 & b U A.D.H.H.A.4.b 1 % & < 1 < < = > > % 3 m / A.H.H.D.C.M 2 & w F ~ ~ ~ ~ G W W ! G ! ! ~ ~ ~ ~ ",
"} } } } } } } } | ~ | ~ [ f 0 7 t D / C.B.C./ E p < 6 6 6 6 w 6 > 6 > > 2 n U C.Z.C./ U A 2 > r g ~ ~ ~ ! ~ ! ~ ! ! ~ ~ ~ ~ ~ ~ ",
"} } } } } } } } } } } } ! g 7 & q C S D D D n A p a f a d a a d d f a f a p A m D m S A t q & r H ~ ~ | ~ ~ ~ ~ ~ ~ ~ ~ ~ ~ | ~ ",
"} } } } } } } } } } } } ! g q & 0 q - q q q 2 y g G [ ! ! ! ! ! ! ! ! ! Q p q 2 q 1 2 2 0 & & u F ~ | ~ | ~ ~ ~ ~ ~ ~ | ~ | ~ | ",
"} } } } } } } } } } } } ! h r 1 > & > > & % 7 r F | [ ! ~ | ~ | | | } } ! g w % & > & 7 & & 0 a W | ~ | | ~ | ~ ~ ~ | ~ | ~ | ~ ",
"} } } } } } } } } } } } } J g u r r r r w r r f ! ~ | | | ~ | ~ | ~ } ~ } k f r w r r r r y s g ! ~ | ~ ~ | ~ | | ~ ~ | ~ | ~ | "
};
