/* XPM */
static char *result[] = {
/* columns rows colors chars-per-pixel */
"64 64 229 2 ",
"   c #030F11",
".  c #0C1415",
"X  c #141415",
"o  c #161718",
"O  c #1A1619",
"+  c #141A1B",
"@  c #1C1B1C",
"#  c #271A19",
"$  c #221C1E",
"%  c #371B17",
"&  c #1A211F",
"*  c #38211D",
"=  c #1F1F20",
"-  c #231E21",
";  c #2E1F23",
":  c #351B25",
">  c #1C2323",
",  c #1E2629",
"<  c #222323",
"1  c #2A2426",
"2  c #282827",
"3  c #222629",
"4  c #2D2629",
"5  c #242A2B",
"6  c #2B2C2C",
"7  c #372629",
"8  c #34242A",
"9  c #322B2D",
"0  c #2B2D31",
"q  c #382534",
"w  c #352D32",
"e  c #3B2E33",
"r  c #2D3233",
"t  c #2F3E3E",
"y  c #323235",
"u  c #3C3236",
"i  c #3E3539",
"p  c #343839",
"a  c #3A3C3B",
"s  c #481D1B",
"d  c #49221C",
"f  c #4C1B2E",
"g  c #4A2726",
"h  c #542B26",
"j  c #512F2A",
"k  c #58312A",
"l  c #4B2634",
"z  c #572436",
"x  c #5B253A",
"c  c #42353B",
"v  c #4A373E",
"b  c #44393D",
"n  c #49393E",
"m  c #523F3B",
"M  c #6B242C",
"N  c #722D2F",
"B  c #68342C",
"V  c #65263C",
"C  c #39403F",
"Z  c #44413E",
"A  c #5F423D",
"S  c #6E413A",
"D  c #78443B",
"F  c #3A3740",
"G  c #7D1D40",
"H  c #463546",
"J  c #4B3740",
"K  c #463C41",
"L  c #4D3B43",
"P  c #503F46",
"I  c #512B53",
"U  c #7B2644",
"Y  c #6F344C",
"T  c #3D4242",
"R  c #454343",
"E  c #4A4645",
"W  c #474A49",
"Q  c #4B4B4A",
"!  c #514047",
"~  c #534249",
"^  c #554B4D",
"/  c #53524F",
"(  c #544D50",
")  c #4C5351",
"_  c #585856",
"`  c #724F47",
"'  c #635A5B",
"]  c #7B5555",
"[  c #5B615F",
"{  c #64615E",
"}  c #78615B",
"|  c #6E4A6A",
" . c #5A6060",
".. c #6A6A68",
"X. c #736A69",
"o. c #786F73",
"O. c #777A76",
"+. c #811B3E",
"@. c #8C3729",
"#. c #93392B",
"$. c #8F2E36",
"%. c #8C3D31",
"&. c #993A34",
"*. c #A53A2B",
"=. c #AF3C33",
"-. c #C83437",
";. c #D43B32",
":. c #8F4234",
">. c #9C4235",
",. c #A74636",
"<. c #B54735",
"1. c #B44B36",
"2. c #C7422E",
"3. c #D7412B",
"4. c #DA442D",
"5. c #C84736",
"6. c #C34836",
"7. c #CC4A35",
"8. c #D34333",
"9. c #D84631",
"0. c #D34C36",
"q. c #DA4B35",
"w. c #D44C39",
"e. c #DB4E38",
"r. c #D9513A",
"t. c #DC533C",
"y. c #E4482E",
"u. c #E64D36",
"i. c #E75137",
"p. c #E3513A",
"a. c #EB533A",
"s. c #F1543B",
"d. c #9F1E47",
"f. c #812546",
"g. c #862649",
"h. c #8A2749",
"j. c #982A49",
"k. c #8A3951",
"l. c #A6234C",
"z. c #A12A4E",
"x. c #B52D44",
"c. c #BC2C47",
"v. c #B93449",
"b. c #A72A50",
"n. c #AB2A52",
"m. c #AD3350",
"M. c #C6364A",
"N. c #D03848",
"B. c #914E50",
"V. c #B34D4D",
"C. c #946459",
"Z. c #B0685A",
"A. c #935266",
"S. c #8F6A70",
"D. c #847D7A",
"F. c #AB6F6A",
"G. c #D34544",
"H. c #C7504B",
"J. c #DD5541",
"K. c #DC5944",
"L. c #E04246",
"P. c #E25D46",
"I. c #C96756",
"U. c #D1705D",
"Y. c #E2614A",
"T. c #E36A56",
"R. c #E3715B",
"E. c #DD7967",
"W. c #CC6F71",
"Q. c #E67B67",
"!. c #79817E",
"~. c #86837E",
"^. c #93857E",
"/. c #B68578",
"(. c #DF8271",
"). c #E4816E",
"_. c #E88875",
"`. c #EE8E7B",
"'. c #917186",
"]. c #B17987",
"[. c #7D8581",
"{. c #8A8884",
"}. c #948D88",
"|. c #8D918D",
" X c #96928C",
".X c #9A8997",
"XX c #9A9A95",
"oX c #AD9393",
"OX c #A4A39C",
"+X c #AAA39C",
"@X c #9E8DA6",
"#X c #A996A6",
"$X c #AAA9A5",
"%X c #B5AEA7",
"&X c #B7B3AC",
"*X c #B7B4B1",
"=X c #D19193",
"-X c #EB9886",
";X c #F69C86",
":X c #D6A598",
">X c #F6AA99",
",X c #D0B0AE",
"<X c #C4BCB7",
"1X c #ECB6A7",
"2X c #F5BAA9",
"3X c #ECBDB4",
"4X c #BEC1B9",
"5X c #C8C4BB",
"6X c #EEC0B2",
"7X c #F6C5B6",
"8X c #CBCAC4",
"9X c #D3CBC6",
"0X c #D2D4CD",
"qX c #DAD5CD",
"wX c #CCD9D1",
"eX c #DAD9D6",
"rX c #E9D1CE",
"tX c #FDD3C4",
"yX c #FADDCD",
"uX c #E4DCD4",
"iX c #E9E2D9",
"pX c #FAE6DB",
"aX c #EFEBE3",
"sX c #F9EEE5",
"dX c #F8F3EA",
"fX c #FCF5EC",
"gX c #FCF6F1",
"hX c #FEFBF4",
"jX c #FEFEFD",
/* pixels */
"! ! ! ! ! ! ! ! ! ! ! L L K K R R Q Z b c c v v P P P P ! ! ! P ! ! P P L L J J n c c b Z E Q R b n L E P P P ! ! ! ! ! ! ! ! ! ",
"! ! ! ! ! ! ! ! ! ! L J u w L ' ~. XO./ 9 # q v P P ! ! ! ! P ~ ! ! P P L J L J u 8 1 b ..{.}.X.Q u e c E ! P ! ! ! ! ! ! ! ! ! ",
"! ! ! ! ! ! ! P ! ! L i 1 < R O.<XqX%X..9 X 1 c P P ! ! ! ! P ~ ! ! P P L J J v 8 O @ / XX9X9XXX/ 6 - w L L ! ! ! ! ! ! ! ! ! ! ",
"! ! ! ! ! ! ! ! ! ! L e - @ Q  XeXhXqX XE < 1 c L P ! ! ! ! ! P ! ! P P L J v c 8 < y ..<XdXaX&X' 2 O 8 L ! ! ! ! ! ! ! ! ! ! ! ",
"! ! ! ! ! ! ! ! P P L e $ O W  XiXjXaX*XD._ E b c b K P P P ~ P ! ! ! P J c e i Z Q X.OXiXjXdX&X..< O 4 n P ! ! ! ! ! ! ! ! ! ! ",
"! ! ! ! ! ! ! ! P E L e - O E  XqXhXhXiX5XXXX.E y 8 i L ~ P P P ! ! P L c 8 4 b ' {.&XqXdXjXaX%X_ 2 + 4 L P ! ! ! ! ! ! ! P ! ! ",
"! ! ! ! ! ! ! ! P ~ L u $ @ R {.8XhXjXjXdX0XXX_ 1 @ w J P ! ! ~ ! ! P L q - = K ~.<XaXjXjXhXiXOX_ 2 @ 8 n L ! ! ! ! ! ! ! ! ! ! ",
"! ! ! ! ! ! ! ! P P L e - + K {.8XhXjXjXhXsX$X[ 2 X 1 i L L K K K L L b 9 + + R  XqXjXjXjXjXiXOX_ 2 @ 8 L L ! ! ! ! ! ! ! ! ! ! ",
"! ! ! ! ! ! ! ! ~ P L e - @ R {.0XhXjXjXjXhX*X ., . O 0 y p y y y p y w > . X T XXeXjXjXjXjXaX+X_ 2 @ 4 K ! ! ! ! ! ! ! ! ! ! ! ",
"! ! ! ! ! ! ! ! ~ P L u - @ E {.0XjXjXjXjXfX$X_ >   . > 3 3 3 , , 3 3 , +   . T |.eXjXjXjXjXaX$X_ 2 O 4 L ! ! ! ! ! ! ! ! ! ! ! ",
"! ! ! ! ! ! ! ! P P P e - @ R ~.8XdXjXjXhXiXOX_ 3 . X @ < < < < - > < < o X @ Z {.8XhXjXjXhXuX+X_ 4 @ 8 K L ! ! ! ! ! ! P ~ ! ! ",
"! ! ! ! ! ! ! ! ~ P L e 1 @ a X.OX5X0XwX8X*X^.` j s g j j j j j j j j j g d g ~ S.+X5X0XqX5X&X~.Q 1 @ 9 L P ! ! ! ! ! ! ! P ! ! ",
"! ! ! ! ! ! ! ! ! ! L c 4 - r Q ..O.[.[.!.O.} :.%.@.@.%.%.%.%.%.%.%.%.%.#.@.@.:.] X.O.!.~.~.o._ C 2 < w L L ! ! ! ! ! ! ! ! ! ! ",
"! ! ! ! ! ! ! ! ! ! L c 9 < 2 r p a C C t C S >.<.7.5.5.5.<.6.6.5.<.<.6.5.7.5.,.D A C C C C C w 9 < < u L P ! ! ! ! ! ! ! ! ! ! ",
"P L P P ! ! ! ! ! ! E c 9 < < - $ # o X O * N <.p.s.a.i.p.p.p.p.p.p.p.p.a.s.a.5.@.d # X o X & & < < 9 i L P ! ! P ~ ! ! P ~ ! ! ",
"L m P P ! ! ! ! ! ! L b w < ; 1 : % s s s M #.6.p.s.a.a.a.p.p.p.a.p.p.a.a.s.a.w.>.N d % # X X & 1 9 i b P P ! ! ! P ! ! ! P ! ! ",
"L L P P P P P P ! ! L b 6 < 4 g x G N $.#.*.<.9.p.p.p.p.p.e.p.p.u.t.u.p.p.i.i.q.2.<.#.N g $ + 3 w b L L P ! ! ! ! ! ! ! ! ! ! ! ",
"J L L L L P P P ! ! L i r > 8 x G h.m.M.-.0.0.q.r.q.t.e.e.e.q.t.q.e.e.t.e.t.q.e.q.q.3.>.B 8 > 5 i L ! ! ! ! ! ! ! ! ! ! ! ! ! ! ",
"J v L L P P P P ! ! E i 6 > 7 x g.n.M.G.i.i.i.e.q.q.q.9.q.q.q.r.e.e.r.q.q.r.r.e.i.s.y.<.B 7 > 0 K ! ! ! ! ! ! ! ! ! ! ! P ! ! ! ",
"J L J L P P P ~ ! ! L i 2 > 7 x g.n.v.G.p.i.i.4.3.3.3.4.4.9.q.q.e.r.r.q.r.r.q.u.s.y.y.=.B 7 > 0 F L ! ! ! ! ! ! ! ! ! ! ! ! ! ! ",
"J J J L P P P P ! ! L i 6 > 8 x g.z.v.G.e.u.q.4.3.3.;.4.4.9.e.e.r.r.e.e.r.q.r.e.y.y.4.*.B 7 > 0 K L ! ! ! ! ! ! ! ! ! ! ! ! ! ! ",
"L J J L P P P P ! ! L b 6 < 8 z f.b.m.5.w.t.p.t.t.J.t.t.r.r.e.e.e.e.e.e.q.r.q.t.i.s.r.1.B 4 > 6 b L ! ! ! ! ! ! ! ! ! ! ! ! ! ! ",
"J P J P P P P ~ ! ! E i 6 > 8 x U z.v.M.w.p.Y.R.Q.).).E.Q.T.K.e.q.q.e.e.q.q.i.s.Y.Q.E.Z.` 9 > 4 i P ! ! ! ! ! ! ! ! ! ! ! ! ! ! ",
"P J P P P P ~ P ! ! L i 6 3 8 x f.z.v.-.0.K.Q.-X1X3X6X3X>X-XT.r.4.9.q.0.q.9.q.P.`.>X1XoX] y = 1 i P ! ! ! ! ! ! ! ! ! ! ! ! ! ! ",
"P P P P P ~ P P ~ ~ P c 0 > 8 z f.z.x.-.8.Y.`.6XpXgXhXfXyX1XQ.J.4.4.q.e.9.3.9.T.>XtXpX*XO.i @ < b L ! ! P P P P ! ! ! ! ! ! ! ! ",
"P P P P P P ~ P P P L c 6 < 7 x f.z.x.-.8.Y.-XtXhXjXjXjXsX7X).J.3.4.q.e.9.3.9.T.>XpXhXwX!.a O < c P ! ! ~ P P P ! ! ! P ! ! ! ! ",
"P P P P P ~ P ~ ! P L i 6 > 8 x f.b.x.-.8.Y.;XyXjXjXjXjXgX7X_.J.3.3.0.q.4.3.9.R.2XsXjXwX[.a @ ; e L P P P P P P P P P P ! ! ! ! ",
"P P P P P ~ P P ! P E i 6 < 8 x f.j.x.-.8.Y.-XyXhXjXjXjXgX7X).J.3.4.0.q.4.;.q.R.2XsXjXwX!.C O - i P P P P P P P P P L P P ! ! ! ",
"P ~ P ~ P P P P ! ! L a 6 < 8 x U z.x.-.;.P.-XtXgXjXjXjXsX3XQ.J.4.4.q.e.9.4.9.T.>XpXgX8X!.i @ - c L P P L L L L L L L P P P ! ! ",
"~ P ~ P P ~ P P ! ! L a 6 < 7 x f.b.M.-.;.K._.1XrXeXeXeX3X=XE.J.4.4.9.9.4.4.p.Y.-X3X9X#X..y @ 1 c L P L L L J L J J L L P P ! ! ",
"P P P P P P P P P P L u 6 > 7 x g.n.c.-.;.0.I.F.#X#X@X'.].F.T.P.y.y.4.4.4.y.i.K.W.]..Xo.( 0 - 4 b P P P L L L J J J J L P P ! ! ",
"P ~ ~ P P P P P P P L u 6 > 8 x g.n.M.-.4.4.V.A.| | | | | B.M.L.i.y.4.3.y.u.u.J.m.A.| I F 4 < 6 b L P P L J J J J J L K L ! ! ! ",
"P P P P P P P P L L L i 6 > 8 x f.j.v.H.K.w.V.U I I I I Y k.1.0.i.t.p.t.t.i.r.1.m.Y Y I F = < w b E P L L L J J J J J P P P P P ",
"P P P P L J v L J L J e 6 , ; g x f.B.W._.(.Z.Y : I | S.'.C.B.>.1.I._.`.).V.,.>.B.S.'.o.I 0 = 4 b L P P L J J J J J v L L P P P ",
"P P P P J P J v J J b i 6 < 1 ; : f B.=X7X7XoX~ q I '.*X,XoX` B D /.6X7X:XC.B S S.,X<X+X..p = 1 c L P P P J J K L J L P P P ~ P ",
"! ~ P P L v L J J J J c 9 < < @ # 4 X.%XpXaX+X/ 3 F @XuXaX%X' 9 Z  XyXpX<X} 9 Z '.qXsX5X!.i O - i L P P L P L L L L L L P ! ! ! ",
"! ! P P L J J v J n n c e 1 - o . > _ OXeXeXXXT = F  XqXuXOX) > C !.wXeX+X[ > r O.5XiX5XO.a - 4 c L ! P L P L P L P P P P ~ P ! ",
"! ! P P L J J J J L J n i u 6 & o & W !.XXXX..C = F X.XXXXO.C & 5 [ |.XX!.T > 5 [ |.+X|.' b q e L P ! ! P ! P ! P P P P P P ~ P ",
"P P P P P J J J J J J L L L c 6 & 2 r R / / C 6 < 2 T / / Z 6 < 5 C ) / R r > 5 C / _ / E L K L L ! ! ! ! ! ! ! P P ! ! ! ! P ! ",
"P P P P L L P L P L L P P P n u 6 < 2 < < < < < > < < < < < < < < & < < < < < > < < 1 9 c L P P P P ! ! ! ! ! ! ! ! ! ! ! ! ! ! ",
"~ P ~ P P P P P P P P P P P L b w 2 = @ X X o & < & X X X X & - = @ X X X $ < < & $ $ 1 v P P P ! ! ! ! ! ! ! ! ! ! ! ! ! ! ! ! ",
"~ P P P P P P P P ! P P ! ! P L c c 8 - @ O & - < $ @ o o @ & < = & O X @ < < < 1 4 9 c P P P P ! ! ! ! ! ! ! P ! ! ! ! ! ! ! ! ",
"P P ~ ~ ! ! P P ! ! ! ! ! ! P P n v c 6 < = < < < < < = = $ < < < = = = - < < 2 w c m P P ~ P ~ ! ! ! ! ! ! ! ! ! ! ! ! ! ! ! ! ",
"P ~ P P ! ! P P ! ~ ! ~ ! ! ! P ! v u 8 2 < < - < = = < < < $ < = < = < < < < 1 w b ! ! P ~ P P ! ! ! ! ! ! ! ! ! ! ! ! ! ! ! ! ",
"! ! ! ! ! ! ! ! ~ ! ~ ! ! ~ ! v c e 4 2 1 < = & o @ & - < = @ @ @ & = = = < @ & 4 u b n L ! ~ P ! P ~ ~ ! ! ! ! ! ! ! ! ! ! ! ! ",
"! ! ! ! ! ! ! ! ! P ! ! ~ ~ n c 4 $ = = < = $ o X X @ = = @ X X X @ - < = o X X @ 1 9 u b L P P ! ~ P ~ ! ! ! ! ! ! ! ! ! ! ! ! ",
"! ! ! ! ! ! ! ! P P ! ! ! ! v c 1 $ = 2 < = = @ & & = < < - & & $ = < < < & @ & < < 1 6 u L P P P ~ P ~ ! ! ! ! ! ! ! ! ! ! ! ! ",
"! ! ! ! ! ! ! P P P E L n n Z E Q Q R r < < r Z Q R r < < 6 C Q Z p < & 6 C E E a 5 < y ^ { ' ^ ~ P ~ P ! ! ! ! ! ! ! ! ! ! ! ! ",
"! ! ! ! ! ! ! P P L J c e w K ..{. XO.) , , T !.|.!.) , > T !.|.!.) 5 > T ..|.{. .r > C O.@X}.o.' ~ P P ~ P P ~ P P ! ! ! ! ! ! ",
"! ! ! ! ! ! P P P L v e ; - R O.<XeX*X .5 , ..&XwX4X..5 > _ OXwX4X!.p > ) XXwX5X!.C > Q XX0X8X#XX.~ P P P P ~ P P ~ ! ! ! ! ! ! ",
"! ! ! ! P ! P P J L v w $ @ E }.rXgX8Xo.r w O.5XfX5X!.C 9 X.5XdXuX}.C 6 { &XdXiX XE 6 _ %XpXaX*XS.^ ~ P P P P P P P P ! P ! ! ! ",
"! ! ! ! P P P P L J v 8 - @ L D.,XrX,XS.A B F.1X7X6XF.S S C.:XtX6X/.D k C.:XtX7X/.` k ` oX5X5XXXX.^ ~ P P P P P P P P P P ! ! ! ",
"! ! ! ! ! ! P L L J b w < @ i ] ].=XW.V.>.,.I._.;X`.I.,.,.I._.;X`.U.1.>.V.(.`.`.U.1.>.:.C.~.O...( ~ P P P P L L P P L P P ~ P P ",
"! ! ! ! ! ! P P L v n u 2 < 7 I k.m.m.H.6.0.r.P.T.Y.r.0.0.0.a.P.Y.t.w.w.J.K.Y.Y.Y.r.7.,.D n p p P P P P L J L J J J J L P P P ~ ",
"! ! ! ! ! ! P P P J n u 6 = 7 z G d.x.M.e.t.q.8.3.2.7.0.0.2.2.2.2.7.7.0.w.;.9.;.u.a.r.,.M # + 3 F P P L L J J L J J L L P P ~ P ",
"! ! ! ! ! ! ! P P P n u 6 < : x +.d.c.N.N.G.=.*.@.@.#.>.>.:.#.@.@.#.:.>.=.=.-.;.N.L.G.&.k # . < H K P P L J J J J J J L P P ! ! ",
"! ! ! ! ! ! ! ! P L L u 6 > 7 x g.l.c.M.M.n.$.N h g j j k k h j h h j k N j.x.v.M.N.c.j.z ; & 5 b L P L P v L J J J L L P P P P ",
"! ! ! ! ! ! ! ! P P L i 6 > 7 x g.z.n.n.b.d.V l 1 > < , 1 < 1 1 < & > 4 z N j.n.n.n.z.U z 4 < 0 b L P P J L v J J J J J P P P P ",
"! ! ! ! ! ! ! ! P ! P i 6 > 7 l N g.h.h.g.G z q < , = , 3 , , 3 > > > 3 q x U h.h.h.f.V l 1 < 9 b L P P P J J J L J L L P P P P ",
"! ! ! ! ! ! ! ! P P L b 6 < 1 g l x V V I z l e y r y y y w y y y r r y c l z V V x z l 8 1 < y b L P P P P L L L L P P P P P ~ ",
"! ! ! ! ! ! ! ! ! ! L b w < 1 6 4 8 7 7 8 8 e c K K K K K K K K K L K L c q 7 7 7 7 8 4 2 1 1 w K L ! P P P P L P P P P P P P ~ ",
"! ! ! ! ! ! ! ! ! ! L b 9 < < < < > - < < < w K P P P P ! ! P P ! P P P c 6 < < > > > < < < < y b P ! ! ~ P P P P P P P P ~ P P ",
"! ! ! ! ! ! ! ! ! ! L b w < < < > & & > > > w K ~ P P ~ ! ! ! ! ! ! ~ P b 0 > > & & > > < < 1 w K L ! ! ! ! ! ! P P P ~ P ~ ~ P ",
"! ! ! ! ! ! ! ! ! ! ! ! ! ! ! ! P P E ! ! ! ~ P P P ~ P ! ! ! ! ! ! P P P P P E ! ! ! ! ! ! ! ! ! ! ! ! ! ! ! ! ! P P ~ P P P ~ "
};
