/* XPM */
static char *d6929f884a624d4d9dd9fe024844d2791grfcJUfnxSepCkr[] = {
/* columns rows colors chars-per-pixel */
"64 64 220 2 ",
"   c #05090C",
".  c #0D0D0E",
"X  c #140E0E",
"o  c #0C1718",
"O  c #141314",
"+  c #191517",
"@  c #141B1B",
"#  c #1C1D1D",
"$  c #2D1212",
"%  c #231319",
"&  c #221D1E",
"*  c #1B201E",
"=  c #29221F",
"-  c #171E20",
";  c #191E21",
":  c #241E21",
">  c #2C1E23",
",  c #351D28",
"<  c #142224",
"1  c #1C2223",
"2  c #242223",
"3  c #2A2325",
"4  c #2C2629",
"5  c #25292A",
"6  c #2B2B2C",
"7  c #352327",
"8  c #322A2D",
"9  c #2C312F",
"0  c #2E2C32",
"q  c #342E31",
"w  c #3A2D33",
"e  c #34263A",
"r  c #2D3434",
"t  c #353235",
"y  c #3B3336",
"u  c #363738",
"i  c #3D3439",
"p  c #3B3B3A",
"a  c #5D1A1B",
"s  c #4D241C",
"d  c #52261E",
"f  c #73261A",
"g  c #471C2A",
"h  c #55192E",
"j  c #4B1C36",
"k  c #561E35",
"l  c #591F36",
"z  c #472329",
"x  c #532B24",
"c  c #5A2825",
"v  c #55322B",
"b  c #4B2432",
"n  c #522132",
"m  c #5D2235",
"M  c #5C2038",
"N  c #493837",
"B  c #43353B",
"V  c #4B373F",
"C  c #45393F",
"Z  c #49383F",
"A  c #74262C",
"S  c #713329",
"D  c #652339",
"F  c #75223D",
"G  c #3E413F",
"H  c #7E4C3F",
"J  c #651E44",
"K  c #781F41",
"L  c #4B3740",
"P  c #473D41",
"I  c #4D3B43",
"U  c #503F46",
"Y  c #4B2E54",
"T  c #7B2442",
"R  c #622853",
"E  c #6C3252",
"W  c #593263",
"Q  c #3C4444",
"!  c #444444",
"~  c #48484A",
"^  c #514047",
"/  c #524148",
"(  c #564B49",
")  c #524D52",
"_  c #575957",
"`  c #765249",
"'  c #74554E",
"]  c #655959",
"[  c #6A5C62",
"{  c #5C6462",
"}  c #5C6B69",
"|  c #646563",
" . c #666A68",
".. c #766A69",
"X. c #71637D",
"o. c #7A7977",
"O. c #922628",
"+. c #9A3524",
"@. c #9B3C2D",
"#. c #952937",
"$. c #8C3832",
"%. c #A93C2B",
"&. c #B53A2D",
"*. c #BE2C3E",
"=. c #AD3537",
"-. c #CA3A2C",
";. c #D83F26",
":. c #C53B32",
">. c #D33A33",
",. c #8A473B",
"<. c #9A4638",
"1. c #AE4935",
"2. c #BA4336",
"3. c #CB432C",
"4. c #D4462E",
"5. c #DA4229",
"6. c #DA442B",
"7. c #CA4A35",
"8. c #D94537",
"9. c #D34B34",
"0. c #DB4C34",
"q. c #CE563A",
"w. c #D6523B",
"e. c #DC523A",
"r. c #E4472C",
"t. c #E34D34",
"y. c #E94E35",
"u. c #E65036",
"i. c #E95136",
"p. c #E7553A",
"a. c #F35237",
"s. c #841C41",
"d. c #A31B46",
"f. c #852146",
"g. c #8C2346",
"h. c #8B2149",
"j. c #942547",
"k. c #9B244C",
"l. c #A5254B",
"z. c #A9264D",
"x. c #B92A47",
"c. c #B93449",
"v. c #A42251",
"b. c #AD2453",
"n. c #B32653",
"m. c #B82458",
"M. c #C12F41",
"N. c #C73346",
"B. c #955346",
"V. c #AF4B46",
"C. c #B35644",
"Z. c #B56757",
"A. c #9D4967",
"S. c #B55866",
"D. c #846F6F",
"F. c #9A7973",
"G. c #AE6D79",
"H. c #DA5A45",
"J. c #CB5350",
"K. c #E55D43",
"L. c #DF604A",
"P. c #E6654D",
"I. c #E86B53",
"U. c #EB6C54",
"Y. c #F1735C",
"T. c #CB7D6E",
"R. c #DC7866",
"E. c #7C837F",
"W. c #85837F",
"Q. c #9B8077",
"!. c #C68476",
"~. c #D88776",
"^. c #EB856E",
"/. c #EC8B76",
"(. c #F5917C",
"). c #907690",
"_. c #7B8480",
"`. c #888884",
"'. c #958F8C",
"]. c #989894",
"[. c #A59693",
"{. c #9CA19C",
"}. c #A7A29C",
"|. c #A6A7A4",
" X c #B3AAA6",
".X c #ADB1AC",
"XX c #B7B3AD",
"oX c #B7B9B3",
"OX c #CD938A",
"+X c #E99988",
"@X c #F79E8A",
"#X c #EDA292",
"$X c #F2A692",
"%X c #D19DA0",
"&X c #CCB5AE",
"*X c #CCB8AF",
"=X c #E8B0AF",
"-X c #FFB8A6",
";X c #BCC1BB",
":X c #C3C2BB",
">X c #E7C5BB",
",X c #F4C8B9",
"<X c #CAC8C3",
"1X c #D3C6CB",
"2X c #D6D1CA",
"3X c #CED2D1",
"4X c #DCDAD2",
"5X c #D1D1DB",
"6X c #FCD7C8",
"7X c #E4DCD6",
"8X c #FADED1",
"9X c #D5E2DA",
"0X c #EBE7DE",
"qX c #FDE5D8",
"wX c #E9E8E1",
"eX c #F3EAE3",
"rX c #F9F3E9",
"tX c #FFFDF4",
"yX c #FFFEFD",
"uX c #FFFFFF",
/* pixels */
"^ ^ ^ ^ ^ ^ ^ ^ ^ ^ ^ ^ ^ B & O p ].eXtX<Xo.t 4 w V I ^ / U U / U / U U I L B w 4 u o.<XtXeX].B O & B ^ ^ ^ ^ ^ ^ ^ ^ ^ ^ ^ ^ ^ ",
"^ ^ ^ ^ ^ ^ ^ ^ ^ ^ ^ ^ ^ B : . p '.0XuXeXXX`.{ ! w w C U / / U / U U U B 8 q P ] `.XXeXuX0X'.p . & B ^ ^ ^ ^ ^ U ^ ^ ^ ^ ^ ^ ^ ",
"^ ^ ^ ^ ^ ^ ^ ^ ^ ^ ^ ^ U B : O t `.4XtXtXrX2X]._ 2 : w U U U U U / U U w : 2 _ ].2XrXtXtX4X`.u O : B ^ ^ ^ ^ ^ ^ ^ ^ ^ ^ ^ ^ ^ ",
"^ ^ ^ ^ ^ ^ ^ U ^ ^ ^ ^ / B : O t `.2XtXuXuXtX*X| 2 O 4 I U U U U U U L > X : | oXtXuXuXtX2X`.t + 2 B ^ ^ ^ ^ ^ ^ ^ ^ ^ ^ ^ ^ ^ ",
"^ ^ ^ ^ ^ ^ ^ ^ ^ ^ ^ ^ U B > O p W.7XtXuXuXuX:X .#   # 0 q u t e i t 0 +   ;  .<XuXtXuXtX4XW.y O & B U ^ ^ ^ ^ ^ ^ ^ ^ ^ ^ ^ ^ ",
"^ ^ ^ ^ ^ ^ ^ ^ ^ ^ ^ ^ / B : O p W.0XtXuXuXuX:X{ -   o ; 1 1 1 < 1 ; - o   - | :XuXuXuXuX0X'.p . & B ^ ^ ^ ^ ^ ^ ^ ^ ^ ^ ^ ^ ^ ",
"^ ^ ^ ^ ^ ^ ^ ^ ^ ^ ^ ^ U B : O u W.2XtXuXuXrXXX] 1 . X ; # # & 1 & # # O . ; ] XXrXuXuXtX2XW.y + : B U ^ ^ ^ ^ ^ U ^ ^ ^ ^ ^ ^ ",
"^ ^ ^ ^ ^ ^ ^ ^ ^ ^ ^ U U L 4 + 8 | {.;X<X<XXX'.' v s s x c x x x x x x s s x ' '.XX<X<XoX}. .i 3 8 Z U ^ ^ ^ ^ U ^ ^ ^ ^ ^ ^ ^ ",
"^ ^ ^ ^ ^ ^ ^ ^ ^ ^ ^ ^ ^ L 4 ; 2 G _  .} } | ' ,.@.+.@.@.@.@.@.@.@.@.@.@.@.@.,.] | }  . .| ( B B Z U U U / U U / U U / U / U / ",
"^ ^ ^ ^ ^ ^ ^ ^ ^ ^ ^ ^ ^ P q : : ; 2 1 < < 2 v <.9.t.r.9.9.9.9.9.9.9.9.e.u.9.@.x 2 < 1 3 6 y P U / U / / U / / U / / U / U U U ",
"^ ^ ^ ^ ^ ^ ^ ^ ^ ^ ^ ^ ^ P q : + % % $ % % $ f %.r.a.a.y.y.y.y.i.p.p.p.a.a.t.&.f $ + X . + 8 I U U U U U / / U / U / / / U / U ",
"^ ^ ^ ^ ^ ^ ^ ^ ^ ^ ^ ^ ^ C 8 1 % , h h a A f +.-.r.r.r.r.r.t.i.u.u.u.u.i.i.u.3.+.f a $ O @ 6 I U U / U / U U / U / U U U / U / ",
"^ ^ ^ ^ ^ ^ ^ ^ ^ ^ ^ ^ ^ C 6 * > k K j.l.2.7.4.4.6.6.6.6.6.8.0.0.e.0.0.u.e.0.0.;.;.<.c $ * 0 I / / U / U U / U / U / U / U U / ",
"^ ^ ^ ^ ^ ^ ^ ^ ^ ^ ^ ^ ^ C 6 * > l h.n.N.8.u.p.p.L.L.L.P.H.H.0.8.8.0.0.0.0.0.i.a.K.1.S = * 8 ! U U / U / U U / U / U / U / / U ",
"^ ^ ^ ^ ^ ^ ^ ^ ^ ^ ^ ^ ^ C 6 1 > l h.b.N.t.u.P.^.+X#X#X+X/.I.H.0.0.0.0.6.9.0.U.(.@X!.` 3 * 5 Z U / U / U / U / / U / U U / U / ",
"I U I I ^ ^ ^ ^ ^ ^ ^ ^ ^ C 6 * > k h.b.:.>.e.^.$X6XqXqX8X>X/.H.6.6.0.0.6.6.e.^.,X6X&X..6 + 3 Z U U / U / U / U / U U U / U / U ",
"I I I U U U U U ^ ^ ^ ^ ^ C 9 @ 3 l f.v.*.>.0.^.,XrXuXuXuX8X#XL.5.5.6.0.4.;.e./.6XtX3XE.4 O 3 V / U / U / U / / U / / U / U / U ",
"V I V U U U U U ^ ^ ^ ^ ^ C 6 * > l f.z.*.-.e./.6XuXuXuXuXqX$XL.5.5.0.0.5.;.e.(.qXuX9XE.6 O 3 I U / U / U / U U / U U / U / U / ",
"V L I I U U U U ^ ^ ^ ^ ^ C 6 * > n f.z.M.-.e.^.6XtXuXuXuXqX$XL.4.;.0.0.6.;.e.(.8XtX9XE.6 O 3 P U / / U / U / U U / U U U / U / ",
"P V I I U U / / ^ ^ ^ ^ ^ P 6 * > l f.b.*.-.u.^.,XrXuXuXtX8X+XP.5.5.0.8.6.;.e.(.6XtX3Xo.4 + 3 P / U U / U / U U / U / U / U / U ",
"V I L I U U U U ^ ^ ^ ^ ^ C 6 * > n h.z.M.>.e.R.%X1X1X5X2X%X~.H.6.6.0.0.6.6.0.R.=X1X|.[ 3 + 4 V U / / U / U U / U / U / U / U U ",
"L L L I U U U U ^ ^ ^ ^ ^ P 6 * > M f.z.M.>.e.J.G.).).).).).S.7.0.0.0.0.t.0.e.J.G.).X.U 2 & 8 I / U U / U / / U / U / U / U U / ",
"U V L U U U U / ^ ^ ^ ^ ^ C 6 1 > M f.z.N.8.0.2.B.W W W W E V.J.t.u.t.0.t.t.u.V.A.W Y e : ; q P U / U U U / U / U U U / / U / U ",
"L U U U U U / U ^ ^ ^ ^ ^ C 6 # : M h.z.N.8.0.2.#.R J J J g.=.8.u.u.0.6.t.i.0.&.j.J j , # 2 q I / U U / / U / U U / U / U / U / ",
"U U U U U / U / U / U / U P 6 * > M h.n.N.>.5.3.&.=.j.#.O.+.:.0.i.r.6.5.r.y.u.4.&.#.A g % & q L ^ ^ ^ ^ U ^ U U / / U U U U / U ",
"U U U U U U / U / U U U U C 6 ; > M h.n.N.4.5.6.8.8.7.3.-.3.8.t.i.t.6.6.0.u.u.y.r.3.+.c = 1 q P ^ ^ ^ ^ ^ ^ U U / U U U / U U / ",
"/ U U U U / U / / U / U ^ P 6 # > k T k.c.J.H.p.9.7.9.e.K.K.w.3.7.q.e.L.H.9.7.w.a.P.2.S = @ 0 P ^ ^ ^ ^ U U U U U U U U / U / U ",
"U U U U / U / U U / U / ^ P 6 # & , k T S.~.@X~.1.@.1.~.@X(.Z.<.<.Z.(.+XT.<.$.C./.$XOX' 4 @ 6 P ^ ^ U U U U U U U U U U U / U / ",
"U / / U U / U U / U U U U I 8 # & % % b F.>XqX&X..s `  X6X,XQ.v v Q.>X8X[.H s ' &XqX>XD.6 O 3 V ^ ^ ^ U I I I I V U V U U U U U ",
"/ U U / / U U U U / U U U P q 2 @ O . 6 o.2XrXoX_ * ! |.eX4XE.5 5 E.4XrX X! * _ oXrX2Xo.6 + 3 P ^ ^ U U U L L I V V U V U U U / ",
"U / U U U U U U U U U U U I B 8 3 # # 9 } |.;X'.G o r _.;X|.} * 1 { |.oXE.u o Q ].<X.X..q 3 w I ^ ^ U U I I V V V V U U U U / / ",
"/ U / U U U U U U U U U U U B B i y y i ~ _  ._ 9 * 5 ~ { _ G * * G { } ~ 5 < u | ).o.] B y B U ^ U U I I I L V V I V V U U U ^ ",
"^ U U U U I I I U I I U U ^ U ^ U U U U B 5 2 2 * & # * 2 & # # # # 2 * 2 * # 4 B / / ^ ^ ^ U ^ ^ ^ ^ I I L L L L L L I U U U U ",
"^ U U U I I I L L I I I U ^ ^ ^ ^ U U U w 2 O O + * + O . . O # + @ . . O # 3 8 B ^ ^ ^ ^ ^ ^ ^ ^ ^ U U I L L L V I L I U U U ^ ",
"^ ^ U U U L I L L L I I U U / U ^ ^ U U V y 3 3 & * # + O O + # # + O O # 4 y B I ^ ^ ^ ^ ^ ^ ^ ^ ^ ^ I U V P I L I I U U U ^ ^ ",
"^ ^ U U I L L L L L L P U U U / U U I U U U V i 3 # * # # @ # # # # * # 3 B I ^ / U ^ ^ ^ ^ ^ ^ ^ ^ ^ ^ I U I I I I I I U ^ ^ ^ ",
"^ ^ ^ U I I L L L L I I U U U U U I U V I U I B 8 & * # # # # # # * & 2 y Z ^ ^ ^ ^ ^ ^ ^ ^ ^ ^ ^ ^ ^ U U I I U U I U U U ^ ^ ^ ",
"^ ^ U U I L L L L L I I U / U U U I I V V I V I N y 8 3 & # # # & 2 8 y B ^ ^ ^ ^ ^ ^ ^ ^ ^ ^ ^ ^ ^ ^ ^ ^ ^ U ^ U U U U U ^ ^ ^ ",
"U U U U U I L I I I L I U U U I U V I V V I Z I ^ I i 4 & * & * & 8 B ^ ^ ^ ^ ^ ^ ^ ^ ^ ^ ^ ^ ^ ^ ^ ^ ^ ^ ^ ^ ^ U ^ ^ ^ ^ ^ ^ ^ ",
"^ U U U I I I I I I I I U U / U I I V V V V I I I ^ B 8 * & * & & q C ^ ^ ^ ^ ^ ^ ^ ^ ^ ^ ^ ^ ^ ^ ^ ^ ^ ^ ^ ^ ^ ^ ^ ^ ^ ^ ^ ^ ^ ",
"^ ^ ^ U U U I U U U U U U U U U I V V V V Z L I C B 8 3 & * * # 2 5 y B P U U / U / U / ^ ^ ^ ^ ^ ^ ^ ^ ^ ^ ^ ^ ^ ^ ^ ^ ^ ^ ^ ^ ",
"^ ^ ^ ^ U U U U U U U U ^ ^ U U I I V V V I I B w 4 3 * * # # & * & 2 4 y I U U / U / U ^ ^ ^ ^ ^ ^ ^ ^ ^ ^ ^ ^ ^ ^ ^ ^ ^ ^ ^ ^ ",
"^ ^ ^ ^ ^ ^ ^ ^ ^ ^ ^ ^ ^ / U U I I V V U L V B 4 * * * # # # # # # & * 8 B ^ U / U U / ^ ^ ^ ^ ^ ^ ^ ^ ^ ^ ^ ^ ^ ^ ^ ^ ^ ^ ^ ^ ",
"^ ^ ^ ^ ^ ^ ^ ^ / ^ / / / U U U U I I U Z B w 8 # + + # # # + O O # & # 2 8 w C U / U U ^ ^ ^ ^ ^ ^ ^ ^ ^ ^ ^ ^ ^ ^ ^ ^ ^ ^ ^ ^ ",
"^ ^ ^ ^ ^ ^ ^ ^ / / / / / U U U U I U U B 8 3 & o . X + # # O . . O # # + O & 8 Z U ^ ^ ^ ^ U U / / U ^ ^ ^ ^ ^ U ^ ^ ^ ^ ^ ^ ^ ",
"^ ^ ^ ^ ^ ^ ^ ^ U / ^ ^ U U U U U U U I w 3 # # + O + @ # @ + @ + + # # # + + 2 B U ^ ^ ^ ^ U U ^ / ^ ^ ^ ^ ^ ^ ^ ^ ^ ^ ^ ^ ^ ^ ",
"^ ^ ^ ^ ^ ^ ^ ^ U U U U / U L P I ] ] ..) 5 # 6 p ~ G 9 # * 9 ! ! r 1 * 9 ! ~ ! C P / _ ..[ ] ^ U / ^ ^ ^ ^ ^ ^ ^ ^ ^ ^ ^ ^ ^ ^ ",
"^ ^ ^ ^ ^ ^ ^ ^ U U U U U L w 4 P ..|..Xo.r o G E.{._.Q * 1 { ].].{ 1 < ~ _.{.E.~ 5 ! )..X[.X.] / U ^ ^ ^ ^ ^ ^ ^ ^ ^ ^ ^ ^ ^ ^ ",
"^ ^ ^ ^ ^ ^ ^ U U I I I I B : + t `.4XeX{.P * ~ .X0X;X{ * r `.4X4X`.r * | ;XwX.X) # Q }.eX1X'.] U / U / / U / U U / U / U U / U ",
"^ ^ ^ ^ ^ ^ U U U I I I L B & O B `.7XeX X( 7 ' :XrX>XD.8 N [.qXqX[.N 7 ..1XrX*X] 7 (  XeX7X[.] / U / U U U U / / U / U U / U / ",
"^ ^ ^ ^ ^ ^ U I I L L L I w : O w D.%X=XT.B.S B./.,X#XZ.S <.!.-X-X!.,.S Z.+X-X+XC.S ,.F.|.].o.) U / U U U U U U U U / U U U / U ",
"^ ^ ^ ^ ^ ^ U U I I L L L i 3 # , R A.S.S.*.2.q.I.Y.I.q.3.q.e.Y.U.L.q.7.q.I.U.P.H.1.<.` ( ! ~ ^ / U / U U U U U U U U U U / U / ",
"^ ^ ^ ^ ^ ^ U U I L V V L i 4 # > k s.d.M.>.t.0.9.4.4.4.0.0.4.3.4.6.0.e.9.6.8.t.i.8.&.c & @ 4 P U / U U U U U I I U U U U / U / ",
"^ ^ ^ ^ ^ ^ U I I I L V L B 6 # > h K d.x.>.J.7.%.+.+.@.%.1.%.+.+.+.+.1.&.:.:.>.t.H.=.c X O 3 I / U U U U L L I V L V L U U / U ",
"^ ^ ^ ^ ^ ^ U U U I L I P i 6 * > k s.d.m.x.x.#.f d s d d d c d d d d x A #.x.M.c.c.#.h + @ 6 I / / U U L L L L V L I U U U U / ",
"^ ^ ^ ^ ^ ^ ^ U U I I I I C 5 # > m h.v.n.n.k.F z # @ @ * * * & # @ @ = j f.k.b.b.k.#.n : 1 0 P / U U U I L I L L L L I U U U / ",
"^ ^ ^ ^ ^ ^ ^ U U U U U U B 6 * > m j.z.n.b.v.K , o o < 1 1 1 1 1 o o # g K v.m.b.v.K n : 1 q I U U U U I I L V V L I I U U U U ",
"^ ^ ^ ^ ^ ^ ^ ^ U U U U U B 6 # > m j.b.m.m.v.T b - o 1 0 y i t r 1 o ; b f.v.m.m.b.h.n & 1 9 I U U U I I I L V V I V V U U U U ",
"^ ^ ^ ^ ^ ^ ^ ^ U U U U I P 6 * > m g.z.m.m.v.F b ; 1 t I ^ ^ ^ C 6 * : n T v.m.n.v.g.n : * q P U U U U I I L I I V I U U U U / ",
"^ ^ ^ ^ ^ ^ ^ ^ U U / ^ ^ P 6 * > k T g.k.j.f.D , : 5 i ^ ^ ^ ^ ^ t 5 2 b F h.k.k.g.F g & 2 q I U / U U U U I L I I U I U U / U ",
"^ ^ U ^ ^ ^ ^ ^ ^ ^ ^ ^ ^ P 8 # 2 7 n m D D m g b w i P ^ ^ ^ ^ ^ C u w z b l D D m n 7 & # q P / U / U U U U U U U U U U / U / ",
"^ ^ ^ ^ ^ ^ ^ ^ ^ ^ ^ ^ ^ P 8 # & 3 , 7 7 7 , 8 i P I U ^ ^ ^ ^ ^ ^ I C w 7 , 7 , 3 = 2 & 2 w I U / U U / U U U U U U / U U / U ",
"^ ^ ^ ^ ^ ^ ^ ^ ^ ^ ^ ^ ^ P q 2 # # # # @ @ # 6 C ^ ^ ^ ^ ^ U ^ ^ ^ ^ ^ i 2 ; @ # # * # * 3 y I / U / U / U / U U U / U U / U / ",
"^ ^ ^ ^ ^ ^ ^ ^ ^ ^ ^ U ^ I B w 4 6 6 5 5 5 6 t P ^ ^ ^ ^ U ^ ^ ^ ^ ^ ^ C t 6 5 5 5 6 6 4 y B U U / U / U / U / U U U / U U / U "
};
