/* XPM */
static char *b2288aeba447409098f8313a931d27ffwsGpGu2NVWCFpLOr[] = {
/* columns rows colors chars-per-pixel */
"64 64 229 2 ",
"   c #050B0B",
".  c #0A0D0D",
"X  c #150F0E",
"o  c #0C100E",
"O  c #1E110F",
"+  c #090F10",
"@  c #1A0E13",
"#  c #0B1214",
"$  c #0D1719",
"%  c #131314",
"&  c #1A1315",
"*  c #1B1619",
"=  c #151B1C",
"-  c #1C1C1C",
";  c #33110D",
":  c #211C1E",
">  c #2B1C1C",
",  c #361A15",
"<  c #1B211F",
"1  c #29201F",
"2  c #34221F",
"3  c #171D20",
"4  c #1A1E21",
"5  c #251E21",
"6  c #2C1C23",
"7  c #3B1828",
"8  c #1C2222",
"9  c #1C2A2B",
"0  c #242323",
"q  c #2A2224",
"w  c #252529",
"e  c #2C242A",
"r  c #252A2C",
"t  c #2C2B2C",
"y  c #302221",
"u  c #372929",
"i  c #332B2E",
"p  c #2A2F31",
"a  c #342D31",
"s  c #3A2C35",
"d  c #353335",
"f  c #3C3235",
"g  c #3B3739",
"h  c #3B3C3C",
"j  c #531917",
"k  c #6F1E12",
"l  c #5B231A",
"z  c #68271C",
"x  c #772B1F",
"c  c #491627",
"v  c #551A2D",
"b  c #4A1F31",
"n  c #48193F",
"m  c #601C37",
"M  c #76193B",
"N  c #482823",
"B  c #44312D",
"V  c #4D2032",
"C  c #443537",
"Z  c #43363C",
"A  c #4B373F",
"S  c #45393E",
"D  c #642C25",
"F  c #6A332A",
"G  c #723329",
"H  c #763429",
"J  c #793A31",
"K  c #3F403C",
"L  c #44403F",
"P  c #7F463C",
"I  c #451C49",
"U  c #4B3740",
"Y  c #473A44",
"T  c #4D3B43",
"R  c #49354C",
"E  c #503F46",
"W  c #593A44",
"Q  c #552A59",
"!  c #762041",
"~  c #7A2044",
"^  c #6B3747",
"/  c #6A2E56",
"(  c #3C4444",
")  c #454847",
"_  c #4C4A49",
"`  c #514047",
"'  c #5A4245",
"]  c #524248",
"[  c #544D4F",
"{  c #5A4B4C",
"}  c #4B5554",
"|  c #545553",
" . c #585A57",
".. c #604E4A",
"X. c #74534E",
"o. c #6C555B",
"O. c #625E5C",
"+. c #714C70",
"@. c #5D6260",
"#. c #676866",
"$. c #6B6B67",
"%. c #6E6D69",
"&. c #716E6B",
"*. c #7D6C68",
"=. c #6A706E",
"-. c #74726E",
";. c #786977",
":. c #697572",
">. c #777874",
",. c #992E1D",
"<. c #881D36",
"1. c #84392C",
"2. c #953929",
"3. c #992B38",
"4. c #823D34",
"5. c #A53928",
"6. c #B33C2A",
"7. c #AF3F33",
"8. c #D53D2A",
"9. c #C93533",
"0. c #C93138",
"q. c #87423D",
"w. c #994535",
"e. c #B5412D",
"r. c #BA412D",
"t. c #AB4335",
"y. c #B54330",
"u. c #BC4634",
"i. c #C4432C",
"p. c #D94127",
"a. c #D5442B",
"s. c #DA442B",
"d. c #C44936",
"f. c #C54B36",
"g. c #D84834",
"h. c #DB4D34",
"j. c #C75038",
"k. c #DC5139",
"l. c #E6472B",
"z. c #E44F34",
"x. c #E45036",
"c. c #EA5137",
"v. c #E5553B",
"b. c #EA5339",
"n. c #F25338",
"m. c #9C234C",
"M. c #8C324A",
"N. c #A3274F",
"B. c #B72A49",
"V. c #CA3745",
"C. c #884744",
"Z. c #934E50",
"A. c #B04C4C",
"S. c #AE6757",
"D. c #B26A5B",
"F. c #894F6D",
"G. c #B35B6F",
"H. c #8D756E",
"J. c #8B7A74",
"K. c #D85A46",
"L. c #C75251",
"P. c #E25D43",
"I. c #DB6752",
"U. c #E26C59",
"Y. c #F36E54",
"T. c #E5725C",
"R. c #EC725C",
"E. c #CD5770",
"W. c #D1786C",
"Q. c #E67A66",
"!. c #F77C65",
"~. c #8B837E",
"^. c #C98474",
"/. c #EA8873",
"(. c #EF8D77",
"). c #7F6188",
"_. c #8E6789",
"`. c #7E8582",
"'. c #8A8A88",
"]. c #92928C",
"[. c #989794",
"{. c #A69A95",
"}. c #B59498",
"|. c #9EA29E",
" X c #A5A49D",
".X c #B6A29C",
"XX c #AB95A5",
"oX c #BB99A8",
"OX c #9DA6A3",
"+X c #A4A9A4",
"@X c #B1ABA6",
"#X c #B7B3AD",
"$X c #B7B6B1",
"%X c #BDBAB3",
"&X c #D28E8C",
"*X c #DC9C9A",
"=X c #ECA797",
"-X c #F3A593",
";X c #D5ACAA",
":X c #C7BBB9",
">X c #F2B2AC",
",X c #F7BAAA",
"<X c #BEC0BB",
"1X c #C6C3BC",
"2X c #DAC4BB",
"3X c #FFC1AF",
"4X c #F5C4B6",
"5X c #C3B8C7",
"6X c #C9C8C2",
"7X c #D3CEC7",
"8X c #CFD1C9",
"9X c #D4D0C9",
"0X c #DCDBD3",
"qX c #E2CDC5",
"wX c #FED5C5",
"eX c #E6DCD8",
"rX c #F2DED6",
"tX c #DFE0D9",
"yX c #E8E3DC",
"uX c #FAE3D8",
"iX c #EAEBE3",
"pX c #F9EBE3",
"aX c #EBF6ED",
"sX c #FAF1E7",
"dX c #FAF4EA",
"fX c #FFFDF4",
"gX c #FFFEFC",
"hX c #FEFFFC",
"jX c #FFFFFE",
/* pixels */
"` ` ` ` E ` ` ` ` ` ` ` ` ` E T T T A U U U A T E E E ` ` ` ` ` ` ` E E T T A T U T U T T ` ` ` ` ` ` ` ` ` ` ` ` ` ` ` ` ` ` ` ",
"` ` ` ` ` ` ` ` ` ` ` ` ` ` E E T U U U U U T T E E E ` ` ` ` ` ` ` E T E U U A U U T T E ` ` ` ` ` ` ` ` ` ` ` ` ` ` ` ` ` ` ` ",
"` ` ` ` ` ` ` ` ` ` ` ` ` ` E E T T T T T T T T E E ` ` ` ` ` ` ` ` E E T T T A U T U T T E ` ` ` ` ` ` ` ` ` ` ` ` ` ` ` ` ` ` ",
"` ` ` ` ` ` ` ` ` ` ` ` ` ` E E E T T T T T T T E ` ` ` ` ` ` ` ` ` E E T U U A U U T T E ` ` ` ` ` ` ` ` ` ` ` ` ` ` E ` ` ` ` ",
"` ` ` ` ` ` ` ` ` ` ` ` ` ` ` E ` E E T T E E E E E ` ` ` ` ` ` ` ` E T T T A A U U T T T E ` ` ` ` ` ` ` ` ` ` ` ` ` ` ` ` ` ` ",
"` ` ` ` ` ` ` ` ` ` ` ` ` ` ` ` ` ` ` E ` ` E ` ` ` ` ` ` ` ` ` ` ` E E T T U U U U T T E E ` ` ` ` ` ` ` ` ` ` ` ` ` ` ` ` ` ` ",
"` ` ` ` ` ` ` ` ` ` ` ` ` ` ` ` ` ` ` ` ` ` ` ` ` ` ` ` ` ` ` ` ` ` ` E T T U T U T T T T ` ` ` ` ` ` ` ` ` ` ` ` ` ` ` ` ` ` ` ",
"` ` ` ` ` ` ` ` ` ` ` ` ` ` ` ` ` ` ` ` ` ` ` ` ` ` ` ` ` ` ` ` ` ` ` E T T T T E T T E E ` ` ` ` ` ` ` ` ` ` ` ` ` ` ` ` ` ` ` ",
"` E ` ` ` ` ` ` ` ` ` ` ` ` ` ` ` ` ` ` ` ` ` ` ` ` ` ` ` ` ` ` ` ` ` E ` ` T ` T ` T ` E ` ` ` ` ` ` ` ` ` ` ` ` ` ` ` ` ` ` ` ",
"` ` ` ` ` ` ` ` ` ` ` ` ` ` E ` ` ` ` ` ` ` ` ` ` ` ` ` ` ` ` ` ` ` ` ` ` ` ` ` ` ` ` ` ` ` ` ` ` ` ` ` ` E ` ` ` ` ` ` E ` ` ` ",
"` ` ` ` ` ` ` ` ` ` ` ` ` ` ` ` ` ` ` ` ` ` ` ` ` ` ` ` ` ` ` ` ` ` ` ` ` ` ` ` ` ` ` ` ` ` ` ` ` ` ` ` ` ` ` ` ` ` ` ` ` ` ` ` ",
"` ` ` ` ` ` ` ` ` ` ` ` ` ` ` ` ` ` ` ` ` ` ` ` ` ` ` ` ` ` ` ` ` ` ` ` ` ] ` ` ` ` ` ` ` ` ` ` ` ` ` ` ` ` ` ` ` ` ` ` ` ` ` ` ",
"` ` ` ` ` ` ` ` ` ` ` ` ` ` ` ` ` ` ` ` ` ` ` ` ` ` ` ` ` ` ` ` ` ` ` ` ` ` ` ` ` ` ` ` ` ` E ` ` ` ` ` ` ` ` ` ` ` ` ` ` ` ` ` ",
"` ` ` ` ` ` ` ` ` ` ` ` ` ` ` ` T U Z S U E ` ` ` ` ` ` ` ` ` ` ` ` ` ` ` ` ` ` ` ` ` ` U S Z Z T ` ` ` ` ` ` ` ` ` ` ` ` ` ` ` ",
"E E E E ` ` ` ` ` ` ` ` ` ` ` ` Z e 5 e f ` ` ` ` ` ` ` ` ` ` ` ` ` ` ` E ` E ` ` ` ` ` f e 5 i Z ` ` ` ` ` ` ` ` ` ` ` ` ` ` ` ",
"E T E E E ` ` ` ` ` ` ` ` ` ` ` f 5 & - a T ` ` ` ` ` ` ` ` ` ` ` ` ` E E T T ` ` ` ` T a - & 5 f ` ` ` ` ` ` ` ` ` ` ` ` ` ` ` ",
"T T T T E ` ` ` ] E ] ] E ] E U g a t t f C ` ` ` ` ` ` ` ` ` ` E E ` ` ` T T T ` ` S Y f t t a Z A ` ` ` ` ` ` ` ` ` ` ` ` ` ` ",
"T U T T E E ` ` E ] E E T A C g [  .%.O._ f a Z T ` ` ` ` ` ` ` E E ` T T T A T Y Z B s _ O.%. ._ Z f S T ` ` ` ` ` ` ` ` ` ` ` ",
"U U T T T E ` ` E E E ] S i 5 i O.[.:X X#.t * u A ` ] E ` ` ` ` E E ` ` T A T T Z u * t #.+X:X[.O.i 5 i A ` ` ` ` ` ` ` ` ` ` ` ",
"U U U T E ` ` ` ] E ] E Z q & t -.1XdX0X'.g % : f E E E ` ` ` ` ` ` ` T T ` T ` s : X C '.0XdX1X-.t & q Z ` ` ` ` ` ` ` ` ` ` ` ",
"U A T T T E ` ` E E ] E Z : X t >.9XhXdX#X%.L d Z Z Z Z Y Z g g Z Z Z g g Z Z Z C f S %.#XdXhX9X>.p % : Z E ` ` ` ` ` ` ` ` ` ` ",
"U U T E E ` ` ` ] E E ] Z 1 % t >.6XfXhXrX#X'.$._ i e w w r r r r r r r r 0 e i ) #.'.#XyXfXfX6X>.t % 1 Z E ` ` ` ` ` ` ` ` ` ` ",
"T T T T E ` ` ` E ] ] E Z 0 % t &.:XdXhXhXsX7X[.| q % % - 8 < < 4 8 = 4 = & % 0 | [.7XdXhXhXdX:X%.t X 6 Z ` ` ` ` ` ` ` ` ` ` ` ",
"T T T T E ` ` ` ] E E ] Z 5 % w $.%XdXhXhXhXdX@X .< . & > 0 q 1 q y y 6 1 & . 1  .@XdXgXhXhXdX$X%.t % 5 Z ` ` ` ` ` ` ` ` ` ` ` ",
"E E E E E ` ` ` ` ` ` ` Z 5 & t %.:XfXfXhXhXhX$X .3 # , D G G G F G G G D , % < @.$XfXhXhXhXfX:X&.t % 5 g ` ` ` ` ` ` ` ` ` ` ` ",
"E E E E ` ` ` ` ` ` ` ` Z 5 & r -.1XfXhXhXhXfX+X} 3 & l w.e.r.e.t.e.y.e.2.l O = } +XfXhXhXhXhX1X-.t % 5 Z ` ` ` ` ` ` ` ` ` ` ` ",
"] E E E ` ` ` ` ` ` ` ` Z q % t $.$XdXgXhXhXyX X} 6 , x i.x.c.x.h.z.c.c.i.x , - }  XyXhXhXhXdX$X$.w & 5 Z T ` ` ` ` ` ` ` ` ` ` ",
"E E E E ` ` ` ` ` ` E ` S w * 0 | ].%X6X8X6X#X~.{ N z 5.g.n.n.c.c.c.n.n.h.5.z N { ~.#X6X9X6X%X]. .i 0 u Z E ` T T T T ` ` ` ` ` ",
"E ] ` ` ` ` ` ` ` ` ` ` Y e : 0 g | %.-.:.:.$.o.q.2.5.i.h.c.c.c.x.c.c.c.h.i.5.2.P X.#.:.>.>.&.O._ C f Z T T T T T T T T T ` ` ` ",
"] E ` E ` ` ` E ` ` ` ` U a 0 : 0 r w w 9 9 t D w.f.h.h.h.h.h.h.h.h.h.h.h.k.h.f.w.F p 9 9 t t d Z T E T T T U T U T T T ` ` ` ` ",
"E E ] ] E E E E E E E E U d 0 - - : O @ X % , G e.l.c.c.z.h.h.h.h.h.h.h.h.b.n.c.e.x ; X % # % 5 f ` ` T T U T U U U A T T ` ` ` ",
"] E E E E E E T E E T E Y a < - > 7 c c j l z ,.i.l.l.l.p.p.s.h.h.h.h.h.k.c.b.x.i.,.k j ; O o 4 f ` ` T T T A A A U T T T ` ` ` ",
"` ` ` ` E T T T T T T ` S i 8 : 7 m M m.3.5.e.i.a.s.s.s.p.p.s.h.k.h.h.h.h.k.x.h.s.a.6.,.z , % 8 d ` ` T T A A A A U T T T ` ` ` ",
"` ` ` ` T T T U T T T T S t 8 5 b ~ m.B.V.g.z.h.x.k.k.j.k.k.k.h.h.h.k.h.h.h.h.h.z.n.b.i.q.N < < d ` ` T T T U U U U U T T ` ` ] ",
"` ` ` T T T U U A T A T S t < : b ~ N.V.V.c.n.Y.T.Q./././.Q.U.K.h.h.g.h.h.h.h.h.P.!.(.Q.Z.N 1 8 d ` ` T T T T A T U U T ` ` ` ` ",
"` ` ` T T T U U A A T T Z p < 5 b ~ N.B.0.l.b.Q.=X,X4X4X4X>X(.I.h.a.s.h.h.s.a.k.Y.-X,X;X~.L < * i T ` ` T T T T T T T ` T ` ` ` ",
"` ` ` T T T A A A U U T S t 8 : b ! m.B.0.0.P.(.4XpXfXhXfXrX=XQ.h.p.s.h.h.s.p.h./.,XuXeX[._ * * i T ` T ` ` E E T T ` T ` ` ` ` ",
"` ` ` T T T A U U U T T S t 8 0 b ~ m.B.6.8.P.(.wXhXhXhXhXdX,XQ.h.p.s.h.g.s.p.k./.wXhXaXOX} * * i T ` ` T ` ` ` ` ` ` ` ` ` ` ` ",
"` ` ` E T T A T T T T T S t 8 : b ! m.B.0.8.P.(.wXhXhXhXhXfX>XQ.h.p.p.h.g.a.p.h.(.wXhXaX+X} = * i ` T ` ` ` ` ` ` ` ` ` ` ` ` ` ",
"` ` ` E T T T T T T T T S t < 5 7 ! m.B.0.a.K.-XwXhXhXhXhXfX>XQ.h.8.p.h.h.a.p.k.(.4XhXaXOX} * * a ` ` ` ` ` ` ` ` ` ` ` ` ` ` ` ",
"` ` ` E T T ` T T ` ` T S t 8 1 b ! m.B.V.9.v./.4XpXhXhXaXrX=XQ.h.p.a.g.h.s.p.h./.3XuXtX[.) = * a T ` ` ` ` ` ` ` ` ` ` ` ` ` ` ",
"` ` ` ` ` ` ` ` ` ` ` ` S p < : b ~ m.B.0.8.h.W.&X5X5X5X%XoX^.I.x.l.l.s.a.p.l.x.U.&X;X+X;.( - 8 d T ` ` ` ` ` ` ` ` ` ` ` ` ` ` ",
"` ` ` ` ` ` ` ` ` ` ` ` S p < : b ~ N.V.0.8.s.L.G._._._.).F.A.K.b.l.l.p.p.l.l.x.K.G.F.+.R s - 0 f T ` ` ` ` ` ` ` ` ` ` ` ` ` ` ",
"` ` ` ` ` ` ` ` ` ] ` ] S p < 1 b ~ m.B.0.g.g.7.M.Q Q Q Q / M.L.k.l.z.g.h.x.x.k.A.M./ Q s q < 0 f T ` ` ` ` ` ` ` ` ` ` ` ` ` ` ",
"` ` ` ` ` ` ` ` ` ` ` ] A p 8 5 b m ~ N.L.R.U.A.^ n I Q +.+.Z.t.e.j.I.T.T.K.j.e.A.M.+.+.A e - 0 f T ` ` ` ` ` ` ` ` ` ` ` ` ` ` ",
"` ` ` ` ` ` ` ` ` ` ` ` S i 8 : > 7 V C.&X-X=X}.W 7 R ;.}.;X_.q.G w.^.,X=X^.w.H Z._.oX}.;.Y - < f T ` ` ` ` ` ` ` ` ` ` ` ` ` ` ",
"` ` ` ` ` ` ` ` ` ` ` ` A d 0 - & @ > { .XuXuX@X[ : U [.eXeX{.L y ...XuXuX XS 2 ...XyXeX[._ - * i T ` ` ` ` ` ` ` ` ` ` ` ` ` ` ",
"` ` ` ` ` ` ` ` ` E ` ` S i 0 - %   $ ( [.eXyX X_ * h [.yXyX|.K < ( [.yXyX].L - _  XiXyX{._ * * i ` ` ` ` ` ` ` ` ` ` ` ` ` ` ` ",
"` ` ` ` ` ` ` ` T T T T Z a q - %     t =.|.+X:.d o t %. X+X-.r + 9 :.|.|.#.9   p >.@X X-.d o & i T ` ` ` ` ` ` ` ` ` ` ` ` ` ` ",
"` ` ` ` ` ` ` T E T U T Z a 0 - % .   = h } | K <   % h | | h <   * h | } d =   < K | | K : . * i T ` ` ` ` ` ` ` ` ` ` ` ` ` ` ",
"` ` ` ` ` ` ` ` T T U U C i 5 - < < - < < < < < < < < < < < < < < = < - < < < < - < - < < - - e f E ` ` E E ` E ` ` ` ` ` ` ` ` ",
"` ` ` ` ` ` ` T T T U U C t - 1 d ) | ) 1 o o < L | ) 1 o o 1 ( | ) w o o r ) } L 8 . % t _  . .{ ` ` ` E E E E T E E E E ` ` ` ",
"` ` ` ` ` ` ` T T T U A C 6 * w | '.+X].} = # ( `. X].( = $ ( '.+X`.( $ $ } '.+X`.( # =  .[.@X{.*.[ ` E E T T T T T T T E ` ` ` ",
"` ` ` ` ` ` ` T T T U A s 5 & r &.:XiX8X-.r = @.<XiX1X-.8 9 #.<XiX<X=.8 8 %.1XiX$X@.8 9 >.9XiX6X'.{ ` E T T U T T T T T T ` ` ` ",
"` ` ` ` ` ` ` ` T T T U f 5 & w *.:XsXqX~.B u *.1XpX2X~.f 2 H.2XsX2XH.i B J.7XuX2XH.u B ~.9XiX6X_.{ ` T T T U U U U T T T ` ` ` ",
"` ` ` ` ` ` ` T T T T T Z 0 * w +.XX>X*XD.q.1.S.-X3X-XD.q.P S.-X3X-XD.J q.D.-X,X-XS.H P Z.{.@X].-.{ ` E T T U U U U T T E ` ` ` ",
"` ` ` ` ` ` ` T E T E T Z t - 0 W F.E.E.L.6.d.K.R.!.R.K.f.f.K.R./.Y.K.d.d.K.R.!.Y.K.f.y.q.X.[ } _ ` E E T U U U U T T T T E E ` ",
"` ` ` ` ` ` ` ` ` E E ` S t 8 : b M m.N.V.g.h.x.h.h.h.g.h.h.h.g.h.h.h.h.h.h.h.g.h.z.z.d.J N = 8 d T E T T T U U U A A E E E ` ` ",
"` ` ` ` ` ` ` ` ` ` ` ` S p < : 7 v M <.3.7.7.6.e.6.7.d.j.d.u.7.6.y.u.j.d.6.5.5.6.r.u.2.z ,   * a T E E T T T T T U T T E E ` ` ",
"` ` ` ` ` ` ` ` ` ` ` ` A i : 0 > 7 c v D F G H J 4.q.C.C.C.C.q.4.4.C.C.q.J D l D G G D N 1 # - s T E E E T T T T T T T E ` ` ` ",
"` ` ` ` ` ` ` ` ` ` ` ` S i 8 < 1 5 : : q q > a A W ` ] ' ' ' W ' ' ` ] E B y q q q > 1 1 1 - w g T ` ` E E T T E T E E E ` ` ` ",
"` ` ` ` ` ` ` ` ` ` ` ` T f w 1 < 8 8 < - = 8 p Z E ` ` ` ` E ] ` ` ` ` E f w 3 3 3 3 8 3 : 0 i Z T ` ` ` ` E ` E E E ` E E ` ` ",
"` ` ` ` ` ` ` ` ` ` ` ` T h f i i t t r t r p d T ` ` ` ` ` ` ` ` ` ` ` ` g p p r r r t t t i f Y E ` ` ` ` ` ` E ` ` ` ` ` ` ` ",
"` ` ` ` ` ` ` ` ` ` ` ` ` T T A S S S S Y Z S S ` ` ` ` ` ` ` ` ` ` ` ` ` U Y Y Z Z Y S S Y Y T T ` ` ` ` ` ` ` ` ` ` ` ` ` ` ` "
};
