/* XPM */
static char *f115531d3c3547cb93f41e2c4803fbfc2uW1TWCly5s2uIT8[] = {
/* columns rows colors chars-per-pixel */
"64 64 211 2 ",
"   c #040304",
".  c #0D0406",
"X  c #060609",
"o  c #0B0709",
"O  c #06090C",
"+  c #0C0A0C",
"@  c #130C0D",
"#  c #1C0C0E",
"$  c #0C0E11",
"%  c #120F11",
"&  c #1B0F11",
"*  c #0E1012",
"=  c #131315",
"-  c #191416",
";  c #141518",
":  c #1B1619",
">  c #16191B",
",  c #1C191C",
"<  c #280D0F",
"1  c #370D0E",
"2  c #271918",
"3  c #221A1D",
"4  c #331314",
"5  c #3C1315",
"6  c #37181A",
"7  c #1E1E21",
"8  c #241E21",
"9  c #2C1D20",
"0  c #3A1E22",
"q  c #1E262C",
"w  c #252326",
"e  c #2C2226",
"r  c #2D2529",
"t  c #29282C",
"y  c #32262B",
"u  c #382428",
"i  c #34292E",
"p  c #252D32",
"a  c #2E2C31",
"s  c #372B30",
"d  c #3A2D32",
"f  c #2E3336",
"g  c #3E3136",
"h  c #363539",
"j  c #3B393E",
"k  c #471719",
"l  c #541A1C",
"z  c #6C1D1E",
"x  c #721F1F",
"c  c #5C3116",
"v  c #691B22",
"b  c #44272C",
"n  c #5A272A",
"m  c #4C2F34",
"M  c #403137",
"N  c #44353B",
"B  c #4A363D",
"V  c #47383E",
"C  c #48393F",
"Z  c #682527",
"A  c #782425",
"S  c #652E31",
"D  c #7A2C30",
"F  c #69353A",
"G  c #79393D",
"H  c #363D41",
"J  c #3A3D42",
"K  c #4B3740",
"L  c #403E42",
"P  c #4D3B42",
"I  c #513F46",
"U  c #5B3D43",
"Y  c #643D43",
"T  c #6C3C41",
"R  c #743C41",
"E  c #3B4146",
"W  c #3D4449",
"Q  c #45474A",
"!  c #4C494E",
"~  c #514047",
"^  c #554649",
"/  c #4B4C51",
"(  c #554E53",
")  c #4C5357",
"_  c #53545A",
"`  c #57555A",
"'  c #5D5B5E",
"]  c #645659",
"[  c #5A5C62",
"{  c #615D64",
"}  c #5E676C",
"|  c #64636A",
" . c #656668",
".. c #6B666E",
"X. c #666B73",
"o. c #7A6C74",
"O. c #67737A",
"+. c #69747C",
"@. c #6A767C",
"#. c #75737B",
"$. c #79747D",
"%. c #862828",
"&. c #982C2D",
"*. c #8A3436",
"=. c #8C3739",
"-. c #94363A",
";. c #993538",
":. c #A42A2D",
">. c #AA352F",
",. c #A43334",
"<. c #AD3333",
"1. c #A73A3B",
"2. c #B43434",
"3. c #BB3636",
"4. c #B93B3C",
"5. c #C43A3A",
"6. c #CB3B3B",
"7. c #9E4E19",
"8. c #B55235",
"9. c #C85432",
"0. c #D16427",
"q. c #DC6D30",
"w. c #E07430",
"e. c #943E41",
"r. c #B63D41",
"t. c #994549",
"y. c #8D5351",
"u. c #8A565C",
"i. c #A84648",
"p. c #AD524E",
"a. c #8D5A60",
"s. c #955E64",
"d. c #986469",
"f. c #8F6E75",
"g. c #8B7A7D",
"h. c #A26B66",
"j. c #A87664",
"k. c #C14840",
"l. c #CB744D",
"z. c #C87779",
"x. c #D87D7A",
"c. c #B78A7F",
"v. c #6D7A81",
"b. c #757A83",
"n. c #7C7D86",
"m. c #827B84",
"M. c #897C84",
"N. c #937D84",
"B. c #7D828A",
"V. c #85828C",
"C. c #8B848E",
"Z. c #90868E",
"A. c #848591",
"S. c #848B94",
"D. c #868B95",
"F. c #8A8A94",
"G. c #8D8F99",
"H. c #918C96",
"J. c #87939A",
"K. c #8C939D",
"L. c #93929B",
"P. c #979799",
"I. c #A69B9B",
"U. c #8B97A2",
"Y. c #8D9AA5",
"T. c #8F9FA9",
"R. c #949CA6",
"E. c #969EA9",
"W. c #8FA1AB",
"Q. c #92A2AC",
"!. c #9BA4AA",
"~. c #95A6B0",
"^. c #9AA6B1",
"/. c #97AAB4",
"(. c #9BABB6",
"). c #9BAEB9",
"_. c #9DB1BC",
"`. c #A8AAAA",
"'. c #B5ACAD",
"]. c #A0ACB7",
"[. c #ADB5B6",
"{. c #A3B4BE",
"}. c #B6B4B4",
"|. c #D98182",
" X c #C99590",
".X c #E9BCBB",
"XX c #F3C2BF",
"oX c #A2B7C1",
"OX c #A5B9C4",
"+X c #ABBCC5",
"@X c #A9BEC9",
"#X c #B2C4CE",
"$X c #B7C5CC",
"%X c #CCCBCA",
"&X c #C2CED4",
"*X c #C7D2D7",
"=X c #C8D5DB",
"-X c #D8D9DB",
";X c #FBCBCB",
":X c #F0D2D3",
">X c #D4DEE3",
",X c #D9E2E7",
"<X c #E5E8EA",
"1X c #EDECEC",
"2X c #F3EFEF",
"3X c #F0F0EF",
"4X c #EAEEF0",
"5X c #EDF3F5",
"6X c #EFF5F8",
"7X c #F6F7F7",
"8X c #FEFEFE",
/* pixels */
"~ ~ ~ ~ ~ ~ ~ ~ ~ ~ ~ ~ ~ ~ I P P P K P K K K P I I I I I I ~ ~ ~ ~ I I P L K K K P P I P I ~ ~ ~ ~ ~ ~ ~ ~ ~ ~ ~ ~ ~ ~ ~ ~ ~ ~ ",
"~ ~ ~ ~ ~ ~ ~ ~ ~ ~ I ~ ~ ~ I I P K K K K K K P I I I I I I ~ ~ ~ ~ I I P P K K B P P P I I ~ ~ ~ ~ ~ ~ ~ ~ ~ ~ ~ ~ ~ ~ ~ ~ ~ ~ ",
"~ ~ ~ ~ ~ ~ ~ ~ ~ ~ ~ ~ ~ ~ ~ P P P K K K N K V K L P P P P P P I ~ I I P P P K P K B P I I I ~ ~ ~ ~ ~ ~ ~ ~ ~ ~ ~ ~ ~ ~ ~ ~ ~ ",
"~ ~ ~ ~ ~ ~ ~ ~ ~ ~ ~ ~ ~ ~ ~ ~ P P K K g s y a i s y s i y s M P I I I P P K K B B P I P I I I ~ ~ ~ ~ ~ ~ ~ ~ ~ I ~ ~ ~ ~ ~ ~ ",
"~ ~ ~ ~ ~ ~ ~ ~ ~ ~ ~ ~ ~ ~ ~ I I I P h y 8 : ; : : : : ; : 8 y V ~ I I P K K K P B P P P ~ ~ ~ ~ ~ ~ ~ ~ ~ ~ ~ ~ ~ ~ ~ ~ ~ ~ ~ ",
"~ ~ ~ ~ ~ ~ ~ ~ ~ ~ ~ ~ ~ ~ ~ ~ ~ I P d 8 % O X O O o       $ 8 d P I P I K P K C P P P P ~ ~ ~ ~ ~ ~ ~ ~ ~ ~ ~ ~ ~ ~ ~ ~ ~ ~ ~ ",
"~ ~ ~ ~ ~ ~ ~ ~ ~ ~ ~ ~ ~ ~ ~ ~ ~ ~ P s 7 o o o + @ @ # % # @ 3 s V P I I K K P P C P P ~ ~ ~ ~ ~ ~ ~ ~ ~ ~ ~ ~ ~ ~ ~ ~ ~ ~ ~ ~ ",
"~ ~ ~ ~ ~ ~ ~ ~ ~ ~ ~ ~ ~ ~ ~ ~ I I K y ;   + # 4 k k k k k 1 5 0 i d N B I P P P P P ~ P ~ ~ ~ ~ ~ ~ ~ ~ ~ ~ ~ ~ ~ ~ ~ ~ ~ ~ ~ ",
"~ ~ ~ ~ ~ ~ ~ ~ ~ ~ ~ ~ ~ ~ ~ ~ ~ ~ L i ;   + 4 l A %.%.%.%.z l 6 3 8 y N ~ P P P P ~ ~ ~ ~ ~ ~ ~ ~ ~ ~ ~ ~ ~ ~ ~ ~ ~ ~ ~ ~ ~ ~ ",
"~ ~ ~ ~ ~ ~ ~ ~ ~ ~ ~ ~ ~ ~ ~ ~ ~ ~ K s >   @ k A &.<.2.:.:.%.z 5 @ $ 8 g P ~ ~ ~ ~ ~ ~ ~ ^ ~ ~ ~ ~ ~ ~ ~ ~ ~ ~ ~ ~ ~ ~ ~ ~ ~ ~ ",
"~ ~ ~ ~ ~ ~ ~ ~ ~ ~ ~ ~ ~ ~ ~ ~ ~ ~ P d 8 $ % 5 v &.<.4.6.3.1.D k @   = r N P ~ ~ P K K V C K ~ I ~ ~ ~ ~ ~ ~ ~ ~ ~ ~ ~ ~ ~ ~ ~ ",
"~ ~ ~ ~ ~ ~ ~ ~ ~ ~ ~ ~ ~ ~ ~ ~ ~ ~ P N y 8 9 6 l x %.;.r.p.t.R 6 .   + 3 r d d i i i i i i s g K ~ ~ ~ ~ ~ ~ ~ ~ ~ ~ ~ ~ ~ ~ ~ ",
"~ ~ ~ ~ ~ ~ ~ ~ ~ ~ ~ ~ ~ ~ ~ ~ ~ ~ P P B N d e 4 1 k F y.s.s.T u o     + - , 3 , : : - - - 3 y N ~ ~ ~ ~ ~ ~ ~ ~ ~ ~ ~ ~ ~ ~ ~ ",
"~ ~ ~ ~ ~ ~ ~ ~ ~ ~ ~ ~ ~ ~ ~ ~ ~ ~ ~ ~ I I B s : . # M ] m.m.{ s +       X   X X X         + , g P ~ ~ ~ ~ ~ ~ ~ ~ ~ ~ ~ ~ ~ ~ ",
"I I I ~ ~ ~ ~ ~ ~ ~ ~ ~ ~ ~ ~ ~ ~ ~ ~ ~ I ~ K r ; $ : J | n.m.| J 7 * + $ ; = ; = = = = ; ; ; w s C ~ ~ ~ ~ ~ ~ ~ ~ ~ ~ ~ ~ ~ ~ ",
"I I P I I ~ ~ ~ ~ ~ ~ ~ ~ ~ ~ ~ ~ ~ ~ P V N s r w w f ) X.n.B.@.[ W H H J E E J E E E W W W j h h i d j K I ~ ~ ~ ~ ~ ~ ~ ~ ~ I ",
"P P I P I ~ ~ ~ ~ ~ ~ ~ ~ ~ ~ ~ ~ ~ ~ N i w : w j ! ` ..#.n.B.n.B.v.O.O.O.B.B.B.B.B.O.B.B.B.} ) h 7 3 a g ~ ~ ~ ~ ~ ~ ~ ~ ~ ~ ~ ",
"K P P P I ~ ~ ~ ~ ~ ~ ~ ~ ~ ~ ~ ~ ~ ~ g 3 + + t / ..n.m.m.m.M.S.B.B.W.W.B./.B.B.B.B.B./.~.).B.} j = + 3 i P ~ ~ ~ ~ ~ ~ ~ ~ ~ ~ ",
"K K P P P I ~ ~ ~ ~ ~ ~ ~ ~ ~ ~ ~ P N y - + , j { m.H.H.M.M.A.K.).OXOXOX@XOX_.oX@X@XoX@X@XOX~.v.E ;   - i P ~ ~ ~ ~ ~ ~ ~ ~ ~ ~ ",
"K K K P I ~ ~ ~ ~ ~ ~ ~ ~ ~ P P j d i r w t j ' $.L.R.R.L.S.G.Y./.oXOXOXOXOXoXoXOX@XOX@X@X@X~.@.W =   - y P ~ ~ ~ ~ ~ ~ ~ ~ ~ ~ ",
"P K P P P ~ ~ ~ ~ ~ ~ ~ ~ ~ ~ g r 8 8 r j ~ { #.S.R.!.!.R.U.U.T./.).).).OX_._.).).).).oX#X_.W.O.E ;   - i C ~ ~ ~ ~ ~ ~ ~ ~ ~ ~ ",
"K K P P I I ~ ~ ~ ~ ~ ~ ~ ~ P s 3 $ % r ! ..m.G.R.^.(.(./.~.~.~././././.@XB.)./.)./.).)._.).Y.O.H = X - i P ~ ~ ~ ~ ~ ~ ~ ~ ~ ~ ",
"P K P I P I ~ ~ ~ ~ ~ ~ ~ ~ C i -   % h [ m.L.E.(.(._._.{.{.oXOXOX@XoXoXoXoXoXOXOXOXoX@X#X#X!.@.W ; X : i C ~ ~ ~ ~ ~ ~ ~ ~ ~ ~ ",
"P P P P ~ ~ ~ ~ ~ ~ ~ ~ ~ ~ P i =   = J { Z.!.].(._._.#X$X$X&X&X=X=X=X#X=X=X=X=X=X=X=X=X,X>X$XS./ > . : i P ~ ~ ~ ~ ~ ~ ~ ~ ~ ~ ",
"I P I I I ~ ~ ~ ~ ~ ~ ~ ~ ~ K i -   = J X.K.(.].).).{.#X*X>X<X4X,X6X6X6X6X6X6X6X6X6X6X8X8X8X,X`.` , X , i P I I ~ ~ ~ ~ ~ ~ ~ ~ ",
"I I I I ~ ~ ~ ~ ~ ~ ~ ~ ~ ~ P i :   ; J O.W.{.{.)./.{.$X>X5X8X8X6X6X8X8X8X8X8X8X8X8X8X8X8X8X5X`.{ ,   : s K I I ~ ~ ~ ~ ~ ~ ~ ~ ",
"~ ~ I ~ ~ ~ ~ ~ ~ ~ ~ ~ ~ ~ L s : X = E O.W.oXoX_./.{.&X<X8X8X8X6X5X1X4X1X<X1X1X3X3X3X7X8X7X-XI.` > . - i K I I ~ ~ ~ ~ ~ ~ ~ ~ ",
"~ ~ ~ ~ ~ ~ ~ ~ ~ ~ ~ ~ ~ ~ K s : X ; E v.W.OXOX_.^.{.&X4X8X8X1X*X`.I.I.I.`.`.`.`.`.}.}.}.`.P...L ; X - a P I I ~ P ~ P ~ ~ ~ ~ ",
"~ ~ ~ ~ ~ ~ ~ ~ ~ ~ ~ ~ ~ ~ K s : . ; E @.Q.OXOX_./.{.=X5X8X7X%XP.' Q L Q Q ( ( ' { ' ' ' ( Q h 7 + o : i B P P P P P ~ ~ ~ ~ ~ ",
"~ ~ ~ ~ ~ ~ ~ ~ ~ ~ ~ ~ ~ ~ K i : X ; E @.W.oXoX)./.{.=X6X8X3X}. .w       + * ; ; > 7 : ; % * + o X + , i N K P P P P P P ~ ~ ~ ",
"~ ~ ~ ~ ~ ~ ~ I I I I ~ ~ ~ P i :   = J O.Y.{.{.)./.{.=X6X8X3X}. .w X   X * $ o         X * * * + o + , i V K K B B K P P ~ ~ ~ ",
"~ ~ ~ I I P I P I I P I I ~ P a -   = J X.U.(.]././.OX=X6X8X7X%XP.' Q Q ) ` Q p O     $ f / / E w $ o : y V K K K P C P ~ ~ ~ ~ ",
"I I I I P I I P P P P ~ P ~ K a %   % J { F.E.].^.(.+X=X5X8X8X1X%X[.`.`.[.[.W.} q X X p O.!.`.b.Q = + - i N B C I B P P I I I I ",
"~ I I I I P B P C P P P ~ ~ K s : X % f [ M.H.R.Q.^.oX*X<X8X8X8X7X5X5X7X8X7X-XJ.E $ O / `.,X1X'. .> + - y N B B P B B I I I I I ",
"~ ~ I P K K P B K P P P P ~ P i 8 + % a ! ..m.A.U.Q.{.$X>X4X7X8X8X7X7X8X8X8X1XI.^ 2 2 ] '.2X2X}. .7 X - y V P P B B P B I I I ~ ",
"~ ~ I I I K K K K K P P P ~ P N y 8 7 r J ^ [ #.B.U.^.+X$X*X-X:X:X;X;X;X;X;X.Xc.y.c c ]  XXXXXI.] , o - i C P C I I I I I ~ ~ ~ ",
"~ ~ ~ P P K K K K P B P I I I P N d i t w r J _ @.A.Y.^.(.].}.'. X|.x.|.|.|.x.l.8.7.7.8.l.x.z.u.m & o - s C C ~ I P P I I ~ ~ ~ ",
"~ ~ I I I B K K K K K I I I I I P P M y : % : J [ n.F.U.U.F.Z.f.s.r.r.3.4.i.4.9.0.0.0.0.k.r.r.D k @ X - s C I ~ I ~ ~ ~ I ~ ~ ~ ",
"~ ~ ~ P P P K P K B P P I I I I P K B u -   + r ( o.M.N.m.m.o.a.e.1.:.:.:.:.>.8.q.w.q.q.9.3.&.v 5 @ X , s P ^ ~ ~ ~ ~ ~ ~ ~ ~ ~ ",
"~ ~ ~ ~ I P I P P I P I I I I ^ Y R T k #   X 9 U u.d.d.s.a.u.y.e.e.-.-.e.-.e.8.9.l.l.l.p.i.*.v 6 @ X , i C ~ ~ ~ ~ ~ ~ ~ ~ ~ ~ ",
"~ ~ ~ I I I I I ~ ~ ~ I I I I T R e.*.n <   o 4 S e.i.i.i.t.t.t.y.u.u.u.u.u.u.s.h.j.j.j.d.s.u.U e @ o : a P ~ ~ ~ ~ ~ ~ ~ ~ ~ ~ ",
"~ ~ ~ ~ ~ I I I P ~ I I I I ^ R e.1.&.A 4 o o 4 v ;.2.3.2.<.r.i.s.N.M.M.m.m.M.f.g.g.g.N.N.M.o.( i = X : i P ~ ~ ~ ~ ~ ~ ~ ~ ~ ~ ",
"~ ~ ~ ~ I I I I ~ ^ U ~ ~ ^ Y R ;.2.<.A 5 @ o 4 Z &.4.3.2.<.1.y.f.M.m.S.S.A.S.m.A.A.S.F.G.G.b.[ h = X - i P ~ ~ ~ ~ ~ ~ ~ ~ ~ ~ ",
"~ ~ ~ ~ ~ I ^ U Y R G G G F R =.<.2.<.A 5 o o 9 S t.i.i.1.i.i.d.N.U.W.Q.W.R.T.Y.Y.Y.Y.E.~.Q.J.} j = X = i P ~ ~ ~ ~ ~ ~ ~ ~ ~ ~ ",
"~ ~ ~ ~ ~ ~ U Y G -.-.-.=.=.=.1.<.3.:.A 5 . O 9 U u.d.d.s.s.d.N.L.]._._._.).).(.(.(.)._.OXoXW.v.E ;   = s P ~ ~ ~ ~ ~ ~ ~ ~ ~ ~ ",
"~ ~ ~ I ~ ~ U R =.,.<.<.<.,.,.<.4.2.&.A 1 . $ p ( o.M.N.M.M.M.G.E.]._._.oX_._._.oX_._.OX@X@XW.v.E =   : s K ~ ~ ~ ~ ~ ~ ~ ~ ~ ~ ",
"~ ~ I I I I ^ T =.;.2.3.3.2.2.3.3.2.&.v 1 . $ p _ b.F.F.M.V.A.S.U.R.Q.W.W.Y.W.Y.R.Y.W.~.(./.U.} j = + , s C ~ ~ ~ ~ ~ ~ ~ ~ ~ ~ ",
"~ ~ I I ^ I I T G =.;.,.<.3.5.6.6.3.:.x 1 . $ p ) b.F.G.G.F.A.n.b.v.v.v.v.v.v.v.v.v.v.v.b.v.X.) f , - 3 s N P P ~ ~ ~ ~ ~ ~ ~ ~ ",
"~ ~ ~ ~ ~ ~ ~ U Y T G =.,.2.5.6.6.5.>.x 1 . $ p ) $.S.L.L.H.A.#.[ Q E H E E W W E E W W W W J f t w 3 r i g N V ~ ~ ~ ~ ~ ~ ~ ~ ",
"~ ~ ~ ~ ~ ~ ~ P P I F G =.<.5.6.6.3.:.x 1 . $ p ) $.C.H.L.H.m.{ J 7 $ + $ ; = = ; ; ; ; > ; = , w e i i i i d M V ~ ~ ~ ~ ~ ~ ~ ",
"~ ~ ~ ~ ~ ~ ~ P P P B F *.;.:.2.>.>.&.z 1 . $ p ` $.C.F.C.m...! t + X                       . = 8 y d d i y i d N C ~ ~ ~ ~ ~ ~ ",
"~ ~ ~ ~ ~ ~ ~ ~ P K N m S D %.*.*.*.D l < . $ f [ m.C.V.#.{ ( h 8 % % % % $ % @ % $ @ @ + + = , r i d d i y i s g N V B P ~ ~ ~ ",
"~ ~ ~ ~ ~ ~ P P K M d b b n S S S S n 6 #   * h | M.F.$.[ j t 8 , , 8 8 3 3 3 3 3 2 , , 3 3 3 e y i i d y y y y s d g N C ~ ~ ~ ",
"~ ~ ~ ~ ~ ~ P K d i y u i u u b b b i 8 @   = j | V.M...L : + % 3 e y i y y y y r e e r r r y y y i i i y y y y y y i g C I ~ ~ ",
"~ ~ ~ ~ ~ ~ I N d y y e y u i s d d y 8 @   * h ` o.#.` a O o % 8 i d d d d s s i u i i s s s s i i i i y y y e e e y d N P ~ ~ ",
"~ ~ ~ ~ ~ ~ P K d u e r y i s d g d i 8 *   + t L ` ( L 8 % ; 3 e d d d d d s s i i i i s d s s d i i y y y y e 9 e y d N P ~ ~ ",
"~ ~ ~ ~ ~ ~ P N d y y r y i i d d d i , %   X > t a a t 8 , 8 e y i d s d s s i s y s s s s s i i i i i y e u e e e y s N P I I ",
"~ ~ ~ ~ ~ ~ P K M s y y i i i s d d r 8 % o o + + + * > 8 r i s s i i i i i i s s s y s y s i s i i i y y y y e y e y d N I ~ I ",
"~ ~ ~ ~ ~ ~ P L N d i i i i i d s s y 8 ; @         o & 8 i s d s s i i i i i i s r s y s y s s i i i i y i e i y u i M V I ~ ~ ",
"~ ~ ~ ~ ~ ~ I P B h d d d i i i s i y e , - % + + + & , e i g d d i i i i i i i s r s s y s s y i i i y i y i i i d d V K I ~ ~ ",
"~ ~ ~ ~ ~ ~ I I P K C M d i i i i i i r 9 8 8 , 3 3 8 9 y i s s i i i i i i i i r s s y i i s y i i i i y y i d d N L P P I ~ ~ ",
"~ ~ ~ ~ ~ ~ ~ ~ I I P B g s i y i i i y y y y r r y y y i i s i i i y i i i i i s s y s i i i i i y i y i i i g V K I ~ ~ ~ ~ ~ ",
"~ ~ ~ ~ ~ ~ ~ ~ I ~ I L g s y y i i i s s s s s s s s s s i i i i i i i i i i i s y y i y s i i i i i y i y i M K I ~ ~ ~ ~ ~ ~ ",
"~ ~ ~ ~ ~ ~ ~ ~ ~ ~ I P g s s y y i s s s s d d d d s s i i i i i i i i i i i i y s s i i i i i i i i i y i s j K ~ ~ ~ ~ ~ ~ ~ "
};
