/* XPM */
static char *de9cbcd033534f34b106da8d2e9773f0SZFuzxcYmZQuzeWU[] = {
/* columns rows colors chars-per-pixel */
"64 64 219 2 ",
"   c #040304",
".  c #0B0507",
"X  c #060609",
"o  c #0B0709",
"O  c #06080B",
"+  c #0C0B0D",
"@  c #120709",
"#  c #130B0D",
"$  c #0E0E11",
"%  c #120E11",
"&  c #1A0E10",
"*  c #0D1013",
"=  c #131315",
"-  c #191416",
";  c #141518",
":  c #1C1619",
">  c #1C1A1C",
",  c #2E0D0F",
"<  c #251517",
"1  c #221A1E",
"2  c #3C1214",
"3  c #361618",
"4  c #1E1E20",
"5  c #241E21",
"6  c #2A1E21",
"7  c #351F22",
"8  c #232325",
"9  c #2C2226",
"0  c #252529",
"q  c #2D2429",
"w  c #2B292D",
"e  c #32262B",
"r  c #3A262B",
"t  c #34292E",
"y  c #282C31",
"u  c #362B30",
"i  c #392D32",
"p  c #2F3336",
"a  c #3E3136",
"s  c #323439",
"d  c #373438",
"f  c #33393E",
"g  c #3A393D",
"h  c #451517",
"j  c #571A1B",
"k  c #6B1B1B",
"l  c #721D1D",
"z  c #401E20",
"x  c #6F1E22",
"c  c #472629",
"v  c #5B282B",
"b  c #44353B",
"n  c #4E343A",
"m  c #4B363C",
"M  c #47383E",
"N  c #48393F",
"B  c #662628",
"V  c #772526",
"C  c #682E31",
"Z  c #693437",
"A  c #78393D",
"S  c #363D42",
"D  c #393E43",
"F  c #4B3740",
"G  c #403F40",
"H  c #4D3B43",
"J  c #513F46",
"K  c #5A3E44",
"L  c #633D42",
"P  c #6C3C41",
"I  c #763D42",
"U  c #3B4147",
"Y  c #3D444A",
"T  c #444345",
"R  c #47474C",
"E  c #4D4A4D",
"W  c #514047",
"Q  c #464D53",
"!  c #4E4C52",
"~  c #564E52",
"^  c #4C5258",
"/  c #565457",
"(  c #55555B",
")  c #5D5B5E",
"_  c #63464B",
"`  c #5D5D62",
"'  c #615D63",
"]  c #5B646B",
"[  c #5F6D75",
"{  c #636364",
"}  c #66666D",
"|  c #6C6B6D",
" . c #616D75",
".. c #6E6C73",
"X. c #796B73",
"o. c #66737B",
"O. c #6B747C",
"+. c #6A787F",
"@. c #79747B",
"#. c #852D2E",
"$. c #972A2B",
"%. c #832F30",
"&. c #883336",
"*. c #8C3739",
"=. c #973739",
"-. c #A62B2E",
";. c #A9342E",
":. c #A43233",
">. c #AC3333",
",. c #A8393A",
"<. c #B43534",
"1. c #BC3636",
"2. c #B1383C",
"3. c #C83A3A",
"4. c #D23D3D",
"5. c #B24836",
"6. c #B3593B",
"7. c #BC6836",
"8. c #CB5731",
"9. c #D66A2B",
"0. c #E57837",
"q. c #973C41",
"w. c #A83E40",
"e. c #9D4649",
"r. c #824D52",
"t. c #9C4E51",
"y. c #8B585D",
"u. c #99565A",
"i. c #A64748",
"p. c #AB4E51",
"a. c #A85559",
"s. c #B35154",
"d. c #9A685A",
"f. c #A16E5B",
"g. c #8E5B63",
"h. c #935D63",
"j. c #8F646A",
"k. c #986469",
"l. c #8B6C74",
"z. c #85757D",
"x. c #8A777C",
"c. c #96757B",
"v. c #AA6A6F",
"b. c #C24841",
"n. c #D07774",
"m. c #EA9477",
"M. c #F9A776",
"N. c #6E7C84",
"B. c #7F7781",
"V. c #747C84",
"C. c #7B7C85",
"Z. c #837B84",
"A. c #867C85",
"S. c #8D7B83",
"D. c #927C83",
"F. c #7E8993",
"G. c #84828C",
"H. c #8C838D",
"J. c #8C8C8D",
"K. c #93828B",
"L. c #838691",
"P. c #828A93",
"I. c #8A8B95",
"U. c #8A8C95",
"Y. c #928D97",
"T. c #85929D",
"R. c #8C939D",
"E. c #969599",
"W. c #B4898F",
"Q. c #A19E9F",
"!. c #8B9BA5",
"~. c #8C9AA5",
"^. c #949DA8",
"/. c #8FA2AD",
"(. c #92A2AC",
"). c #9BA0A8",
"_. c #97A6B1",
"`. c #97AAB4",
"'. c #9BABB5",
"]. c #9CADB9",
"[. c #9DB2BC",
"{. c #A4A4A7",
"}. c #ACACAC",
"|. c #B1AFAF",
" X c #A4ACB4",
".X c #A2B4BE",
"XX c #AEB5BA",
"oX c #B4B4B7",
"OX c #D6A9AA",
"+X c #DAACAC",
"@X c #F5C6BE",
"#X c #A3B7C1",
"$X c #A5B9C3",
"%X c #ABBDC6",
"&X c #ACBFC9",
"*X c #BEBFC5",
"=X c #ADC1CA",
"-X c #B8C4CA",
";X c #B8C9D2",
":X c #C8C8C8",
">X c #C5CED4",
",X c #C6D4DA",
"<X c #D6D8DA",
"1X c #FFDAC3",
"2X c #E3D9D9",
"3X c #C3D9E1",
"4X c #D5DEE3",
"5X c #D4E1E9",
"6X c #D8E8EF",
"7X c #E4E7E9",
"8X c #EDECEC",
"9X c #F0EFEF",
"0X c #EAEFF0",
"qX c #ECF2F5",
"wX c #E4F3F8",
"eX c #EEF5F9",
"rX c #F8F6F6",
"tX c #F5FDFF",
"yX c #FEFFFE",
/* pixels */
"W W W W W W W W W W W W W W J H H F F F F F H H H J J W W W W W W W W W H H F M F H H H J J W W W W W W W W W W W W W W W W W W ",
"W W W W W W W W W W W W W W W H H H F H F F H H J J W W W T W W W W W H H H H H m H m H J J W W W W W W W W W W W W W W W W W W ",
"W W W W W W W W W W J W W W W J H H H H F H H H J J W J H H H H H W W W H H m H H H H H H J W W W W W W W W W W W W W W W W W W ",
"W W W W W W W W W W W W W W W J J H H H H H H J J W W M a u u a F W W H H H F m m M H H J J W W W W W W W W W W W W W W W W W W ",
"W W W W W W W W W W W W W W W J W H W H J H H W J J W b 9 : > q b W W H H H F F F F H H H W W W W W W W W W W W W W W W W W W W ",
"W W W W W W W W W W W W W W W W W W W W W W W W W W J u > O + > i H W J H F H F F F H H H W W W W W W W W W W W W W W W W W W W ",
"W W W W W W W W W W W W W W W W W W W H H H F H J H b e < @ @ < e b H W H H F H H H H H W W W W W W W W W W W W W W W W W W W W ",
"W W W W W W W W W W W W W W W W W W H F g i u u u i t 9 3 h 2 2 7 t i b m H H H H H H H H W W W W W W W W W W W W W W W W W W W ",
"W W W W W W W W W W W W W W W W W W H b q 5 > : : 4 : 3 j l l j 3 < 5 u b W H H H H W W W W W W W W W W W W W W W W W W W W W W ",
"W W W W W W W W W W W W W W W W W W H p 5 % O   X X % 3 l $.-.V h & $ 5 a H W W W W J W W W W W W W W W W W W W J W W W W W W W ",
"W W W W W W W W W W W W W W W W W W F u : O O O   o , j #.2.,.V h #   % q b H W H H F H N H H W H W W W W W W W W W W W W W W W ",
"W W W W W W W W W W W W W W W W W W H u : O X @ & 2 j C q.p.p.I z .   $ 1 w u a i u t w t t t a H W W W W W W W W W W W W W W W ",
"W W W W W W W W W W W W W W W W W W F t : O @ , h k #.$.u.k.g.L r .     + : : < : : - - - - > t b W W W W W W W W W W W W W W W ",
"W W W W W W W W W W W W W W W W W W H u : O @ 2 l $.-.i.v.D.B.( w X         O   X X         + < a H W W W W W W W W W W W W W W ",
"J J J W W W W W W W W W W W W W W W H t : O # h V -.2.v.v.A.V.` D 4 $ + $ * ; = ; ; = ; ; * ; 8 u F T J W W W W W W W W W W W W ",
"J H J J J W W W W W W W W W W W W W H u : O @ h C e.s.v.D.Z.V. .^ Y S p S S S S S S S U U U f p u i i b H H W W W W W W W W W W ",
"H H H J J W W W W W W W W W W W W W J u < X . 7 L g.k.c.S.B.V.N.o.[ [ [ [ [ [  .[ [ [ o.o.o.] R p 4 5 q b H W W W W W W W W W W ",
"H H H H J W W W W W W W W W W W W W J u : X + w ~ X.D.D.Z.B.Z.A.T.!.!./.!.!.!.!.!.!././.`./.F.] S ; + 5 t W W W W W W W W W W W ",
"F F F H H J W W W W W W W W W W W W b w : + > g ` C.U.Y.I.D.Y.). X.X=X=X=X=X%X%X=X=X=X=X;X=X[.F.R ;   = t N W W W W W W W W W W ",
"F F F H J W W W W W W W W W W N b i t w q w g ( O.P.~.).{.}.#X*X>X4X5X5X5X5X5X5X4X4X5X6XwXwX>XR.^ ;   - t N W W W W W W W W W W ",
"F F H H H J W W W W W W W W H b q 5 5 q g E ' ..F.~.(.XX:X>X<X7XqXtXtXyXtXtXtXtXtXtXtXyXyXyX7X{.) >   - t N W W W W W W W W W W ",
"F F H H J W W W W W W W W W H t 1 $ % w E | Z.I.R.(..X-X<X9XrXyXyXyXyXyXyXyXyXyXtXyXyXyXyXyX8X}.] >   : u N W W W W W W W W W W ",
"H F H H H W W W W W W W W W H w -   % d ) Z.Y.^.(.'.#X,X7XyXyXyXrX9X8X8X8X8X9X9X8X9XqXrXyXrX<XQ./ >   > t H W W W W W W W W W W ",
"H H H H W W W W W W W W W W H t =   % D ' Y.^.'.`.'.$X,XqXyXyX9X:X|.Q.E.Q.Q.{.{.}.|.|.oX|.|.E.| g -   - u N W W W W W W W W W W ",
"J H J J J W W W W W W W W W F t -   = D  .R. X].'.'.#X,XeXyXrX:XE.) T G T E ! / ( ` { ) ) ! T d 5 + X : u H W W W W W W W W W W ",
"W W J W W W W W W W W W W W H w :   = D o.!.[..X].`.$X,XeXyX9XoX{ 8       $ = = : : > > ; * $ + + X + 4 u H W W W W W W W W W W ",
"W W W W W W W W W W W W W W H u :   ; D o./.#X#X].`..X,XeXyX9XoX{ 0     X $ + X         O $ $ + + O + > u F J J W W W W W W W W ",
"W W W W W W W W W W W W W W H w : . ; Y N./.$X$X[.'.XX,XqXyXrX:XE.) T T E E T 8       O w T E g 8 + + : w F J H W W N W W W W W ",
"W W W W W W W W W W W W W W F u : . ; U +.(.$X$X[.`..X>X8XyXyX8X:X}.Q.{.}.{.J./ >     4 { E.E.@.T ;   : t m H H H H m J H W W W ",
"W W W W W W J J W W W W W W F u :   ; U O.(.#X#X].`..X>X7XyXyXyXyX9X8XqXrXrX<XJ.f     T E.<X7X}.` >   : e m H F m H H J W W W W ",
"W W W W W W W J J J J W W W H u :   ; D o.~..X[.].`.#X;X4XqXyXyXyXyXyXyXyXyXrX}.` 0 0 { *XyXyX:X| 4 . : t b F F H m H H H W W W ",
"W W W W J H J J H J H W W W H w -   ; D  .R. X X].].[.=X,X4X7X0XqXeXtXyXyXyXrX<XE.} | ).7XyXyX:X..4   - e b F m H H N H H W W W ",
"W W J J J H H H H H H W H W F t =   % S ' I.). X].'.[.$X-X;X;X,X;X3X6XwXtXyXyXeX,XXXoX4XyXyXyX*X} > X : e m F F F F H H H H W W ",
"W J J J H H F H H F H H W W H t - X % d ` Z.E.^.'.[.[.#X.X#X$X.X[.$X=X3XwXyXyXyXrXrXeXyXyXyXqX|.{ > X - e b F F F F F H W W W W ",
"W W J H H H F F F F F H H W H u 5 + * y ! | C.I.^._.].`.'._.(.^./.(.).OX<X8XrXrXrXrXyXyXyXrX2XQ./ >   : e m H H H F H H W W W W ",
"W W J J H F H F F F H H H W W b e 5 5 6 D W ` @.P.R._././.!.~.I.K.c.K.W.W.+X@X@X@X1X1X1X1X@XOXc.W - . : e m H H H H H W J W W W ",
"W W W H F m H F F M H H H W W W F b e 0 q w g ( O.P.!.!.~.T.P.D.j.a.a.s.n.n.n.m.m.M.M.M.m.n.v.r.c - X : t F J H J H H J W W W W ",
"W W W J J H m F F H H H W H W W H F b e - % > f ` C.U.R.T.P.A.l.u.w.<.<.<.<.2.8.9.0.0.0.8.b.>.C h # O : t H J T W W W W W W W W ",
"W W J J H F F H H m H J K K L K H F n 7 -   O w ~ X.S.K.A.S.z.h.i.,.>.-.-.:.:.5.8.9.9.8.8.1.$.x 3 # O : u H W W W W W W W W W W ",
"W W W J J H J H H F H K L P I _ I I Z c &   . 8 Z y.k.k.k.j.u.u.t.e.q.q.q.*.=.5.6.7.9.6.p.w.*.B 3 # + : t H W W W W W W W W W W ",
"W W W J J J H J J H J _ A *.=.=.q.q.A j <   . 3 B q.i.p.i.i.e.t.u.h.h.g.g.y.y.u.d.f.f.f.k.u._ P e # O : u H J W W W W W W W W W ",
"W W W W W J J J W W W Z *.=.:.<.<.>.$.x , + + , B :.2.<.<.-.,.t.h.z.Z.Z.Z.z.z.x.x.x.x.S.D.S.z./ t *   : t F W W W W W W W W W W ",
"W J W W W W W W W W L A *.>.1.3.3.3.:.x 2 + + , B $.2.2.<.<.>.t.j.Z.L.P.L.G.I.L.L.L.P.U.Y.U.C.` s = X : t H W W W W W W W W W W ",
"W W W W W W W K L I A *.:.<.3.4.4.3.>.V 2 . + 7 C e.s.s.i.i.e.u.l.Z.L.T.~.~.~.!.~.~.!.(._.(.T.] f =   : t H W W W W W W W W W W ",
"W W W W W W W P I *.=.:.>.1.3.3.4.3.>.V 2 . + 9 L j.v.v.v.h.j.j.z.Z.L.R.^.'.[.].].'.'.#X#X#X^.O.U ;   - u H W W W W W W W W W W ",
"W W W W W W K I *.:.<.<.<.<.<.3.3.1.-.x 2 . $ y / B.H.K.S.z.Z.Z.Z.Z.G.R.^.]..X#X.X.X[.$X&X$X(.O.U ;   - t H W W W W W W W W W W ",
"W W W W W W K P *.-.;.<.>.:.:.:.>.>.=.x 2 + $ y ^ ..C.G.L.A.A.L.Z.A.L.U.~.^./.(./.(.(._.'.`.~.[ g ; o : u M W W W W W W W W W W ",
"W W W W W W W L A *.=.=.#.%.%.%.&.&.V j 3 - ; 0 D ^ ` O.C.P.I.I.H.A.A.C.V.O.o.o.O.o.N.N.N.N.[ Q p : - 8 t g F J W W W W W W W W ",
"W W W W W W W K P I A Z C C v v C v v c r 1 8 1 8 y D ( ..G.Y.E.Y.H.Z...` Y U S S U Y Y Y Y S p 0 8 6 9 t a b M H W W W W W W W ",
"W W W W W W W J H K n n c i r r u c i i u r 9 > * + > g ` Z.Y.Y.E.H.@.` f > $ O $ ; ; ; ; ; = : 8 q t t r u u b N W W W W W W W ",
"W W W W W W W W H H m b i t t e t t u i i i t 6 = . + w ! ..Z.H.I.A.X./ w O                 . - 1 t i u t e u i b H W W W W W W ",
"W W W W W W W H H m b b i t e t t i i i a i t 9 1 = $ 8 g ! ' ..B.B...! 0     . + + % % $ + - : 9 t i i u e e r a b b H H W W W ",
"W W W W W W J F F b i t r t t t t u u i i u u e 9 5 > 1 0 w g ! ' | ' E 0 O   o & > 1 1 1 1 1 9 e t u t t e e e u r i b N W W W ",
"W W W W W W H m i t e e 7 e e e t t t t t t t t t t 9 : = + : p R ` ` H 0 +   o > 6 e e e e e t t t t t e e e e e e u b M H W W ",
"W W W W W W J b r e q q q e e e e t t t t t u u i i t 9 = . O > d R R d 8 +   & 1 9 t u i u u u u t t t e e 9 9 9 9 e i b H W W ",
"W W W W W W J b i e e 6 e e e e t t t t t t u u i i t 9 < ; # : w i s w : O   # 1 e u i i i r u u t t t e e e 9 7 9 e i b T W W ",
"W W W W J J H F i t q q e e t t t t t t t t t t u i t t 9 8 : : 4 4 4 - $ o   % 1 e u i i u u u t u e t e e q 7 9 9 7 i F H J W ",
"W W W W W J H G b t e e e t t t t t t t t t t t u t t t t t q 1 = O + O O X X % 5 q u i i t t t t t u e e e q e 9 9 e i b H W W ",
"W W W W W W J H a u u e t t t t t t t t t e u t t t t i i i t 6 - o       X $ % 5 e u u u u t t t t u e e e e e e e t i G J W W ",
"W W W W W W J H F a a i u t t t t e t t t t t t t t t u a i t 9 : = % + % % = 5 9 e t u t t t t u e u e e e e t u i b b F J W W ",
"W W J W W W J J F F b b i u t e t t t t t t t t t t t u i u u e 6 1 1 1 1 5 5 6 q t u u u u e u t e u e e e u i a g F H H J J J ",
"W W W W J W W W J J F b a u e t t t t t t t t t t t t t t u t e e e e e 9 e q e t e t t e e u e t t u t t e u i b H J W J J W W ",
"W W W W W W W W J J J F a t t t e t t t t t t t t t t t t e t t u u u u u u u u e u q u u e u u e t e e t t u a F J W W W W W W ",
"W W W W W W W W W J J F D u t e t t t e t t t t t t t t t t u u u u i i u i u u u u u u e u q u u t t u e e u d H J W W W W W W "
};
