/* XPM */
static char *e615ca5100074eb9836da87852af040dgsrHdrstUlCGkniE[] = {
/* columns rows colors chars-per-pixel */
"64 64 217 2 ",
"   c #040304",
".  c #0A0507",
"X  c #060609",
"o  c #0A0709",
"O  c #05090C",
"+  c #0C0B0D",
"@  c #130B0D",
"#  c #1D0B0D",
"$  c #060E11",
"%  c #0D0E11",
"&  c #120F11",
"*  c #1A0F11",
"=  c #0F1013",
"-  c #131315",
";  c #191416",
":  c #141518",
">  c #1C1619",
",  c #16191B",
"<  c #1C1A1C",
"1  c #340C0D",
"2  c #290E10",
"3  c #261918",
"4  c #221B1E",
"5  c #331314",
"6  c #3C1315",
"7  c #37171A",
"8  c #1E1D21",
"9  c #241D21",
"0  c #2C1D20",
"q  c #3A1E22",
"w  c #1E262C",
"e  c #242326",
"r  c #2C2226",
"t  c #2D2529",
"y  c #25282C",
"u  c #2C292D",
"i  c #31262B",
"p  c #3A262A",
"a  c #34292E",
"s  c #2A2C31",
"d  c #372B30",
"f  c #392D32",
"g  c #2D3338",
"h  c #343236",
"j  c #3E3136",
"k  c #35363B",
"l  c #3B393E",
"z  c #461719",
"x  c #551A1C",
"c  c #6C1D1D",
"v  c #5C3116",
"b  c #6F1D21",
"n  c #45282C",
"m  c #5B2023",
"M  c #5D2A2E",
"N  c #502E33",
"B  c #403137",
"V  c #44353B",
"C  c #4A363D",
"Z  c #47383E",
"A  c #48393F",
"S  c #672527",
"D  c #762425",
"F  c #672F32",
"G  c #7A2C30",
"H  c #683439",
"J  c #79393D",
"K  c #363C41",
"L  c #3B3D42",
"P  c #4B3740",
"I  c #413E42",
"U  c #4D3B42",
"Y  c #513F46",
"T  c #5B3D43",
"R  c #653D43",
"E  c #6C3C41",
"W  c #743C41",
"Q  c #3A4145",
"!  c #3D4349",
"~  c #464649",
"^  c #4C494E",
"/  c #514047",
"(  c #574549",
")  c #4A4D52",
"_  c #504D52",
"`  c #594E54",
"'  c #4D5155",
"]  c #555459",
"[  c #5D5B5E",
"{  c #645659",
"}  c #565C63",
"|  c #5C5C62",
" . c #615D63",
".. c #5D6369",
"X. c #5F6A71",
"o. c #64646B",
"O. c #69666A",
"+. c #686C73",
"@. c #786C74",
"#. c #66727A",
"$. c #6A737B",
"%. c #69767B",
"&. c #76747D",
"*. c #872929",
"=. c #95292A",
"-. c #9B2D2E",
";. c #842F31",
":. c #893538",
">. c #8C3739",
",. c #9B3233",
"<. c #95363A",
"1. c #A4292C",
"2. c #AA352F",
"3. c #A43334",
"4. c #AD3233",
"5. c #A6393B",
"6. c #B43534",
"7. c #BB3636",
"8. c #B83A3B",
"9. c #C33939",
"0. c #C93A3A",
"q. c #9E4E19",
"w. c #B55235",
"e. c #C85432",
"r. c #D16427",
"t. c #DC6D30",
"y. c #E07430",
"u. c #943E41",
"i. c #B63D41",
"p. c #994649",
"a. c #8D5451",
"s. c #8A565C",
"d. c #A84648",
"f. c #B24F4A",
"g. c #A95557",
"h. c #98655F",
"j. c #8D5A60",
"k. c #945E64",
"l. c #996469",
"z. c #916C72",
"x. c #83747C",
"c. c #8B7A7D",
"v. c #A56C6F",
"b. c #A87664",
"n. c #C14840",
"m. c #CB744D",
"M. c #C87779",
"N. c #D87D7A",
"B. c #B78A7F",
"V. c #6C7980",
"C. c #787881",
"Z. c #7C7C85",
"A. c #827B84",
"S. c #897C84",
"D. c #917E85",
"F. c #7D828A",
"G. c #7F8B94",
"H. c #85838C",
"J. c #8B838C",
"K. c #96828A",
"L. c #848591",
"P. c #848B94",
"I. c #898B95",
"U. c #8C8E99",
"Y. c #928D97",
"T. c #88949B",
"R. c #8D939D",
"E. c #96969A",
"W. c #A69B9B",
"Q. c #8C97A3",
"!. c #8D9BA5",
"~. c #8E9FA9",
"^. c #939BA5",
"/. c #969EA9",
"(. c #8FA0AA",
"). c #92A2AC",
"_. c #9BA4AA",
"`. c #95A6B0",
"'. c #9AA7B1",
"]. c #97AAB5",
"[. c #9BABB6",
"{. c #9BAEB9",
"}. c #9DB1BC",
"|. c #A8AAAA",
" X c #B5ACAD",
".X c #A0ACB7",
"XX c #ADB5B6",
"oX c #A3B4BE",
"OX c #B6B4B4",
"+X c #D98182",
"@X c #C99590",
"#X c #E9BCBB",
"$X c #F3C2BF",
"%X c #A2B6C1",
"&X c #A5B9C4",
"*X c #ABBCC5",
"=X c #A9BDC9",
"-X c #B2C4CE",
";X c #B7C5CC",
":X c #CCCBCA",
">X c #C2CED4",
",X c #C7D2D7",
"<X c #C8D5DB",
"1X c #D8D9DB",
"2X c #FBCBCB",
"3X c #F0D2D3",
"4X c #D4DEE3",
"5X c #D9E2E7",
"6X c #E5E8EA",
"7X c #EDECEC",
"8X c #F3EFEF",
"9X c #F0F0EF",
"0X c #EAEEF0",
"qX c #EDF3F5",
"wX c #EFF5F8",
"eX c #F6F7F7",
"rX c #FEFEFE",
/* pixels */
"/ / / / / / / / / / / / / / Y U U U P U P P P U Y Y / / / / / / / / Y Y U U P P P U U Y Y Y / / / / / / / / / / / / / / / / / / ",
"/ / / / / / / / / / Y / / / Y Y U P P P P P P U U Y / / Y Y / / / / Y Y U U U P C U U U U Y / Y Y / / / / / / / / / / / / / / / ",
"/ / / / / / / / / / / / / / Y U U U P P Z V P P P P U U U P U U U / Y Y U U U P U P C U Y Y Y Y / / / / / / / / / / / / / / / / ",
"/ / / / / / / / / / / / / / / / U U P P j d i a d i d s a a f j I Y Y Y U U P P P C U Y Y Y Y Y / / / / / / / / / / / / / / / / ",
"/ / / / / / / / / / / / / / / / Y Y U j i 9 < ; : < > > ; > 4 i Z / Y Y U U C P C U U C / / / / / / / / / / / / / / / / / / / Y ",
"/ / / / / / / / / / / / / / / / / Y U h 9 & o X X O X X X X % 4 f U Y U U P U P C C U Y U / / / / / / / / / / / / / / / / / / / ",
"/ / / / / / / / / / / / / / / / Y Y P d < O X o + @ @ # @ @ @ 3 d Z U Y Y P P U A Y A U / / / / / / / / / / / / / / / / / / / / ",
"/ / / / / / / / / / / / / / / / Y Y U a :   + # 5 z z z z z 6 6 q a f V C Y U U C Y / A / / / / / / / / / / / / / / / / / / / / ",
"/ / / / / / / / / / / / / / / / / / U a - X + 5 x D *.*.*.D c x 7 4 9 i V / U U Y Y U / / / / / / / / / / / / / / / / / / / / / ",
"/ / / / / / / / / / / / / / / / / / P s : X @ z b -.4.6.6.1.=.b 6 @ % 9 f Y / / / U / / / / / / / / / / / / / / / / / / / / / / ",
"/ / / / / / / / / / / / / / / / / / U d 8 & & 6 b -.6.7.9.7.5.D z @   - t V U / / U P U A A A / U / / / / / / / / / / / / / / / ",
"/ / / / / / / / / / / / / / / / / / U V i 9 0 7 x b *.<.d.f.p.W q .   + < t j j a a a a a a f B U / / / / / / / / / / / / / / / ",
"/ / / / / / / / / / / / / / / / / / / I P j f q 5 1 x F a.k.k.E p       + > > > > > > ; ; ; 4 i V / / / / / / / / / / / / / / / ",
"/ / / / / / / / / / / / / / / / / / / / / / P i > . # B  .A.x. .d o       X   X . X         + 4 j U / / / / / / / / / / / / / / ",
"Y Y Y / / / / / / / / / / / / / / / / / / / P u ; $ , L ..Z.A.o.I 8 % O + : : - : - : : : : : 8 d Z / / / / / / / / / / / / / / ",
"Y Y U Y Y / / / / / / / / / / / / / / / P j d t e y g ' +.Z.H.$.} ~ K K L Q Q Q Q Q Q ! ! ! K k h d h j P Y / / / / / / / / / / ",
"U U Y U Y / / / / / / / / / / / / / / Z a e > e k ^ ] O.&.Z.A.F.F.#.#.#.#.#.%.%.X.F.X.F.F.F.X.' k 9 4 i V / / / / / / / / / / / ",
"P U U U Y / / / / / / / / / / / / / U j 4 + + u _ O.A.A.A.A.A.P.G.(.(.(.(.(.(.(.G.].G.`.(.].G.X.K : + < a U / / / / / / / / / / ",
"P P U U U / / / / / / / / / / / / U V t > + < l o.A.Y.Y.J.A.L.R.`.}.%X&X%X}.}.}.=X&X%X=X=X=X`.V.! - X > a A / / / / / / / / / / ",
"P P P U Y Y / / / / / / / / / A V j a u e e l [ &.Y./.^.Y.I.U.^.`.}.%X&X&X&X%X%X%X%X%X&X-X=X`.%.! -   - a U / / / / / / / / / / ",
"U P U U U Y / / / / / / / / U B t 9 9 t j ^  .&.P.^._.).^.Q.Q.).`.[.}.{.}.{.{.}.}.{.}.%X-X}.(.#.Q :   ; a A / / / / / / / / / / ",
"P P U U Y Y / / / / / / / / U d 4 % & s ^ +.A.Y._.'.[.[.].`.).`.].].].].].].].].].].].}.}.{.!.#.L : . > a A / / / / / / / / / / ",
"U P U Y U / / / / / / / / / U a ;   & h { A.Y./.'.[.}.}.oXoX=X&XoXoXoXoX&X&X&X&X%X%X%X=X-X-X'.%.! : X > a A / / / / / / / / / / ",
"U U U U / / / / / / / / / / I a &   - L  .I._..X[.}.}.-X;X;X;X>X<X<X<X<X<X4X;X4X-X<X<X4X5X4X;XP.) ,   > d U / / / / / / / / / / ",
"Y U Y Y Y / / / / / / / / / U a ;   - L +.T.[..X{.{.oX*X,X4X6X0XwXwXwXwXwXwXwXwXwXwXwXrXrXrX5X|.[ <   > d P / / / / / / / / / / ",
"Y Y Y Y / / / / / / / / / / P a > X : L #.~.oX%X{.].%X;X4XqXrXrXrXrXrXrXrXrXrXrXrXrXrXrXrXrX9X|.| <   > d U / Y / / / / / / / / ",
"/ / Y / / / / / / / / / / / I a > X : Q %.(.%X%X{.].oX>X6XrXrXrXeX9X7X7X6X7X7X7X9X9X9XeXrXeX1XE.] < X > d P Y Y / / / / / / / / ",
"/ / / / / / / / / / / / / / P d > X : Q V.).&X&X}.'.oX,X7XrXrX7X:X XW.E.W.|.|.|.|.|.OXOXOX|.E.@.I - X < u P U Y U U / U / / / / ",
"/ / / / / / / / / / / / / / P d >   : Q %.`.&X&X}.].oX<X9XrXeX:XE.[ ~ Q ~ ^ _ ` [ [  .[ [ ] ~ h 8 + o > a C P U U Y U Y / / / / ",
"/ / / / / / / / / / / / / / P d > . : Q %.(.%X%X{.].oX<XwXrX7XOXO.e       + = - , , < > - = & + o X + < a P U P C C U U U / / / ",
"/ / / / / / Y / Y Y Y / / / U d > X - Q #.!.}.oX{.].&X<XwXrX9XOXO.8     O = % X         . % = % + X + < d V U P U C U U U / / / ",
"/ / / Y Y U Y U Y Y U Y Y / U u ;   - l +.Q.[..X].].%X<XwXrXrX:XE...) ~ ' ] ~ s O     $ g ) ' Q e % o > i V C P C U A U / / / / ",
"/ Y Y Y U Y Y U U U U U / / P a :   & K o.J./..X'.{.*X<X0XrXrX7X:XXX|.|.XXoXE...w O X y %._.|.C.~ , O ; i V A C C Y C Y Y Y Y / ",
"/ Y Y U Y U C U U U U U U / P a ;   & h | S.Y././.'.%X,X6XrXrXrXeX9XqXeXrXrX1XT.Q $ O ) |.5X7X X..< X 3 p V A A C C U C U Y / / ",
"/ / Y Y P P C P P P P U / / U d 9 + - s ^ O.A.L.Q.~.oX;X4X0XeXeXeXeXrXrXrXrX7XW.( 3 3 {  X9X8XOXO.8 X ; a V U A Y C U Y Y Y / / ",
"/ / Y Y U U U P P P U U U / U V i 9 8 9 P _  .$.F.Q.'.*X;X<X1X3X3X2X$X2X2X2X#XB.a.v v { @X$X$XW.{ < X ; a A U A U Y Y U Y / / / ",
"/ / / Y U C P P P U P U Y Y Y U V j a 9 e u l _ $.G.!.'.[..XOX X@X+XN.N.+X+XN.m.w.q.q.w.m.N.M.s.N * . > a A Y Y Y U U Y Y / / / ",
"/ / Y U Y P P P P P U U Y / / Y U U P i ; & 8 L | Z.I.Q.R.U.D.D.g.f.i.7.w.i.i.w.r.r.r.r.n.i.i.G z @ X > d A / / Y / / / Y / / / ",
"/ / Y Y U U U U U U U U Y Y Y Y U P C r ; X + i ` @.S.D.S.A.x.j.u.i.1.1.=.1.4.w.e.y.t.t.e.7.=.b 6 @ X < d U / / / / / / / / / / ",
"/ / / Y Y U U U U U U Y Y Y Y ( R W E z #     0 T s.k.l.j.s.s.a.u.u.u.<.<.<.5.f.t.m.m.m.f.d.:.m 7 + X < a A / / / / / / / / / / ",
"/ / / Y Y Y Y Y U U / / / / Y R W u.:.m 2 X . 5 F u.d.d.d.p.p.p.s.s.j.j.s.s.s.h.b.b.b.b.v.k.s.T i + X > a I / / / / / / / / / / ",
"/ / / / / Y U Y / U / / / / Y W u.5.,.b 1 o + 5 b -.4.6.6.4.i.p.j.z.A.A.x.S.S.x.x.c.c.D.D.S.@.( a - o > a U / / / / / / / / / / ",
"/ / Y / / / Y / ( T T ( / ( R W ,.6.4.D 6 o o 5 S ,.8.7.6.6.5.p.z.S.A.T.P.P.L.L.P.A.J.I.U.U.C.} h - o > a U / / / / / / / / / / ",
"/ / / / / Y ( T R W J W E W J >.5.7.4.D 6 X X 0 H p.f.g.d.d.g.v.D.Q.(.(.~./.Q.Q.!.!.Q./.).!.G...k = o > a U / / / / / / / / / / ",
"/ / / / / / T R J >.<.<.<.>.>.5.6.6.2.b 1   O 9 ( k.v.v.v.l.v.K.^.'.{.}.{.{.{.{.{.{.{.}.}.{.Q.+.Q :   > d U / / / / / / / / / / ",
"/ / / / / / T W :.3.4.4.4.3.3.4.6.6.1.c 1   $ w ` x.K.K.D.D.J.Y./..X}.%X%X%X}.}.}.%X}.%X&X%X!.+.Q = o > a U / / / / / / / / / / ",
"/ / / / / Y ( E >.3.6.6.6.6.6.6.7.6.1.b z # : s ' $.Z.Z.Z.&.&.G.R.!.).).).!.~.~.!.!.).{.%X%XQ.V.Q -   > a Z / / / / / / / / / / ",
"/ / / / / Y T R J >.<.3.6.7.9.0.9.7.1.*.c x q n / ] } } } } ....+.V.V.V.V.V.V.#.V.X.V.G./.'.Q.V.Q ;   - r V U Y / / / / / / / / ",
"/ / / / / / / T R E J <.3.6.9.0.0.7.6.2.=.*.D M N h g g g k g k K Q ! Q Q Q Q k g k ! ..F.^.R.+.L -   @ 4 f V U / / / / / / / / ",
"/ / / / / / Y Y U Y T J <.4.7.9.7.6.6.6.6.6.-.S z > $ $ % = - - - : : : : : : + $ O 8 L +.J.J.O.l =   % 4 p j V A / / / / / / / ",
"/ / / / / / Y U U P C H J ,.1.4.2.-.3.2.6.4.,.D z . X                               & h ] @.@.] h %   & 4 t d B V / / / / / / / ",
"/ / / / / / Y Y U P V N F G *.;.;.;.;.:.<.,.;.S 7 * = = & & & = @ - + +         o - 9 h ^ ` ' Z u > ; > 4 t a d j V V U U / / / ",
"/ / / / / / U U P B f f N M M M M F M F F F S N q 4 4 4 4 4 4 9 4 4 < ; +     : e h l l k f u e 9 8 9 r r i p a d d j V A / / / ",
"/ / / / / / U Z f p i p q p p p p n f n f n d p a i t a i i t p a a r 4 %   o 9 l ^ _ I u , + - 4 r a a p i i i p i a j Z U / / ",
"/ / / / / / Y Z f i i t i t p d d d d d d d d d a d d d d d f d j d a 4 &   + e l _ _ l 8 o o - 9 a d f a i t r r r a f V U / / ",
"/ / / / / / U Z f a 0 t i p d d d f d f d f f d d d d d d d f j j j a 4 &   o < d L L d > + ; 4 t d d d a t i r 0 r t d V / / / ",
"/ / / / / / U V f a t i i a d d a a d d d d d d f a a f a f a j f d a 4 =   o - < e 8 e < > 4 t i d d d p i i r r r i f V U Y / ",
"/ / / / / / Y I j a i i a a i d a a a a a d a a a f a a a a a a f d i 4 &   X o + + + - 4 t a a d a a a i i i r r r a f V U / Y ",
"/ / / / / / U U B f d i a a d i a a a a a a a a a a a a a a a j f f i 8 ; + X       . - r a a f d d a i i i i i i i d f P Y / / ",
"/ / / / / / / U P j j f d d i d a a a a a a a a a a a a a a a a a a a r 4 ; = + + @ - > r a j f d a a a i i i a d f f C P Y / / ",
"/ / / / / / Y U U P V j f d a i a a a a a a a a a a a a a a a a a a a i r 4 4 4 4 4 4 r t d d d d a a a i i a f f Z P U U / / / ",
"/ / / / / / / / Y Y U I j d a a a a a a a a a a a a a a a a a a a a a a i t a i t i t a a a d a a a a a a a a j Z I U / / / / / ",
"/ / / / / / / / Y / Y U j d i a u a a a a a a a a a a a a a a a a a a d a a a a a f f a a a a a a a a a u a d j P U / / / / / / ",
"/ / / / / / / / / / Y P j d a i a a a a a a a a a a a a a a a a a a a a f f a j f f f d d a a a a a a i a d d j U / / / / / / / "
};
