/* XPM */
static char *_ccd75f0a4b6475eb5c2d714250c07e1zgk8mcWjbkEWuTv2[] = {
/* columns rows colors chars-per-pixel */
"64 64 222 2 ",
"   c #040304",
".  c #090507",
"X  c #050609",
"o  c #0C0709",
"O  c #05090B",
"+  c #0C0B0D",
"@  c #130A0C",
"#  c #1A0B0D",
"$  c #0E0E11",
"%  c #120E10",
"&  c #0A1114",
"*  c #131315",
"=  c #191416",
"-  c #131518",
";  c #1C1619",
":  c #1C191C",
">  c #280A0C",
",  c #360E0F",
"<  c #280E10",
"1  c #201517",
"2  c #221B1E",
"3  c #3C1213",
"4  c #3A191B",
"5  c #101F23",
"6  c #1D1E21",
"7  c #241D21",
"8  c #291F23",
"9  c #351F22",
"0  c #1D262A",
"q  c #242326",
"w  c #2C2126",
"e  c #272529",
"r  c #2E2429",
"t  c #2C292D",
"y  c #31262B",
"u  c #382428",
"i  c #34292E",
"p  c #2E2C31",
"a  c #372B30",
"s  c #392D32",
"d  c #333236",
"f  c #3E3136",
"g  c #323539",
"h  c #3B373C",
"j  c #33393E",
"k  c #3A393D",
"l  c #451618",
"z  c #581B1B",
"x  c #6C1919",
"c  c #711D1D",
"v  c #401E20",
"b  c #651E22",
"n  c #4A2529",
"m  c #57292D",
"M  c #492D32",
"N  c #44353B",
"B  c #47363D",
"V  c #48393F",
"C  c #55343A",
"Z  c #672527",
"A  c #782627",
"S  c #722F31",
"D  c #6D373D",
"F  c #78383B",
"G  c #363D42",
"H  c #3A3E43",
"J  c #4B3740",
"K  c #413D41",
"L  c #4D3B43",
"P  c #513F46",
"I  c #5A3D43",
"U  c #663D42",
"Y  c #723D42",
"T  c #3A4146",
"R  c #3A4449",
"E  c #444445",
"W  c #434549",
"Q  c #4D4A4D",
"!  c #514047",
"~  c #534249",
"^  c #474D53",
"/  c #554E53",
"(  c #4D5459",
")  c #565459",
"_  c #5D5B5E",
"`  c #654349",
"'  c #7C4347",
"]  c #575C63",
"[  c #5D5D63",
"{  c #605E62",
"}  c #5A656C",
"|  c #5F6D75",
" . c #636364",
".. c #64636B",
"X. c #6A696D",
"o. c #77656C",
"O. c #626D75",
"+. c #6C6B73",
"@. c #786C74",
"#. c #66737B",
"$. c #6B757C",
"%. c #6A787F",
"&. c #76737A",
"*. c #842A2B",
"=. c #98292A",
"-. c #8C2F31",
";. c #8B3336",
":. c #8B363A",
">. c #993637",
",. c #953A3D",
"<. c #A62B2E",
"1. c #AB322F",
"2. c #A33233",
"3. c #AA3738",
"4. c #B33434",
"5. c #BC3736",
"6. c #B1383B",
"7. c #C53939",
"8. c #B24836",
"9. c #BC6836",
"0. c #CB5731",
"q. c #D66A2B",
"w. c #E57837",
"e. c #993D41",
"r. c #A83E40",
"t. c #84484E",
"y. c #9C4749",
"u. c #8B575D",
"i. c #975559",
"p. c #A64547",
"a. c #B54345",
"s. c #AB4E51",
"d. c #A65559",
"f. c #B2575A",
"g. c #9A685A",
"h. c #A16E5B",
"j. c #8D5961",
"k. c #925D62",
"l. c #9A656A",
"z. c #8D6A70",
"x. c #89777C",
"c. c #96757B",
"v. c #A8666B",
"b. c #B2676B",
"n. c #A5747A",
"m. c #C24841",
"M. c #D07774",
"N. c #EA9477",
"B. c #F9A776",
"V. c #697C84",
"C. c #7A7A84",
"Z. c #837B84",
"A. c #867D86",
"S. c #8D7C84",
"D. c #947C82",
"F. c #A77D83",
"G. c #7C848E",
"H. c #7F8A94",
"J. c #86868D",
"K. c #8B828B",
"L. c #94838B",
"P. c #848591",
"I. c #828B95",
"U. c #8B8B95",
"Y. c #898F9A",
"T. c #948D96",
"R. c #89939D",
"E. c #979698",
"W. c #B1888E",
"Q. c #A49B9D",
"!. c #8C97A4",
"~. c #8C9BA5",
"^. c #8D9EA8",
"/. c #939AA5",
"(. c #969CA7",
"). c #8EA1AB",
"_. c #91A2AC",
"`. c #9BA0A8",
"'. c #8FA7B1",
"]. c #93A6B0",
"[. c #9BA7B2",
"{. c #97AAB5",
"}. c #9BABB6",
"|. c #9BADB9",
" X c #9DB1BC",
".X c #A4A4A8",
"XX c #ACACAC",
"oX c #B1AFAF",
"OX c #A4ACB5",
"+X c #A1B3BD",
"@X c #AEB5BA",
"#X c #B4B4B7",
"$X c #D6A9AA",
"%X c #DAACAC",
"&X c #F5C6BE",
"*X c #A3B7C1",
"=X c #A5B9C4",
"-X c #ABBDC6",
";X c #BEBFC5",
":X c #ADC1CA",
">X c #B8C4CA",
",X c #B8C9D2",
"<X c #C8C8C8",
"1X c #C5CED4",
"2X c #C6D4DA",
"3X c #D6D8DA",
"4X c #FFDAC3",
"5X c #E3D9D9",
"6X c #C3D9E1",
"7X c #D5DEE3",
"8X c #D4E1E9",
"9X c #D8E8EF",
"0X c #E4E7E9",
"qX c #EDECEC",
"wX c #F0EFEF",
"eX c #EAEFF0",
"rX c #ECF2F5",
"tX c #E4F3F8",
"yX c #EEF5F9",
"uX c #F8F6F6",
"iX c #F5FDFF",
"pX c #FEFFFE",
/* pixels */
"! ! ! ! ! ! ! ! ! ! ! ! ! ! P L L J J J J J J L P P P P ! ! ! ! ! ! ! L L L J J J L L L ! ! ! ! ! ! ! ! ! ! ! ! ! ! ! ! ! ! ! ! ",
"! ! ! ! ! ! ! ! ! ! ! ! ! ! P P L L J L J J L L P P ! ! ! ! ! ! ! ! ! ! L L L J J L J L L ! ! ! ! ! ! ! ! ! ! ! ! ! ! ! ! ! ! ! ",
"! ! ! ! ! ! ! ! ! ! P ! ! ! P L L L J L L L L L L P ! P L L L L L ! P L L J J J J J C L ! ! ! ! ! ! ! ! ! ! ! ! ! ! ! ! ! ! ! ! ",
"! ! ! ! ! ! ! ! ! ! ! ! ! ! ! ! P L L L L L L L ! P P L f a a f L ! ! L L L J L J J J P L ! ! ! ! ! ! ! ! ! ! ! ! ! ! ! ! ! ! ! ",
"! ! ! ! ! ! ! ! ! ! ! ! ! ! ! ! P P P L P L P P P ! ! N r : ; r h ! ! L L J J L J J P V L ! ! ! ! ! ! ! ! ! ! ! ! ! ! ! ! ! ! ! ",
"! ! ! ! ! ! ! ! ! ! ! ! ! ! ! ! ! P P P P P P P ! ! L a ; + + ; s L ! L L L J J V V V P ! ! ! ! ! ! ! ! ! ! ! ! ! ! ! ! ! ! ! ! ",
"! ! ! ! ! ! ! ! ! ! ! ! ! ! ! ! ! ! P L L L L L ! L K y ; @ @ = y B L ! L L L J J L L L L ! ! ! ! ! ! ! ! ! ! ! ! ! ! ! ! ! ! ! ",
"! ! ! ! ! ! ! ! ! ! ! ! ! ! ! ! P P P L f d a a a a y 9 4 3 l 3 9 i f N L L L L L L L L ! ! ! ! ! ! ! ! ! ! ! ! ! ! ! ! ! ! ! ! ",
"! ! ! ! ! ! ! ! ! ! ! ! ! ! ! ! ! ! P h p 7 ; ; ; ; ; 9 z c c z 4 1 7 i N L ! L L L ! L ! ! ! ! ! ! ! ! ! ! ! ! ! ! ! ! ! ! ! ! ",
"! ! ! ! ! ! ! ! ! ! ! ! ! ! ! ! ! ! L a 7 % X X X X @ 4 c =.<.A l # $ 2 f L ! ! ! ! ! ! ! ! ! ! ! ! ! ! ! ! ! ! ! ! ! ! ! ! ! ! ",
"! ! ! ! ! ! ! ! ! ! ! ! ! ! ! ! P P L a ; O X X X o < z -.3.6.A l # . * r N L ! ! L L L V L V ! L ! ! ! ! ! ! ! ! ! ! ! ! ! ! ! ",
"! ! ! ! ! ! ! ! ! ! ! ! ! ! ! ! P P L y ; X o @ > , l S e.s.s.Y v .   + 2 y s s a i i y i i i N L ! ! ! ! ! ! ! ! ! ! ! ! ! ! ! ",
"! ! ! ! ! ! ! ! ! ! ! ! ! ! ! ! P ~ L p ; X @ > l x *.;.d.k.k.U u .     + = : : : ; ; = = = : y N ! ! ! ! ! ! ! ! ! ! ! ! ! ! ! ",
"! ! ! ! ! ! ! ! ! ! ! ! ! ! ! ! P ~ L a ; X @ 3 x =.<.s.l.D.C./ p .       . X X X           + 2 f L ! ! ! ! ! ! ! ! ! ! ! ! ! ! ",
"P P P ! ! ! ! ! ! ! ! ! ! ! ! ! P P J a ; O @ l A 2.a.f.F.Z.C.] G 6 $ O $ * * * * - - * * * * 6 a V ! ! ! ! ! ! ! ! ! ! ! ! ! ! ",
"P L P P P ! ! ! ! ! ! ! ! ! ! ! ~ P L s ; . o l S y.f.v.D.Z.C.O.( R j j j G G G G G G T T T j g a a s h L L ! ! ! ! ! ! ! ! ! ! ",
"L L L P P ! ! ! ! ! ! ! ! ! ! ! ! ! ! i : . . 9 U u.v.c.S.C.C.V.#.| | | | | O.| | | | #.#.#.} ^ g q : y N L ! ! ! ! ! ! ! ! ! ! ",
"J L L L P P ! ! ! ! ! ! ! ! ! ! ! ! ! a : . + t / @.S.K.Z.x.C.A.I.~.~.).~.~.~.~.~.~.).).'.).H.} j * + 2 a L ! ! ! ! ! ! ! ! ! ! ",
"J J L L L P ! ! ! ! ! ! ! ! ! ! ! ! N y ; % : k [ C.U.Y.K.U.T./.OX=X:X:X:X:X-X-X:X:X:X>X,X,X XG.W -   = i V ! ! ! ! ! ! ! ! ! ! ",
"J J J L P ! ! ! ! ! ! ! ! ! ! V N a i t r t k ( #.H./.`..XXX#X;X1X7X8X8X8X8X8X8X7X7X9X9XtX9X1XR.( -   = i K ! ! ! ! ! ! ! ! ! ! ",
"J J L L L P ! ! ! ! ! ! ! ! L N r 7 7 r h Q { +.G.!.[.@X<X1X3X0XrXiXiXpXiXiXiXiXiXiXiXpXpXpX0X.X_ :   = i L ! ! ! ! ! ! ! ! ! ! ",
"J J L L P P ! ! ! ! ! ! ! ! L i 2 $ % p Q X.Z.U.!._.+X>X3XwXuXpXpXpXpXpXpXpXpXpXiXpXpXpXpXpXqXXX} :   ; i L ! ! ! ! ! ! ! ! ! ! ",
"J J L L P ! ! ! ! ! ! ! ! ! L t =   % d [ A.T.(._.[.=X2X0XpXpXpXuXqXqXqXqXqXqXqXqXwXwXuXpXuX3XQ.) :   ; i L ! ! ! ! ! ! ! ! ! ! ",
"L P L L P ! ! ! ! ! ! ! ! ! L i %   % G ..U.(.[.{.{.=X2XrXpXpXwX<XXX.XE.Q..X.XXXXXXXoX#X#XoXE.X.k =   ; i L ! ! ! ! ! ! ! ! ! ! ",
"L P L ! P ! ! ! ! ! ! ! ! ! J i ;   * G +.R.}.OX{.{.*X2XyXpXuX<XE._ E K E Q Q ) _ _ { { _ / E d 6 + o ; a L P P ! ! ! ! ! ! ! ! ",
"! ! ! ! ! ! ! ! ! ! ! ! ! ! J a ; X * H #.~.+X+X|.{.=X2XyXpXwX#X .q       $ * * : - : - * * $ + o X $ ; a L P P ! ! ! ! ! ! ! ! ",
"! ! ! ! ! ! ! ! ! ! ! ! P ! L i ; . * T #._.*X*X|.{.=X2XyXpXwX#X .w       $ + O         O + $ + $ X + 6 a L P P P ! ! ! ! ! ! ! ",
"! ! ! ! ! ! ! ! ! ! ! ! P E L a ; . - T V._.=X=X|.{.@X2XrXpXuX<XE._ E E Q Q E q       O t E Q k 7 $ X ; t L P P L P L ! ! ! ! ! ",
"! ! ! ! ! ! ! ! ! ! ! ! ! ! L i ; . - T %._.=X=X X{.+X1XqXpXpXqX<XoXQ..XXX.XJ._ :     6  .E.E.&.E * . ; a B L L ! ! V ! L ! ! ! ",
"! ! ! ! ! ! ! ! ! ! ! ! ! ! J a ; . - T $._.*X*X|.{.+X1X0XpXpXpXuXwXqXwXuXuX3XJ.k     E E.3X0XXX[ : X ; y B J J V C V L ! ! ! ! ",
"! ! ! ! ! ! ! P P P P ! ! ! L a ; . * G #.~.+X+X|.{.+X,X7XrXpXpXpXpXpXpXpXpXuXXX_ q e  .<XpXpX<X+.: . - y B C L V V V ! L ! ! ! ",
"! ! ! P P L P L P P L P P ! L t *   * G +.R.}.+X|.|.*X:X1X8X0XeXtXyXiXpXpXpXuX3XR.X.X.`.0XpXpX<X+.6 . = y B J B B P V L L ! ! ! ",
"! ! ! P P P L L L L L ! ! ! J i %   * G ..U.(.OX|.|. X-X:X,X1X2X2X6X8XtXpXpXpXyX2X#X@X3XpXpXpX;X..6 . = y B B J J J V P P P P P ",
"! ! P P L L J J L J L L L ! L i ; X % d _ Z./.(.[.}. X+X+X*X*X+X X*X:X2XtXpXpXpXiXuXyXpXpXpXyXoX} : . ; y B J J J J V P P P P P ",
"! ! ! L J J J J J J J L L ! J s 2 o * t ! X.Z.U./.[.{.|.}.]._.^.~./.[.;X3XqXuXuXuXuXpXpXpXuX5XQ.) :   ; i B J L J J P J P P P ! ",
"! ! ! P L L J J J J L L L ! L N y 7 7 8 H Q [ &.I.~.].].).^.!.U.L.D.n.W.$X%X&X&X&X4X4X&X4X&X$Xc.P = . ; i V L L P L L P P ! ! ! ",
"! ! ! L L V V C J J L L P P P L J s a e q t k ) $.I.~.~.~.H.Y.S.z.d.s.f.f.M.M.N.B.B.B.B.$XM.b.t.n = . ; i V L L P L P P P ! ! ! ",
"! ! ! P P J P B L J J L P P P P L L N r ; @ : G [ C.U.R.Y.H.J.z.d.3.3.4.4.4.8.8.q.q.w.w.0.m.3.A l @ O ; i V ! ! P P P ! P ! ! ! ",
"! ! ! L L J L J L J L L P ~ P P L J C 9 =   + y / o.S.L.A.Z.z.k.y.3.1.<.=.2.4.5.0.q.q.0.7.7.*.b 3 @ O ; i V ! ! ! ! ! ! ! ! ! ! ",
"! ! ! ! P L P L L L L ! P P P ~ I Y D n #     2 C u.l.l.l.k.k.i.y.y.p.,.,.,.,.8.9.9.9.9.8.3.e.Z 4 + O : s L ! ~ ! ! ! ! ! ! ! ! ",
"! ! ! P P P P L L P P P ! ! ! ` e.e.;.b >     < Z ,.p.p.p.p.y.y.i.u.k.j.u.u.u.g.g.g.h.h.v.k.' U u % O ; i L ! ! ! ! ! ! ! ! ! ! ",
"! ! ! ! ! P P P P P ! ! ! ! ~ Y e.r.2.c , X X > b >.6.5.4.1.3.p.k.x.x.Z.Z.x.x.x.x.x.x.D.S.S.@.) t % . ; i L ! ! ! ! ! ! ! ! ! ! ",
"! ! ! ! P ~ P ~ ~ I U ~ ! ~ U F :.2.2.A l * % 4 A >.4.5.4.4.r.i.c.A.I.I.I.P.P.P.P.P.P.U.Y.T.C.] g *   ; i L ! ! ! ! ! ! ! ! ! ! ",
"! ! ! ! P P ~ I U Y F Y Y Y D S A A A S M f h I ' y.s.f.f.f.b.n.L.!.^.^.~./.~./.~.~.~.^._.^.I.[ j * X : i L ! ! ! ! ! ! ! ! ! ! ",
"! ! ! ! ! ! I U F ,.,.>.,.,.;.A z l v N Q [ ..o.z.l.l.n.W.W.Q.`..XOX|.|.|.|.|.|.|.|.{.|.*X{.R.O.j * X ; a L ! ! ! ! ! ! ! ! ! ! ",
"! ! ! ! ! ! ~ Y :.>.1.4.4.4.-.c l # = p ) @.A.S.S.S.L.T.E..XOX X+X+X|.*X+X+X X+XOX*X*X*X*X*X~.#.T * . ; i L ! ! ! ! ! ! ! ! ! ! ",
"! ! P ! P ~ I Y :.2.4.5.7.5.<.c ,   O 0 ^ &.J.A.C.&.C.H.R.).H. X^.(.^.(._.^._.).^.^._.|.*X*X/.$.T * . ; i V ! ! ! ! ! ! ! ! ! ! ",
"! ! P ~ P P P U F :.>.4.5.7.4.c l   O 5 H ) ....} ( } } | V.V.G.V.V.V.#.$.V.$.#.V.O.V.Y.(.[.~.$.T *   = r f L P ! ! ! ! ! ! ! ! ",
"! ! ! ! ! ! P I U Y F ,.6.7.4.*.l o X & 0 p h k g g g j T R R R R R T T T R H G G G ^ | G.(.R.+.k *   = 7 s N J ! ! ! ! ! ! ! ! ",
"! ! ! ! ! ! ! L L J D F >.4.1.*.l @   X O & * * * % $ * * - - - * - * * - - * % O $ 6 K +.K.K...k %   % 7 y s B L ! ! ! ! ! ! ! ",
"! ! ! ! ! ! P P L L J D :.>.=.A l % X X X X         X           X   X   X   X X X X $ a ) @.@.) d $   + ; r a f N L ! ! ! ! ! ! ",
"! ! ! ! ! ! ! P L J N C S ;.A Z l ; * % % % % $ % $ % % % % % % % % % % @ @ % % % % % 8 H / / H q +   + ; r a s f N V J L ! ! ! ",
"! ! ! ! ! ! L L N N s M m m m n u 2 2 2 2 2 2 2 2 2 2 2 2 2 2 2 2 : 2 2 7 7 2 7 2 2 ; 7 r t p q - . X + : w a a s s f B L E P P ",
"! ! ! ! ! ! L B f a 9 y u i n u y u y y y y y t y y y y y t y y t u y t r y 8 y y y 8 7 ; % $ $ O X . @ 2 w u u y y s s N ! ! ! ",
"! ! ! ! ! ! P B s 9 8 y y y i a i s i s i s i s i i s i i s i i s i s i a a a a a a 9 7 % .       . + = 2 r y y 9 r y s B P ! ! ",
"! ! ! ! ! ! L B f y r y y y a a s s s s i s s s a s s s s s s s s s s s s s s s s a y 8 2 % + o @ % - : 8 r y y r 8 y s N L ! ! ",
"! ! ! ! ! ! L N s y r y y a a a a a a a a a a a i s s s i s a i i s s i s s i s a a y y 8 7 7 2 6 7 7 8 8 y y r 8 r 9 s J L P P ",
"! ! ! ! ! ! L K f a y r y a a y i i i i i i i i i i i i i i i i i i i i i i i i a a y y y y t y 9 y y y y r y 9 r 9 y s K J P P ",
"! ! ! ! ! ! L L N a a a a y y a i i i i i i i i i i i i i i i i i i i i i i i i a y y a a a a a a a i i i y y y y y a f K P P P ",
"! ! ! ! ! ! P L J f s s a a a y i i i i i i i i i i i i i i i i i i i i i i i i a y a a a a s s s s s a a y y y a s f N J P P ~ ",
"! ! ! ! ! ! P P L J K f s a a y i i i i i i i i i i i i i i i i i i i i i i i i a y a a a a a a a a a i y y a s f K K L L P P ~ ",
"! ! ! ! ! ! ! ! P P L N f a a y y i i i i i i i i i i i i i i i i i i i i i i i y a a y a y a y a a a r a y a f J J P ~ P P P P ",
"! ! ! ! ! ! ! ! P ! P L f a y a i i i i i i i i i i i i i i i i i i y i i i i i a y a y y a a a y a a r a y s f K L P P ~ P ~ P ",
"! ! ! ! ! ! ! ! ! ! P L f a y t i i i i i i i i i i i i i i i i i i i i i i i i y p a a y a r a a y a a y y a f J P ~ P P P ~ P "
};
