/* XPM */
static char *_a81f9a55ffc432ac4554ebb8651fa4f8PlMFGEnSmBKscYI[] = {
/* columns rows colors chars-per-pixel */
"64 64 224 2 ",
"   c #040304",
".  c #090305",
"X  c #060609",
"o  c #0B0709",
"O  c #04090B",
"+  c #0C0B0D",
"@  c #130B0D",
"#  c #1D080A",
"$  c #0E0E11",
"%  c #120E11",
"&  c #1B0F11",
"*  c #0E1315",
"=  c #131315",
"-  c #191416",
";  c #141518",
":  c #1C1619",
">  c #14191C",
",  c #1C1A1C",
"<  c #280C0D",
"1  c #310D0E",
"2  c #261619",
"3  c #221B1E",
"4  c #381214",
"5  c #3C191B",
"6  c #1E1E21",
"7  c #241D21",
"8  c #2C1D20",
"9  c #331F22",
"0  c #1B262A",
"q  c #242326",
"w  c #2D2226",
"e  c #242529",
"r  c #2D2429",
"t  c #2C292D",
"y  c #372327",
"u  c #31262B",
"i  c #34292E",
"p  c #2E2C31",
"a  c #372B30",
"s  c #392D32",
"d  c #2E3338",
"f  c #3E3136",
"g  c #35353A",
"h  c #3B393D",
"j  c #461516",
"k  c #591C1D",
"l  c #6C1C1C",
"z  c #721D1E",
"x  c #401E20",
"c  c #6A1C22",
"v  c #46272A",
"b  c #592224",
"n  c #403037",
"m  c #44353B",
"M  c #4A373E",
"N  c #47383E",
"B  c #48393F",
"V  c #59393E",
"C  c #672527",
"Z  c #792526",
"A  c #722F31",
"S  c #69383D",
"D  c #74393D",
"F  c #7D3A3E",
"G  c #363D42",
"H  c #393D43",
"J  c #4B3740",
"K  c #413F42",
"L  c #4D3B42",
"P  c #513E46",
"I  c #5A3D44",
"U  c #653E43",
"Y  c #6F3C40",
"T  c #723D43",
"R  c #3A4247",
"E  c #3B4348",
"W  c #444345",
"Q  c #46464A",
"!  c #4D4A4D",
"~  c #514047",
"^  c #574349",
"/  c #4B4B52",
"(  c #524C52",
")  c #594D53",
"_  c #4C5258",
"`  c #575559",
"'  c #54545A",
"]  c #5D5B5E",
"[  c #6D454B",
"{  c #565B62",
"}  c #5D5D63",
"|  c #605D62",
" . c #59646B",
".. c #5F6D75",
"X. c #636265",
"o. c #65636A",
"O. c #6A696D",
"+. c #616D75",
"@. c #6D6B73",
"#. c #796D75",
"$. c #66737B",
"%. c #6A757D",
"&. c #6A787F",
"*. c #75737A",
"=. c #84292A",
"-. c #972A2B",
";. c #8A3639",
":. c #8B3639",
">. c #993637",
",. c #933A3E",
"<. c #A62B2E",
"1. c #A9342E",
"2. c #A53333",
"3. c #AD3333",
"4. c #A8383A",
"5. c #B33434",
"6. c #BB3636",
"7. c #B6383A",
"8. c #C23838",
"9. c #B24836",
"0. c #B4593B",
"q. c #BC6836",
"w. c #CB5731",
"e. c #D66A2B",
"r. c #E57837",
"t. c #813E43",
"y. c #993E41",
"u. c #A83E40",
"i. c #9B4649",
"p. c #904B4F",
"a. c #8A575D",
"s. c #995459",
"d. c #A74749",
"f. c #AF4F52",
"g. c #A75558",
"h. c #9A685A",
"j. c #A16F5C",
"k. c #8D5961",
"l. c #935D62",
"z. c #9C666A",
"x. c #8B6A71",
"c. c #956C72",
"v. c #89777C",
"b. c #96757B",
"n. c #A3676C",
"m. c #B2696E",
"M. c #C24841",
"N. c #D07774",
"B. c #EA9477",
"V. c #F9A776",
"C. c #6B7980",
"Z. c #7C7781",
"A. c #747A83",
"S. c #7C7C85",
"D. c #827B84",
"F. c #867B84",
"G. c #8D7C83",
"H. c #937D85",
"J. c #A27C82",
"K. c #7E848E",
"L. c #7F8E98",
"P. c #85838D",
"I. c #8C838C",
"U. c #8C8C8D",
"Y. c #848591",
"T. c #838A94",
"R. c #8B8B95",
"E. c #8B8F99",
"W. c #928D97",
"Q. c #86929D",
"!. c #8B939C",
"~. c #979599",
"^. c #B4898F",
"/. c #A19E9F",
"(. c #8B9BA5",
"). c #8C9AA6",
"_. c #939BA5",
"`. c #979EA9",
"'. c #8EA2AC",
"]. c #91A2AC",
"[. c #9BA1A9",
"{. c #95A6B0",
"}. c #9CA7B2",
"|. c #97AAB5",
" X c #9BABB6",
".X c #9BAEB9",
"XX c #9DB1BC",
"oX c #A4A4A7",
"OX c #ACACAC",
"+X c #B1AFAF",
"@X c #A4ACB4",
"#X c #A2B3BE",
"$X c #AEB5BA",
"%X c #B4B4B7",
"&X c #D6A9AA",
"*X c #DAACAC",
"=X c #F5C6BE",
"-X c #A2B7C1",
";X c #A5B9C3",
":X c #ABBDC6",
">X c #ADBFC8",
",X c #BEBFC5",
"<X c #ADC1CA",
"1X c #B8C4CA",
"2X c #B8C9D2",
"3X c #C8C8C8",
"4X c #C5CED4",
"5X c #C6D4DA",
"6X c #D6D8DA",
"7X c #FFDAC3",
"8X c #E3D9D9",
"9X c #C3D9E1",
"0X c #D5DEE3",
"qX c #D4E1E9",
"wX c #D8E8EF",
"eX c #E4E7E9",
"rX c #EDECEC",
"tX c #F0EFEF",
"yX c #EAEFF0",
"uX c #ECF2F5",
"iX c #EAF5F8",
"pX c #F8F6F6",
"aX c #F5FDFF",
"sX c #FEFFFE",
/* pixels */
"~ ~ ~ ~ ~ ~ ~ ~ ~ ~ ~ ~ ~ ~ P L L J J J J J J L P P L a - X X ; a L ~ P L L L J M P M P P P ~ ~ ~ ~ ~ ~ ~ ~ ~ ~ ~ ~ ~ ~ ~ ~ ~ ~ ",
"~ ~ ~ ~ ~ ~ ~ ~ ~ ~ ~ ~ ~ ~ ~ L L L J L J L L L P P L a ; X X ; s L ~ L L L L J L M M P P P ~ ~ ~ ~ ~ ~ ~ ~ ~ ~ ~ ~ ~ ~ ~ ~ ~ ~ ",
"~ ~ ~ ~ ~ ~ ~ ~ ~ ~ ~ P ~ ~ ~ ~ L L J J m M M J L L H i 2 @ @ 2 i m L P L L J J P M P M L P ~ ~ ~ ~ ~ ~ ~ ~ ~ ~ ~ ~ ~ ~ ~ ~ ~ ~ ",
"~ ~ ~ ~ ~ ~ ~ ~ ~ ~ ~ ~ ~ ~ ~ P P L J J f a u i s s u 9 5 4 j j y i s m M L M L M M M P P P ~ ~ ~ ~ ~ ~ ~ ~ ~ ~ ~ ~ ~ ~ ~ ~ ~ ~ ",
"~ ~ ~ ~ ~ ~ ~ ~ ~ ~ ~ ~ ~ ~ ~ P P L L g u 7 , ; - : : 5 k z z k 5 2 7 u n J J J M M B M ~ ~ ~ ~ ~ ~ ~ ~ ~ ~ ~ ~ ~ ~ ~ ~ ~ ~ ~ ~ ",
"~ ~ ~ ~ ~ ~ ~ ~ ~ ~ ~ ~ ~ ~ ~ ~ ~ P L s 7 % O     + $ j z -.-.Z j @ $ , s M M L M M P P L ~ ~ ~ ~ ~ ~ ~ ~ ~ ~ ~ ~ ~ ~ ~ ~ ~ ~ ~ ",
"~ ~ ~ ~ ~ ~ ~ ~ ~ ~ ~ ~ ~ ~ ~ ~ ~ ~ J a : o X   O o < b =.4.4.=.j %   - w n M M B B m N N B L L L ~ ~ ~ ~ ~ ~ ~ ~ ~ ~ ~ ~ ~ ~ ~ ",
"~ ~ ~ ~ ~ ~ ~ ~ ~ ~ ~ ~ ~ ~ ~ ~ P P L a ; O . # < 1 j A i.f.d.T x o   + 3 u i i i u u i u i s n L ~ ~ ~ ~ ~ ~ ~ ~ ~ ~ ~ ~ ~ ~ ~ ",
"~ ~ ~ ~ ~ ~ ~ ~ ~ ~ ~ ~ ~ ~ ~ ~ ~ ~ L a > O @ 1 j l Z y.g.l.k.[ y X   . $ - , : : : - - = - 3 u f ~ ~ ~ ~ ~ ~ ~ ~ ~ ~ ~ ~ ~ ~ ~ ",
"~ ~ ~ ~ ~ ~ ~ ~ ~ ~ ~ ~ ~ ~ ~ ~ ~ ~ L p : O @ 4 l -.2.d.n.G.Z.' a X         X X . . .       + 3 s ~ ~ ~ ~ ~ ~ ~ ~ ~ ~ ~ ~ ~ ~ ~ ",
"~ ~ ~ ~ ~ ~ ~ ~ ~ ~ ~ ~ ~ ~ ~ ~ ~ ~ L a : o @ j z <.7.m.J.G.A. .G 6 + + * * ; * > * = ; * > ; q a N ~ ~ ~ ~ ~ ~ ~ ~ ~ ~ ~ ~ ~ ~ ",
"~ ~ ~ ~ ~ ~ ~ ~ ~ ~ ~ ~ ~ ~ ~ ~ ~ ~ L s : X o 5 A d.g.m.H.D.A.+._ R G d g G G G G g R R R R d d d a f n L ~ ~ ~ ~ ~ ~ ~ ~ ~ ~ ~ ",
"~ ~ ~ ~ ~ ~ ~ ~ ~ ~ ~ ~ ~ ~ ~ ~ P ~ P s 6 . X 9 U a.n.c.b.Z.A.C.$.........+...........$.$.$. ./ d q 3 u f L ~ ~ ~ ~ ~ ~ ~ ~ ~ ~ ",
"~ ~ ~ ~ ~ ~ ~ ~ ~ ~ ~ ~ ~ ~ ~ ~ P P L s : X o u ) #.G.H.F.D.Z.D.T.(.).).).).(.(.(.).(.'.{.'.L. .g > + , a L ~ ~ ~ ~ ~ ~ ~ ~ ~ ~ ",
"P P P ~ ~ ~ ~ ~ ~ ~ ~ ~ ~ ~ ~ ~ P P J i : @ 6 G } S.E.E.I.R.W.`. X;X>X>X<X<X:X:X<X;X<X2X2X2X.XK.Q ;   - i B ~ ~ ~ ~ ~ ~ ~ ~ ~ ~ ",
"L P P P ~ ~ ~ ~ ~ ~ ~ ~ ~ ~ L L m s t u e u H _ @.T._.`.oXOX%X,X5X0XqXwXqXqXqXqXqXqXqXwXiXwX2X!._ ;   - i B ~ ~ ~ ~ ~ ~ ~ ~ ~ ~ ",
"L L L L P ~ ~ ~ ~ ~ ~ ~ ~ ~ L n u 3 3 r h ! | @.K.(.].$X1X6X6XeXrXaXaXsXaXaXaXpXaXaXsXsXsXsXeXoX] ,   ; i M ^ ~ ~ ~ ~ ~ ~ ~ ~ ~ ",
"L L L L P ~ ~ ~ ~ ~ ~ ~ ~ ~ L i 3 + = t ! O.D.R.(.].#X1X6XrXpXsXsXsXsXsXsXsXsXsXsXsXsXsXsXpXyXOX] 6   : a M ~ ~ ~ ~ ~ ~ ~ ~ ~ ~ ",
"J J L L P P ~ ~ ~ ~ ~ ~ ~ ~ J i -   = g } D.W.`.].}.;X5XeXsXsXsXpXuXrXrXrXrXrXtXrXrXtXsXsXpX8X/.' , . , i W ~ ~ ~ ~ ~ ~ ~ ~ ~ ~ ",
"L J J L L ~ ~ ~ ~ ~ ~ ~ ~ ~ K i -   = g | R.`.}.}.|.:X5XiXsXsXrX3XOX/.~./.oXoXoXOX+X+X+X+XOX~.O.K =   : i N ~ ~ ~ ~ ~ ~ ~ ~ ~ ~ ",
"J L L L P P ~ ~ ~ ~ ~ ~ ~ ~ L t -   ; H @.(.@X X X|.;X5XuXsXsX3X~.] Q K W ! ( ` ] X.] ] ] ( Q g 6 + . : i W ~ ~ ~ ~ ~ ~ ~ ~ ~ ~ ",
"J J L L P P ~ ~ ~ ~ ~ ~ ~ ~ L i - X ; H $.).#X#X.X|.#X5XpXsXtX%XX.q   X O + @ ; ; , , , ; $ $ $ + o + 3 s M ~ ~ ~ ~ ~ ~ ~ ~ ~ ~ ",
"L J L P L P ~ ~ ~ ~ ~ ~ ~ ~ J a : X ; H C.).-X-X.X X#X5XiXsXtX+XX.q     X + +           X $ $ + + X + , s L ~ ~ ~ ~ ~ ~ ~ ~ ~ ~ ",
"L L L L ~ ~ ~ ~ ~ ~ ~ ~ ~ ~ L i - . ; E C.].;X-XXX X#X5XuXsXpX3X~.] W W ! ! R q         t W ! g q + + - i L ~ ~ ~ ~ ~ ~ ~ ~ ~ ~ ",
"L P L P L ~ ~ ~ ~ ~ ~ ~ ~ ~ K a : . ; E C.'.;X;X.X|.-X4XyXsXsXrX3X+X/.oXoXoXU.` ,     , X.~./.*.W ; . : i L ~ ~ ~ ~ ~ ~ ~ ~ ~ ~ ",
"P ~ ~ ~ ~ ~ ~ ~ ~ ~ ~ ~ ~ ~ L a : X = R C.].-X-X.X|.-X2XeXsXsXsXpXtXrXpXsXtX6XU.g     W /.qX8XOX] , X : i L ~ P ~ ~ ~ ~ ~ ~ ~ ~ ",
"~ ~ ~ ~ ~ ~ ~ ~ ~ ~ ~ ~ ~ ~ J i : X ; H @.).#X-X.X X-X1X0XuXsXsXsXsXsXsXsXsXpXOX] q q O.,XsXsX,XO.6 X : i L P P ~ ~ ~ ~ ~ ~ ~ ~ ",
"~ ~ ~ ~ ~ ~ ~ ~ ~ ~ ~ ~ ~ ~ J a -   = H +.E.@X#X.X@X-X>X5XqXeXiXuXiXaXsXsXsXsX6X~.+.O.`.eXsXsX3XO.q X - i N P P L ~ L ~ L ~ ~ ~ ",
"~ ~ ~ ~ ~ ~ ~ ~ ~ ~ ~ ~ ~ ~ L u -   - g o.R.`.@X X X-X;X1X2X4X2X9X9XwXiXsXsXsXiX4X$X:X6XsXsXpX1XO.6   : i M L L L L L P ~ ~ ~ ~ ",
"~ ~ ~ ~ ~ ~ ~ ~ ~ ~ ~ ~ ~ ~ J i -   = d ] S.W.`. X XXX#X-X-X-X-XXX-X<X9XrXsXsXsXaXpXpXsXsXsXpX+XX.,   : i M M J L L L L ~ ~ ~ ~ ",
"~ ~ ~ ~ ~ P P ~ ~ ~ P ~ ~ ~ L a , + - t ! O.F.R._.{. X X|.{.{.).'.(.OX&X6XrXpXpXsXpXsXsXsXpX8X/.' ,   , u m M L M M L L L ~ ~ ~ ",
"~ ~ ~ P P P L P L ~ L ~ ~ ~ L H u 7 , t h ! | *.Y.).].{.'.).(.R.I.G.J.^.^.*X=X=X7X7X=X7X7X=X&Xb.~ :   : u M J J J J L L ~ L ~ ~ ",
"P P P P P P P J L L L P ~ ~ ~ L M n i u t t h ` &.T.).).).).Y.G.z.s.g.f.m.N.N.B.V.V.V.V.B.N.m.p.v % . - u M J J J J L L L P P ~ ",
"P P P P M L M P L L L L L L ~ ~ ~ ~ M i - @ : H } S.T.).T.T.F.c.s.u.5.5.6.7.u.w.e.e.r.r.w.M.4.Z 5 % + : u m J J L J L L P P ~ ~ ",
"P ^ P L P M L M M L L L ~ ~ ~ ~ ~ ~ I u - X + r ) #.H.G.F.F.x.l.i.4.3.<.<.<.2.9.q.e.e.w.w.5.-.c 4 @ O : u M L L J L L L P P ~ ~ ",
"P P P P P J J J J M L L L ~ L ^ ^ [ S v - . + 2 I a.l.z.z.l.l.s.i.i.y.y.,.,.,.9.0.q.e.0.f.4.:.C 4 o X : a L L L L L L L P ~ ~ ~ ",
"~ ~ ~ L J L M J J M L L L ~ ~ [ t.,.:.k < . X 2 C y.d.d.u.d.i.s.s.l.l.k.a.a.a.s.h.j.j.j.h.z.[ V 8 . X : s L L P L P P P P ~ ~ ~ ",
"~ ~ P P P J J J J P M P P ~ ^ T ,.4.-.C 4 . X 4 c >.5.5.5.3.4.i.l.x.D.D.F.v.v.v.F.G.v.G.H.G.x.) u + X 2 s P P P ~ P P ~ ~ ~ ~ ~ ",
"~ ~ ~ L P J M M M V I L ~ ^ U F >.5.5.Z 4 @ + 4 C -.7.6.5.5.u.g.x.G.T.T.T.Y.Y.Y.D.Y.Y.T.E.R.K.} H : % : u m P ~ ~ ~ ~ ~ ~ ~ ~ ~ ",
"~ ~ ~ ~ P J P I S D D D S S D ,.5.8.5.=.4 . X 2 C i.d.d.d.d.g.n.H._.'.'.)._.(.(.).).).`.].].!.&.{ H t e r a s m L L ~ ~ ~ ~ ~ ~ ",
"~ ~ ~ ~ P L P Y F :.>.>.:.;.,.4.7.8.5.Z 1 .   2 V a.z.z.n.z.b.H._.}. X.X.X X X X}.|..X.X#XXX{.!.Z.| ( H t 7 7 u h L ~ ~ ~ ~ ~ ~ ",
"~ ~ ~ ~ ~ P P Y :.>.3.3.3.2.2.5.6.6.2.l 1 . O q ( #.G.H.H.G.H.~.[.@X-X-X#X#X#XXX#XXX#X#X#X#X.X[.!.F.O.( t % + , a L ~ ~ ~ ~ ~ ~ ",
"~ ~ ~ ~ P P I T ;.2.3.6.5.6.5.5.5.1.-.l 4 - ; d { Z.R.P.S.A.Z.K.Q.).].{.'.'.'.'.'.'.'.].'.].].]._.W.D.` d %   - i J ~ ~ ~ ~ ~ ~ ",
"~ ~ ~ ~ ~ ^ P U F :.>.2.5.6.6.3.-.Z C b v s E _ %.P.Y.S.$.} { { +.$.C.C.C.C.%.C.%.&.%.%.$.%.&.Y.W.W.I.} h -   - i L ~ ~ ~ ~ ~ ~ ",
"~ ~ ~ ~ ~ ~ P I U T T ,.4.6.6.-.z j 5 f P ` o.*.I.R.P.%._ h p d g E E E E R R R R R R R g R Q  .D.W.Y.O.h % . - t J ~ ~ ~ ~ ~ ~ ",
"~ ~ ~ ~ ~ ~ P ^ P ^ U ;.>.5.5.=.j # % g _ *.P.W.W.R.D.| h , + + $ = ; ; > = ; ; ; = = * O * 6 W @.F.G.| h =   - a J ~ ~ ~ ~ ~ ~ ",
"~ ~ ~ ~ ~ ~ ~ ~ P P ^ T ,.4.-.l 1 . O 0 _ *.G.R.I.D.@.( p $                                 + p ' *.Z.{ g % X : a K ~ ~ ~ ~ ~ ~ ",
"~ ~ P ^ P ~ ~ P P L P S T ,.;.k < X O , H ` o.o.o.} ( h q = % - = @ % % + = @ % = @ % % = % % r M ) ' K e $ . : i L ~ ~ ~ ~ ~ ~ ",
"~ ~ ~ ~ ^ ~ ~ ~ L L L P U T S v 2   X * 0 d h h h d p w q 3 3 3 3 3 3 3 3 3 3 2 3 3 7 7 7 7 6 7 t p p e ; + X : a J ~ ~ ~ ~ ~ ~ ",
"~ ~ ~ ~ ~ ~ ~ L ~ L L J J P V y , o X + $ % = % % ; $ , 3 r i i i r u u r u u u u u r u a i 8 7 ; $ $ % o X O : a L ~ ~ ~ ~ ~ ~ ",
"~ ~ ~ ~ ~ ~ ~ J J L J M J J M i 7 $ X   . .         X % 3 i s s s s a a s a i s a i a s s s i 7 - o X     X $ 7 a J P ~ ~ ~ ~ ~ ",
"~ ~ ~ ~ ~ ~ L W m m f B m J n i 7 - = @ + % $ % + % % 7 w i f f s s a s a s s s s s s s s s a 8 : % + o + % ; 7 i f J L L ~ ~ ~ ",
"~ ~ ~ ~ ~ ~ ~ J m s s s n n s i r q 3 3 3 3 3 3 3 3 3 w u i s a s i s a s a a i i i u i a a a r w 7 3 : 2 , 7 8 u s s M K P P P ",
"~ ~ ~ ~ ~ ~ J J s i u u u u y i u u u r r u r u r u u u i i s i i i i i i i i i u u u u i i i i u r u r w r 8 9 w u a f J P ~ ~ ",
"~ ~ ~ ~ ~ ~ L m s i u 8 w w u u i s a a s i a a i s i i i i i i i i i i i i i u u u u u u i i a s i s a i u u u w w u s K L ~ ~ ",
"~ ~ ~ ~ ~ ~ L J n u u 8 u u u u i i f s s s s s s s s a i i i i i i i i i i i i u u u u i i a a s s a a a i u u y w r a M L ~ ~ ",
"~ ~ ~ ~ ~ ~ L m s u r r u u u u i a a a a a a a a a a a a u u a i i i i i i i i i u u i i i i i a a a a i u u u 9 7 u a J L P P ",
"~ ~ ~ ~ ~ ~ ~ J n i r u u a i a i a i i i i i i i i i a a a a u i i i i i i i i i i i i i i i i i i a u u u u 8 9 u u s n L P P ",
"~ ~ ~ ~ ~ ~ P L n s a i a u i i i i i i i i i i i i u a r a a a i i i i i i i i i i i i i i i i i i u i u u u u u u a s K P P ~ ",
"~ ~ ~ ~ ~ ~ P K J n f s a a i i i i i i i i i i i i a a r a r a i i i i i i i i i i i i i i i i i i a a u u u a a s f J L P ~ ~ ",
"~ ~ ~ ~ ~ ~ ~ L L J M f s a u i i i i i u p i i i i i i a r a a i i i a i i i i i i u i i i i i i a u u u i a s f H J L L P P P ",
"~ ~ ~ ~ ~ ~ ~ ~ ~ L L K f a i u i u i i a i i i i i i i a r a u i i i i i i i i i i i i i i i i u a i a u i a s J L P ~ P P ~ P ",
"~ ~ ~ ~ ~ ~ ~ ~ ~ ~ P J f a i u i a i i u a a i i i i i a a i i i i i i i i i i i i i i i i i i u a i u u i a f J L ~ ~ ~ ~ ~ ~ ",
"~ ~ ~ ~ ~ ~ ~ ~ ~ ~ P L f a i u u i i i a u u i i i i i u i i i i i i i i i i i i i i i i i a u a u a i u i a g L P ~ ~ ~ ~ ~ ~ "
};
