/* XPM */
static char *_c6e5f6f1a5041bde5ec4dad902ef8107SvOdCZdE0itSuCh[] = {
/* columns rows colors chars-per-pixel */
"64 64 222 2 ",
"   c #040304",
".  c #0B0406",
"X  c #060609",
"o  c #0B0709",
"O  c #05090C",
"+  c #0C0B0D",
"@  c #130B0D",
"#  c #1D080A",
"$  c #050E11",
"%  c #0D0E11",
"&  c #120E10",
"*  c #180E10",
"=  c #131315",
"-  c #191416",
";  c #141518",
":  c #1C1619",
">  c #1C1A1C",
",  c #2B0D0F",
"<  c #350C0D",
"1  c #221518",
"2  c #221A1D",
"3  c #3C1517",
"4  c #3B191B",
"5  c #1D1E20",
"6  c #241E21",
"7  c #321F22",
"8  c #1F2E33",
"9  c #242325",
"0  c #2D2226",
"q  c #262629",
"w  c #2E2529",
"e  c #2C292D",
"r  c #32262B",
"t  c #3A2529",
"y  c #3B262A",
"u  c #34292E",
"i  c #282D32",
"p  c #372B30",
"a  c #392D32",
"s  c #2E3136",
"d  c #333236",
"f  c #3E3136",
"g  c #34373C",
"h  c #3A393D",
"j  c #400F10",
"k  c #451617",
"l  c #591C1D",
"z  c #6C1B1B",
"x  c #721E1E",
"c  c #4E1F21",
"v  c #6A1C23",
"b  c #45292D",
"n  c #5F272A",
"m  c #5D2A2E",
"M  c #44353B",
"N  c #45363C",
"B  c #49363E",
"V  c #48393F",
"C  c #543136",
"Z  c #62272B",
"A  c #732323",
"S  c #792527",
"D  c #672F31",
"F  c #722F31",
"G  c #6A363B",
"H  c #79383C",
"J  c #363D42",
"K  c #393E43",
"L  c #4B3740",
"P  c #403F40",
"I  c #4D3B42",
"U  c #513F46",
"Y  c #5B3D44",
"T  c #633D44",
"R  c #6B3C41",
"E  c #753C41",
"W  c #3B4247",
"Q  c #3C4449",
"!  c #444445",
"~  c #44474A",
"^  c #4D4A4D",
"/  c #514047",
"(  c #5E4044",
")  c #524148",
"_  c #464D53",
"`  c #554E54",
"'  c #4B5358",
"]  c #575559",
"[  c #54555C",
"{  c #5C5B5E",
"}  c #4F5960",
"|  c #5C5D62",
" . c #605D61",
".. c #5B646B",
"X. c #5F6D75",
"o. c #636364",
"O. c #68686D",
"+. c #626D75",
"@. c #796C74",
"#. c #66727B",
"$. c #6A757C",
"%. c #6A787F",
"&. c #78737B",
"*. c #862C2D",
"=. c #952629",
"-. c #9B2C2C",
";. c #822F31",
":. c #893639",
">. c #983537",
",. c #A72B2E",
"<. c #A6302F",
"1. c #A33333",
"2. c #AC3232",
"3. c #A8393A",
"4. c #B43535",
"5. c #BB3636",
"6. c #B1383C",
"7. c #C43939",
"8. c #CA3B3A",
"9. c #B34E38",
"0. c #BB6739",
"q. c #CB5732",
"w. c #D66A2B",
"e. c #E57837",
"r. c #983D42",
"t. c #A83E40",
"y. c #844A4E",
"u. c #9C4649",
"i. c #9C4E51",
"p. c #87565C",
"a. c #9A5559",
"s. c #A74749",
"d. c #A85559",
"f. c #B05150",
"g. c #99685E",
"h. c #A2735D",
"j. c #8E5C63",
"k. c #935D62",
"l. c #90656B",
"z. c #986469",
"x. c #8B6D74",
"c. c #89777D",
"v. c #96757B",
"b. c #A3686A",
"n. c #AE6B6B",
"m. c #D07774",
"M. c #EA9477",
"N. c #F9A776",
"B. c #6C7A82",
"V. c #7B7781",
"C. c #757B84",
"Z. c #7E7D8A",
"A. c #837C84",
"S. c #8D7B84",
"D. c #807F8A",
"F. c #8A7F88",
"G. c #927D84",
"H. c #A27C82",
"J. c #7E828D",
"K. c #7F8993",
"L. c #84838C",
"P. c #8B838C",
"I. c #8C8C8D",
"U. c #918188",
"Y. c #848A94",
"T. c #888993",
"R. c #8B8A94",
"E. c #918C96",
"W. c #89939C",
"Q. c #92949D",
"!. c #989798",
"~. c #B4898F",
"^. c #A19E9F",
"/. c #8B9AA4",
"(. c #8B9BA5",
"). c #959BA5",
"_. c #8FA2AD",
"`. c #91A2AC",
"'. c #9BA0A9",
"]. c #98A6B1",
"[. c #97AAB4",
"{. c #9CABB5",
"}. c #9BAEB9",
"|. c #9DB2BC",
" X c #A4A4A7",
".X c #ACACAC",
"XX c #B1AFAF",
"oX c #A4ACB4",
"OX c #A2B3BD",
"+X c #AEB5BA",
"@X c #B4B4B7",
"#X c #D6A9AA",
"$X c #DAACAC",
"%X c #F5C6BE",
"&X c #A2B7C1",
"*X c #A5B9C3",
"=X c #ABBBC5",
"-X c #ABBDC6",
";X c #BEBFC5",
":X c #ADC1CA",
">X c #B8C4CA",
",X c #B8C9D2",
"<X c #C8C8C8",
"1X c #C5CED4",
"2X c #C6D4DA",
"3X c #D6D8DA",
"4X c #FFDAC3",
"5X c #E3D9D9",
"6X c #C3D9E1",
"7X c #D5DEE3",
"8X c #D4E1E9",
"9X c #D8E8EF",
"0X c #E4E7E9",
"qX c #EDECEC",
"wX c #F0EFEF",
"eX c #EAEFF0",
"rX c #ECF2F5",
"tX c #E4F3F8",
"yX c #EEF5F9",
"uX c #F8F6F6",
"iX c #F5FDFF",
"pX c #FEFFFE",
/* pixels */
"/ / / / / / / / / U / / / / U I U L L I I I L I ) U I p - X X - p I I ) I I I L V U V U U U U / / / / / U / / / / / / / / / / / ",
"/ / / / / / / / / / / / / / U U I L L L L L L L U U I p - O O ; p I ) U I I I L V I B U U U U U / / / / / / / / / / / / / / / / ",
"/ / / / / / / / / / / / / / / I I I L L N L N L L U P r 1 @ @ 1 p N I I L I I B L I I L U U U U / / / / / / / / / / / / / / / / ",
"/ / / / / / / / / / / / / / / / I L I L a p p u p p u 0 4 k j 3 0 y f M I I L B L L L U U U U U / / / / / / / / / / / / / / / / ",
"/ / / / / / / / / / / / / / / U U I L f e 6 > : : : : 4 l x x z k 1 6 e a L L L L L L I I / / / / / / / / / / / / / / / / / / / ",
"/ / / / / / / / / / / / / / / / ) U I d 6 & X   X o & 3 x -.-.A k * + 2 p L L L L L I I U / / / / / / / / / / / / / / / / / / / ",
"/ / / / / / / / / / / / / / / / ) U I p : O X X X . , l *.3.3.*.k &   = 0 M I I B N N N V I L I U / / / / / / / / / / / / / / / ",
"/ / / / / / / / / / / / / / / / U U L p : X X # # 3 k F u.s.i.H c o   + 1 w u u u r u r r u u N V / / / / / / / / / / / / / / / ",
"/ / / / / / / / / / / / / / / / ) U L e > O o < j z *.r.a.b.j.T 0 .     % - : : : : - - = - > r f / / / / / / / / / / / / U / / ",
"/ / / / / / / / / / / / / / / / ) U I p > O o 3 z =.,.s.b.S.V.[ e +       X . X . X X       + 2 f / / / / / / / / / / / / / / / ",
"/ / / / / / ) I / / / / / / / / U ) L p : X @ k S ,.6.n.H.S.C.| J 5 + O $ = ; ; ; = = ; ; ; ; 9 p N I / / / / / / / / / / / / / ",
"/ / / / / / ) U / / / / / / / / ) ) I a : X o k F r.f.n.G.A.C.+.' W g g J J J J J J J K W W g s p d f M N / / / / / / / / / / / ",
"/ / / / ) ) U ) / / / / / / / / U ) U d 6 X . 7 R j.b.H.S.V.V.B.B.X.#.X.X.X.X.X.X.X.X.#.#.#..._ s 9 > u M I / / / / / / / / / / ",
"/ / / / U ) ) U / / / / / / / / ) ) I a : . o r ` @.S.S.S.A.V.D.K./.(./.(.(.(.(.(.(.(._.[._.K.X.g ; + > u I / / / / / / / / / / ",
"/ / / / / / / / / / / / / / / / I I L r - & : J | Z.T.T.E.P.E.).{.*X-X-X:X-X-X-X-X-X:X,X,X,X}.C.~ ;   - u I / / / / / / / / / / ",
"I I U U ) / / / / / / / / / I I L a u u 6 e J ' B.Y./.'. X.X@X;X2X7X8X9X8X8X8X8X8X8X8X9XtX9X1XW.' ;   - u L / / / / / / / / / / ",
"I I I U U U U / / / / / / / I f u 2 6 e f ` | $.J./.].+X>X<X3X0XrXuXiXiXiXiXiXiXiXiXiXpXpXpX0X X{ >   - u I ) / / / / / / / / / ",
"I I I I U U / / / / / / / / I p > + & e ^ O.A.P./.`.OX>X7XwXuXpXpXpXpXpXpXpXpXpXpXpXpXpXpXuXrX.X..>   : u V ) / / / / / / / / / ",
"L L I I I U / / / / / / / / P u -   = d | Z.Q.).`.].-X2XeXpXpXpXuXwXqXqXqXqXqXqXqXqXwXpXpXuX5X^.] > . : u I / / / / / / / / / / ",
"I L L I U / / / / / / / / / I r -   = g o.T.'. X{.[.*X2XrXpXpXqX<X.X^.^.^.^. X.X.XXXXXXX@X.X!.O.K =   : u I / / / / / / / / / / ",
"L L I I U U / / / / / / / / L u - X = K +.W.oX{.}.[.*X2XyXpXuX<X!.{ ! P ! ^ ^ ] {  .o.{ { ] ! d 2 + o : u I / / / / / / / / / / ",
"L L I I I / / / / / / / / / L u : X = K #.).&X&X}.[.OX2XyXpXwX@Xo.q     X + = = : > > > ; & % + + X + > u I / / / / / / / / / / ",
"I L I I U / / / / / / / / / I u : X = K B.`.&X&X}.{.OX2XyXpXwX@Xo.9 X   X % +           X % % % + X + > d I / / / / / / / / / / ",
"I I I I U / / / / / / / / / I p : X = K B.`.&X&X|.{.OX2XrXpXuX<XE.{ ! ! ^ ^ W 9         e ! ~ h 9 + + - u V / / / / / / / / / / ",
"U U I U U / / / / / / / / / P u :   ; K B.).&X&X|.[.&X1XeXpXpXqX<XXX X^..X XI.] >     5 o.!.^.&.! ;   : u I / / ) / / / / / / / ",
"/ U / / / / / / / / / / / / I u : . ; K B.`.&X&X}.[.&X1X0XpXpXpXpXwXqXwXuXuX3XI.g     ! !.7X5X.X .> . : u I / / / / / / / / / / ",
"/ / / / / / / / / / / / ) ) L u : X ; K #./.oX&X}.[.&X;X7XrXiXpXpXpXpXpXpXpXuX.X{ 9 9 O.<XpXpX;XO.5 X : u I / U / / / / / / / / ",
"/ / / / / / / / / / / / ) ) L u -   ; K +.W.{.&X}.}.&X-X1X7X0XtXeXyXiXpXpXpXpX3X!.O.+.'.9XpXpX<XO.5 X : u N U / I / I / / / / / ",
"/ / / / / / / / / / ) U ) U I r -   - g o.T.'.oX{.}.|.=X-X,X1X2X6X6X9XtXpXpXpXyX1X+X;X3XpXpXpX;XO.5 X : u B L I B U / I I / / / ",
"/ / / / / / / / / / U U ) ) I r -   = d | A.Q.).{.{.|.&X&X=X&X&X|.&X:X6XtXpXpXpXiXwXrXpXpXpXwXXXo.5 X : r B L L L V V / / / / / ",
"/ / / / / U U U U U U U U U I p : + & e ^ O.A.T.).].[.[.[.[.].(./.(. X#X<XqXuXuXpXpXpXpXpXuX5X!.] > X - u M V I L L V I I / / / ",
"/ / / U U U U I U U U U U ) I h r 2 6 e f ^  .V.Y./.`.]._././.T.P.G.v.~.#X$X%X%X4X%X4X4X4X%X#Xv./ : . : y B V L L L I I I / / / ",
"/ U U U U B U L I I I U I ) ) L N a p e 0 e h ] $.T./.)././.T.S.z.a.d.f.n.m.m.M.N.N.N.N.M.m.n.y.b * X : w L L L L L I I U U ) ) ",
"/ U U U U U V U I I I I U U ) / / I M r > = - W | Z.T./.K.Y.F.x.i.s.4.2.5.6.6.q.w.e.e.e.q.q.1.F k * X : w L L L L L L I U U U ) ",
"/ / U L B U L L L L L I U U / / / / I a >   X r ` @.S.F.F.A.x.j.s.3.2.,.,.,.1.9.0.w.w.q.q.2.=.v 3 @ X 5 r L I I L L I I I U ) ) ",
"/ / U U U B L V L L I I I U / / / I U a 1   . 0 T p.z.z.k.k.z.a.i.u.u.r.r.r.r.9.0.0.q.0.s.t.r.Z 3 @ X : r L I I L I I U ) U ) U ",
"/ / / U L L L V L L L U U U U U U I I a : . o 4 D r.s.s.3.s.s.i.a.k.l.j.j.p.k.a.g.h.h.h.b.k.p.Y r & X 6 r L U U U I I I U U ) U ",
"/ / U U U I L I L L L I U / / U I I L p : X @ k A -.4.5.4.4.3.u.z.x.A.A.V.A.c.S.S.P.c.U.G.S.@.` p & X : u L U U ) ) ) ) ) ) ) ) ",
"/ / U I I L L L L I I U U / / U I U B r - X & 4 A >.4.5.4.,.3.a.l.A.J.K.L.Z.Z.L.Z.Z.Z.L.T.P.V.[ s % X : u I U U ) U ) U U ) U ) ",
"/ / / U U I U I U L I U U / / ( R R D c : X @ 4 D u.s.s.s.s.i.k.x.A.J.K.J.J.L.J.Z.Z.Z.Y.Y.T.V.| d = X : u I U U ) ) U ) ) U ) U ",
"/ / / U U I U U I U I / / / ) T E :.;.l < o @ 7 Y j.j.b.z.k.j.x.c.A.A.Z.J.A.Z.Z.Z.Z.Z.L.P.T.&.[ s @ X : u I / / U ) ) ) / / / / ",
"/ / / / / U U U U ) ) / / / ) E >.3.-.x < o $ i ` @.S.G.S.S.S.A.A.A.A.A.A.A.A.A.A.A.A.P.P.P.&.[ p = X : p I / / ) U ) ) / / / / ",
"/ / / / / / / / U ) ) ) / ) T E r.2.2.x j . $ i [ C.P.E.T.J.L.L.L.P.L.L.P.L.L.P.P.P.L.T.E.R.&.| d = X : u I / / ) ) ) I / / / / ",
"/ / / / / / / / ) ) ) ( ( R E >.3.5.2.*.< X $ i [ Z.W.Q.E.Y.T.R.W.Q.Q.).Q.Q.).Q.).Q.Q.).'.).T.o.g =   - u I / / I ) ) ) / / / / ",
"/ / / ) / / / / / / / ( H :.>.3.4.5.1.x <   X 8 } A.Q.Q.E.R.T.Q.).{.{.oX{.{.{.{.{.{.{.OX+XOX).#.W ;   - p L / / / / / / / / ) I ",
"/ / / / / / / / / / / R :.>.2.5.5.4.-.z <   $ 8 } A.R.E.I.P.R.Q.'.oXOX&XOXOXOXOX|.oXOX*X-X*X`.%.W = X - p P / / / / / / / / / / ",
"/ / / / / / / / / / T E :.2.5.7.7.4.-.A k # = e ` O.&.A.&.&.&.I.W./.`.`.(.(.`.(.`.`.`.].{.[./.+.h = . > u L ) ) / / / / / / / / ",
"/ / / / / / ) Y T E H :.1.4.8.8.7.5.2.=.v k k b / ` { | [ { ] ..+.#.B.B.B.B.B.%.%.$.%.B.C.B.X._ s : - 9 p f I / / / / / / / / / ",
"/ / / / / / ( T H :.>.3.4.5.7.7.7.5.4.<.-.*.S m b d s s s d d d J W Q Q W W W W W W Q Q Q Q J d q 9 2 r u a M V I / / / / / / / ",
"/ / / / / / Y R :.3.2.4.4.4.4.5.4.4.4.4.4.2.-.A c - + $ $ = = = = ; ; ; ; ; ; = ; ; ; ; ; - = > 9 e y u u u a M V / / / / / / / ",
"/ / / / / / ( G :.>.2.4.<.1.1.1.1.1.<.2.4.2.-.A 3 o                                         X = 9 u p p u u p a M I I / / / / / ",
"/ / / / / / / T F *.*.=.*.;.;.S ;.;.;.:.>.>.;.Z 3 * & = @ = @ - & % & & & & & & & % @ & + + - : w u a p u r r p f M N I I / / / ",
"/ / / / / / U C C n Z Z n m m m n m m D D D D b 7 2 2 2 2 2 2 2 2 2 2 2 2 2 2 1 2 1 > 2 1 2 6 0 r u y u u u r r p p f M I / / / ",
"/ U / / / / I B b y y y y y y y a b b a a b b u y y r r r r r r w w r r u w e r w 0 0 w r r w r u u u u r w r y w y u f N / / / ",
"/ / / / / / U N f a r r r r r p u a a u u u p p u p p p p p p p p p a p p p u p u y u u p p p p u u u u r r w 0 w 0 r a f / / / ",
"/ / / / / / U B f u u r u u p p u a a a a a p a d p p p p p a p p p a a u f p y u u u u p a p p u u u u r r 0 0 0 0 e p N I / / ",
"/ / / / / / / N f u r r u u u p u u u a p p a p u a u p p p u u p p p p p p p y u u u u p p p p p u p r r r r 0 2 r r a M I U U ",
"/ / / / / / ! N M u r e r p u u u u u u u u u u u p u u u u u u u u u u u p p u u u u u u u u u u p r u r r w w 7 w u a M I U U ",
"/ / / / / / / N f a p u u u u u u u u u u u u u u u u u u u u u u u u u u u r p u u u u u u u u u u u r r r r r r r u a B U / / ",
"/ / / / / / / L B f f a p u u u u u u u u u u u u u u u u u u u u u u u u u u u u u u u u u u u u u r r y r u y a a f M L U / / ",
"/ / / / / / / / I L N f a p u r u u u u u u u u u u u u u u u u u u e u u u u u u u u u e p p r u p u e e r u a M M P I I U ) ) ",
"/ / / / / / / / ) ) I N f p u u u u u u u u u u u u u u u u u u u u u u u u u u u u u u u p r p u r p r u u u a M I I U ) ) U ) ",
"/ / / / / / / / ) U I I N p r r w u u u u u u u u u u u u u u u u u u u u u u u u u u u r p p r u u r u u r a M B U U ) U ) ) U ",
"/ / / / / / / / / / U V f p r u u u u u u u u u u u u u u u u u u u u u u u u u u u u u u u p r u u p r e a u a B U ) U ) ) U ) "
};
